<svg xmlns="http://www.w3.org/2000/svg" width="580.172" height="622.262" viewBox="0 0 580.172 622.262">
  <g id="blog" transform="translate(-297.859 -33.858)">
    <path id="Path_1164" data-name="Path 1164" d="M661.746,445.447c-11.949,4.8-23.562,9.436-34.506,20.994-13.177,13.959-18.2,30.765-22.389,44.779a164.642,164.642,0,0,0-5.751,27.415c2.457-.5,14.014-2.736,23.9,4.411a27.984,27.984,0,0,1,7.258,7.929c1.173-10.776,2.4-21.552,3.573-32.384,1.005-1.172,2.01-2.4,3.015-3.573a155.421,155.421,0,0,1,12.9,28.81,191.383,191.383,0,0,1,7.426,33.445c.67,4.634,1.117,8.487,1.4,11.223,33.11-.726,57.342-.335,76.046.5,8.989.391,19.933,1,27.415-6.03,7.705-7.2,12-22.669,13.958-29.816,1.9-6.923,2.513-11.5,6.086-13.065,4.355-1.9,10.329,1.843,15.019,5.7.056-.279.112-.614.168-1.117.837-5.137,3.629-23.729,1.563-40.48-1.117-9.045-4.076-33.947-23.283-50.362-7.314-6.253-14.294-8.934-21.44-11.669C713,426.743,673.192,440.869,661.746,445.447Z" transform="translate(-132.826 -177.01)" fill="#1e1c1a"/>
    <path id="Path_1165" data-name="Path 1165" d="M686.624,333.159a15.423,15.423,0,0,0,.335,2.848c.391,0-3.127-17.532,1.4-33.891,4.411-16.024,17.141-33.054,35.678-39.2a49.837,49.837,0,0,1,15.522-2.457c-3.573-5.639-2.848-7.035-2.457-7.426,1.563-1.731,7.761-.782,10.943,2.848,1.9,2.178,2.178,4.69,3.8,4.8,1.061.056,1.619-.893,3.015-2.233,3.015-2.848,7.649-5.081,11.614-4.355,1.452.279,3.182,1.005,3.182,1.787-.056,1.4-6.365,1.117-8.487,4.969a5.894,5.894,0,0,0-.67,3.238,21.315,21.315,0,0,1,9.548-.391c8.543,1.675,14.908,8.654,14.182,9.939-.223.335-1.173.447-4.132-.558a47.466,47.466,0,0,1,11.669,11.334c7.928,11,10.608,24.846,8.989,25.628-.447.168-1.117-.5-2.345-1.843-4.411-4.69-5.751-9.548-6.142-9.436-.558.168,3.964,12.116,3.908,25.46,0,2.122-.279,23.171-9.548,26.521-4.188,1.508-7.705-1.563-13.4-4.243-12.9-6.03-33.445-5.472-74.539-4.243-2.066.056-7.426.223-10.218-3.183A9.693,9.693,0,0,1,686.624,333.159Z" transform="translate(-171.216 -96.212)" fill="#e2b97f"/>
    <path id="Path_1166" data-name="Path 1166" d="M576.4,711.686c5.918,3.294,12.284,7.2,18.872,11.781,6.979,4.858,13.177,9.771,18.593,14.405a206.05,206.05,0,0,1,18.7-11.39c1.172-.558,3.629-1.787,3.8-3.8.223-2.178-2.345-3.964-3.127-4.523a199.487,199.487,0,0,0-26.3-29.034c-1.061-.949-2.066-1.843-3.127-2.792a34.126,34.126,0,0,1-3.127,6.923C593.764,705.321,581.648,710.011,576.4,711.686Zm158.96,10.72c-.391,4.02-1.563,18.425,4.858,21.44a6.889,6.889,0,0,0,4.523.335,135.143,135.143,0,0,0,43.942-16.248c2.68-1.731,6.7-4.355,11.39-7.928a39.9,39.9,0,0,1-18.314-32.161,184.064,184.064,0,0,1-17.979,16.248A189.642,189.642,0,0,1,735.36,722.406ZM589.354,507.891a108.6,108.6,0,0,0,3.127,24.232,111.1,111.1,0,0,0,11.39,28.7c8.878-.949,17.755-1.843,26.633-2.792a43.567,43.567,0,0,0-.67-10.385,46.282,46.282,0,0,0-9.659-20.435l-.67-11.055a34.175,34.175,0,0,0-6.589-4.858C603.256,506.049,593.485,507.165,589.354,507.891Zm169.848,0a28.666,28.666,0,0,1,17.644,1.061,28.356,28.356,0,0,1,4.523,2.4,68.233,68.233,0,0,1-2.066,16.583,67.278,67.278,0,0,1-11.055,23.171,62.011,62.011,0,0,1-6.253,7.259l-32.161-.67a51.313,51.313,0,0,1,5.193-10.385A53.267,53.267,0,0,1,754.064,530c.447-2.9,1.005-5.862,1.675-8.989C756.745,516.322,757.973,511.967,759.2,507.891ZM640,389.523a15.824,15.824,0,0,0-1.731,8.654c.391,3.741,2.568,9.157,5.918,9.715,1.563.279,2.736-.614,4.411.223a5.528,5.528,0,0,1,2.233,2.457c1.508,2.848,3.741,5.193,5.193,8.1,2.066,4.188,11.334,14.8,25.014,18.76,15.075,4.3,27.75-1.34,31.6-3.127,16.3-7.593,23-21.831,24.623-25.684a10.438,10.438,0,0,0,6.923,1.061c4.746-1.061,8.543-5.918,7.984-10.776-.5-4.188-4.3-8.1-6.923-7.649-2.457.447-2.345,4.355-5.193,5.528-1.563.67-3.294,0-10.441-4.188-5.025-2.959-7.538-4.411-8.822-5.36-8.152-6.142-11.5-12.842-12.339-12.339-1.117.614,5.36,11.781,3.8,12.842-1.4.949-9.268-6.644-14.908-15.634-1.4-2.233-2.4-4.132-3.127-5.528a100.166,100.166,0,0,1-9.38,7.761,67.339,67.339,0,0,1-14.573,8.543c-5.863,2.4-12.339,3.853-12.842,2.792-.447-1.061,5.7-3.127,9.715-9.715,3.015-4.858,3.685-10.329,2.792-10.776-1.061-.5-4.076,6.2-12.507,14.908a33.388,33.388,0,0,1-5.528,4.858A29.029,29.029,0,0,1,640,389.523Z" transform="translate(-122.8 -146.099)" fill="#e0af90"/>
    <path id="Path_1167" data-name="Path 1167" d="M754.8,474.9a68.043,68.043,0,0,0,5.248,15.8c3.35,6.923,5.7,11.837,10.553,13.009s9.324-2.122,10.218-2.792c5.974-4.411,8.319-13.121,6.477-22.278C776.464,477.413,765.632,476.128,754.8,474.9Z" transform="translate(-201.592 -194.57)" fill="#e0af90"/>
    <path id="Path_1168" data-name="Path 1168" d="M643.829,821.8A310.189,310.189,0,0,1,632.5,779.588a319.636,319.636,0,0,1-5.7-51.032c8.152-1.005,19.374-2.233,32.775-3.127,37.3-2.513,57.23-.223,108.374-.614,8.822-.056,20.379-.223,34-.614q-2.345,33.165-4.411,66.778-1.005,16.415-1.9,32.775c-22.334,2.01-40.368,2.792-52.931,3.127-16.918.5-17.42-.056-34,.614-18.481.726-24.958,1.675-35.9.614A120.931,120.931,0,0,1,643.829,821.8Z" transform="translate(-145.06 -304.675)" fill="#0381ff"/>
    <ellipse id="Ellipse_239" data-name="Ellipse 239" cx="16.136" cy="18.481" rx="16.136" ry="18.481" transform="translate(553.767 442.473)" fill="#e5d2cc"/>
    <path id="Path_1169" data-name="Path 1169" d="M603.3,1072.3a97.432,97.432,0,0,1,3.964-20.268c3.127-9.994,6.868-15.969,14.294-27.861,3.685-5.918,7.928-12.116,10.608-11.279,1.675.5,1.675,3.462,3.015,3.629,1.787.223,2.122-6.588,6.644-12.954a25.8,25.8,0,0,1,4.634-4.969c4.02,3.406,8.487,6.812,13.289,10.274,3.518,2.513,6.923,4.858,10.273,6.979-2.01,1.954-5.081,4.746-8.989,7.984a164.984,164.984,0,0,1-14.964,10.944c-8.878,6.142-16.639,13.289-32.216,27.526C609.442,1066.494,605.757,1069.956,603.3,1072.3Zm138.078-68.732a23.834,23.834,0,0,0-3.964,11.614c-.279,5.36,1.563,9.1,5.639,18.258,6.533,14.74,5.583,13.791,7.314,16.918,5.583,10.274,13.679,15.689,29.2,26.912,2.457,1.731,5.081,3.573,6.644,2.68s1.284-4.187-1.675-16.583c0,0-4.913-20.6-11.279-29.871a15.754,15.754,0,0,0-4.634-4.634,19.432,19.432,0,0,0-4.634-2.01,31.482,31.482,0,0,0-6.979-1.34c-.335-3.35-.726-6.2-1-8.319-.949-6.756-1.731-9.827-3.294-12.954-1.172-2.233-1.954-3.8-3.629-4.3C745.51,998.823,741.6,1003.29,741.378,1003.569Z" transform="translate(-134.681 -425.866)" fill="#0381ff"/>
    <path id="Path_1170" data-name="Path 1170" d="M794.314,439.172c.112.056,0,.447-.167,1.228-.112.391-.223.838-.391,1.4-.223.558-.447,1.173-.726,1.9s-.67,1.452-1.061,2.289-.949,1.675-1.508,2.624c-.279.447-.614.949-.949,1.4s-.67.949-1.061,1.452c-.782.949-1.563,2.01-2.513,2.959-.893,1.061-1.954,2.01-3.015,3.071-.558.5-1.117,1.005-1.731,1.508-.558.5-1.228.949-1.843,1.452a55.012,55.012,0,0,1-8.71,5.416c-.838.391-1.619.838-2.457,1.173a20.7,20.7,0,0,1-2.568,1.061,50.6,50.6,0,0,1-17.588,3.629,38.834,38.834,0,0,1-6.254-.5,35.236,35.236,0,0,1-5.918-1.452,45.13,45.13,0,0,1-10.329-4.858,46.769,46.769,0,0,1-13.624-13.4,50.282,50.282,0,0,1-5.863-11.39c-1.005-2.848-1.34-4.467-1.173-4.523s.838,1.452,2.178,4.132a60.791,60.791,0,0,0,6.477,10.664,49,49,0,0,0,5.7,6.421,47.023,47.023,0,0,0,7.705,5.974,43.475,43.475,0,0,0,9.771,4.467,36.172,36.172,0,0,0,5.528,1.284,33.485,33.485,0,0,0,5.807.447,42.847,42.847,0,0,0,11.39-1.619,52.5,52.5,0,0,0,5.248-1.731c.837-.279,1.675-.67,2.513-1.005s1.619-.726,2.4-1.061a55.027,55.027,0,0,0,8.431-4.969l1.843-1.34c.558-.447,1.172-.949,1.675-1.4,1.061-.949,2.122-1.843,3.015-2.792a43.873,43.873,0,0,0,7.482-9.883c.335-.67.67-1.228.949-1.731a8.985,8.985,0,0,1,.67-1.284Q794.146,439.172,794.314,439.172Z" transform="translate(-179.52 -177.212)" stroke="#000" stroke-miterlimit="10" stroke-width="1.5"/>
    <path id="Path_1171" data-name="Path 1171" d="M750.636,438.248c.223.279-.67,1.731-2.68,3.629a26.489,26.489,0,0,1-3.853,3.015,17.909,17.909,0,0,1-5.639,2.4,15.914,15.914,0,0,1-6.253.223,12.776,12.776,0,0,1-4.746-1.787,8.632,8.632,0,0,1-2.513-2.345c-.447-.67-.558-1.117-.391-1.228.335-.279,1.508.949,3.8,1.843A13.966,13.966,0,0,0,732.546,445a15.586,15.586,0,0,0,5.248-.391,29.6,29.6,0,0,0,8.934-4.3C749.017,438.918,750.413,437.969,750.636,438.248Zm-16.527-3.294c-.112.335-.838.5-1.9.112a5.149,5.149,0,0,1-2.9-3.238,5.318,5.318,0,0,1,.391-4.355c.614-.949,1.284-1.284,1.563-1.061.335.223.279.838.279,1.675a7.5,7.5,0,0,0,1.843,5.36C733.775,434.117,734.221,434.619,734.11,434.954ZM719.258,422.28c-.279.279-.893.168-1.619-.391a6.227,6.227,0,0,1-2.01-2.9,6.609,6.609,0,0,1-.279-3.518c.223-.893.614-1.4,1-1.34s.67.558.949,1.284.558,1.675.949,2.68.726,1.9,1.005,2.68C719.425,421.442,719.537,422.056,719.258,422.28Zm31.826.279c-.279-.223-.223-.782-.056-1.508a26.354,26.354,0,0,1,.837-2.513,22.131,22.131,0,0,1,1.005-2.457c.335-.67.67-1.061,1.061-1.061s.726.5.893,1.34a6.611,6.611,0,0,1-2.233,5.807C751.977,422.67,751.418,422.838,751.083,422.559Zm-29.7-14.573c-.168.335-1.005.223-2.233.167a16.593,16.593,0,0,0-4.523.335,14.5,14.5,0,0,0-2.345.838c-.335.167-.67.335-.949.5a4.656,4.656,0,0,0-.67.447,2.08,2.08,0,0,0-.67.838c-.112.279-.112.5-.279.558s-.5,0-.782-.447a1.615,1.615,0,0,1-.167-.949,2.346,2.346,0,0,1,.335-1.173,3.093,3.093,0,0,1,.838-1.117,6.029,6.029,0,0,1,1.117-.893,9.5,9.5,0,0,1,2.959-1.284,8.922,8.922,0,0,1,5.7.447C720.989,406.925,721.547,407.707,721.379,407.986Zm39.028,1.843c-.279.279-1.061-.167-2.122-.893a18.112,18.112,0,0,0-4.02-2.289,7.56,7.56,0,0,0-4.132-.167c-1.061.279-1.731.782-2.066.558-.168-.112-.168-.391-.056-.782a3.713,3.713,0,0,1,1.173-1.452,6.362,6.362,0,0,1,5.918-.726,8.968,8.968,0,0,1,2.792,1.619,9.81,9.81,0,0,1,1.675,1.843C760.407,408.712,760.687,409.605,760.407,409.829Zm-79.731,3.629c.391.112.167,1.452.447,3.35a11.853,11.853,0,0,0,.893,3.238,12.755,12.755,0,0,0,.893,1.731,11.674,11.674,0,0,0,1.284,1.619,8.084,8.084,0,0,0,6.421,2.513c1.843-.112,2.847-1.005,3.127-.726.056.056.056.167.056.335a1.715,1.715,0,0,1-.391.67,4.832,4.832,0,0,1-2.4,1.563,7.745,7.745,0,0,1-4.243.056,8.285,8.285,0,0,1-2.345-.949,10.008,10.008,0,0,1-2.122-1.675,11.268,11.268,0,0,1-1.619-2.122,13.113,13.113,0,0,1-1.005-2.233,9.941,9.941,0,0,1-.5-4.076,7.488,7.488,0,0,1,.726-2.624C680.23,413.681,680.509,413.4,680.676,413.458Zm115.13-.5c.167-.056.5.167.837.782a6.589,6.589,0,0,1,.838,2.736,10.7,10.7,0,0,1-.335,4.3,11.024,11.024,0,0,1-11.5,7.984,7.3,7.3,0,0,1-2.792-.782c-.614-.335-.838-.67-.782-.838.167-.335,1.452,0,3.518-.279a11.264,11.264,0,0,0,3.406-.949,10.2,10.2,0,0,0,3.462-2.4,9.617,9.617,0,0,0,2.233-3.518,12.652,12.652,0,0,0,.782-3.462C795.751,414.463,795.416,413.123,795.806,412.955Zm-105.192,4.523c-.391.112-.838-.335-1.284-1.005a9.469,9.469,0,0,0-1.619-2.01,3.989,3.989,0,0,0-.837-.447,2.611,2.611,0,0,0-.893-.112,1.532,1.532,0,0,0-.726.112,1.206,1.206,0,0,1-.614.056.524.524,0,0,1-.279-.614,1.715,1.715,0,0,1,.726-1.228,3.17,3.17,0,0,1,1.954-.67,3.96,3.96,0,0,1,2.457.838,4.586,4.586,0,0,1,1.34,1.9,4.949,4.949,0,0,1,.335,1.675C691.173,416.864,690.95,417.422,690.615,417.478Z" transform="translate(-168.171 -163.111)" stroke="#000" stroke-miterlimit="10" stroke-width="1.5"/>
    <path id="Path_1172" data-name="Path 1172" d="M691.745,428.781c-.335.056-.782-.167-1.061-.782a3.249,3.249,0,0,1,.223-2.457,3.148,3.148,0,0,1,1.842-1.619c.67-.168,1.117.056,1.228.391a1.467,1.467,0,0,1-.112,1.173c-.167.391-.335.837-.558,1.284a8.886,8.886,0,0,1-.726,1.228A1.174,1.174,0,0,1,691.745,428.781Zm98.882.335c-.335-.056-.67-.67-.67-1.731a6.639,6.639,0,0,1,1.4-3.741,6.78,6.78,0,0,1,3.183-2.4c1-.335,1.675-.223,1.842.168.168.335-.223.837-.782,1.508-.558.614-1.284,1.452-2.01,2.4a29.769,29.769,0,0,0-1.731,2.624C791.353,428.613,790.962,429.116,790.627,429.116Z" transform="translate(-173.21 -170.784)" stroke="#000" stroke-miterlimit="10" stroke-width="1.5"/>
    <path id="Path_1173" data-name="Path 1173" d="M787.4,375.245a2.575,2.575,0,0,1-.949-.5,2.235,2.235,0,0,1-.67-.558,8.258,8.258,0,0,1-.447-.726,4.24,4.24,0,0,1-.335-1.005c0-.391.279-.726.893-.837a2.21,2.21,0,0,1,1.954.837,2.328,2.328,0,0,1,.5,2.066A.872.872,0,0,1,787.4,375.245ZM677.02,353.637c-.167.056-.5-.782-.949-2.233-.112-.391-.223-.782-.335-1.228s-.167-.949-.279-1.508c-.168-1.061-.447-2.345-.558-3.685-.056-.67-.112-1.4-.223-2.178-.056-.782-.056-1.563-.112-2.345a42.022,42.022,0,0,1,.112-5.248,73.8,73.8,0,0,1,1.843-11.837,64.989,64.989,0,0,1,4.076-11.279c.838-1.619,1.563-3.238,2.457-4.634.447-.726.782-1.4,1.228-2.01s.838-1.228,1.228-1.787c.782-1.172,1.563-2.122,2.233-2.959a10.955,10.955,0,0,1,1.005-1.173c.335-.335.614-.67.893-.949,1.117-1.117,1.731-1.675,1.9-1.508.168.112-.223.893-1.061,2.178-.223.335-.447.67-.67,1.061s-.5.838-.782,1.284c-.558.949-1.228,1.954-1.843,3.127-.335.558-.67,1.173-1.061,1.843-.335.614-.67,1.34-1.061,2.066-.726,1.4-1.4,2.959-2.122,4.578A91.7,91.7,0,0,0,679.2,324.1a83.843,83.843,0,0,0-2.01,11.334c-.112,1.787-.335,3.462-.335,5.025,0,.782-.056,1.563-.056,2.289v2.122c0,1.34.112,2.568.112,3.629,0,.558.056,1.061.056,1.508.056.447.056.893.112,1.284C677.188,352.688,677.188,353.581,677.02,353.637Z" transform="translate(-166.134 -116.02)" stroke="#000" stroke-miterlimit="10" stroke-width="1.5"/>
    <path id="Path_1174" data-name="Path 1174" d="M686.787,373.011c.223.335-.391,1.117-1.284,2.289-.447.614-1.005,1.284-1.508,2.122a20.011,20.011,0,0,0-1.619,2.68,30.4,30.4,0,0,0-1.284,2.848c-.335.893-.67,1.731-.893,2.457-.447,1.4-.782,2.345-1.173,2.345-.335,0-.726-1.005-.726-2.68a11.586,11.586,0,0,1,.391-2.9,14.69,14.69,0,0,1,1.284-3.35,17.3,17.3,0,0,1,2.066-2.959,11.231,11.231,0,0,1,2.178-1.954C685.558,372.956,686.619,372.732,686.787,373.011Zm5.3,23.9c-.335.223-1.061-.335-2.01-1.173a9.981,9.981,0,0,0-3.741-2.345,3.7,3.7,0,0,0-3.518.614c-.782.614-1.061,1.4-1.452,1.4-.168,0-.391-.223-.5-.67a2.9,2.9,0,0,1,.391-1.9,4.362,4.362,0,0,1,2.233-1.954,5.746,5.746,0,0,1,3.629-.112,6.844,6.844,0,0,1,2.9,1.731,9.126,9.126,0,0,1,1.563,2.066C692.259,395.792,692.426,396.685,692.091,396.909Z" transform="translate(-167.805 -149.521)" stroke="#000" stroke-miterlimit="10" stroke-width="1.5"/>
    <path id="Path_1175" data-name="Path 1175" d="M685.013,383.411c-.279.223-1.061-.112-1.9-1.172a8.309,8.309,0,0,1-1.117-2.01,8.53,8.53,0,0,1-.614-2.736,9.522,9.522,0,0,1,.223-2.848,9.845,9.845,0,0,1,.837-2.178c.67-1.173,1.4-1.619,1.675-1.452.335.167.279.949.167,2.066-.056.558-.112,1.172-.167,1.9,0,.726,0,1.452.056,2.289a13.383,13.383,0,0,0,.335,2.233c.167.67.279,1.284.447,1.842C685.125,382.406,685.293,383.188,685.013,383.411Zm33.277-25.628c.279.223-.558,2.178-2.4,5.081-.893,1.452-2.066,3.127-3.462,4.969-1.4,1.787-3.015,3.741-4.8,5.639s-3.629,3.629-5.3,5.137c-1.731,1.508-3.35,2.792-4.746,3.8-2.792,2.01-4.746,2.959-4.913,2.68-.447-.614,5.974-5.974,13.009-13.456S717.62,357.337,718.291,357.784Z" transform="translate(-169.158 -142.835)" stroke="#000" stroke-miterlimit="10" stroke-width="1.5"/>
    <path id="Path_1176" data-name="Path 1176" d="M698.946,360.818c.223.223-2.066,3.462-6.979,7.593a58.526,58.526,0,0,1-9.324,6.365c-.949.5-1.9,1.061-2.9,1.508-1.005.5-2.01.949-3.071,1.452-1.061.447-2.178.893-3.294,1.284-.558.223-1.117.391-1.731.614a4.186,4.186,0,0,1-.893.279c-.391.112-.782.223-1.117.335l-.837.279-.838.223c-.558.167-1.061.279-1.563.391-1.061.223-2.066.447-3.071.726-1.061.223-2.066.447-3.071.67l-.782.167-.391.056h-.223c-.279,0-.5.056-.782.056.893-.726,1.787-1.4,2.68-2.122.447-.391.949-.726,1.4-1.117l.335-.279.279-.223.558-.5c.391-.335.782-.67,1.117-.949l.558-.5.279-.223c.112-.056.112-.112.223-.223.5-.558,1.005-1.061,1.452-1.563a3.455,3.455,0,0,0,.5-.614c.112-.167.279-.335.391-.5.279-.335.5-.67.782-1.005.5-.67.949-1.34,1.4-2.01a51.438,51.438,0,0,0,3.908-7.482c1.9-4.411,2.792-7.2,3.127-7.091.279.056-.056,3.015-1.563,7.705a40.168,40.168,0,0,1-3.573,8.04c-.447.726-.893,1.452-1.4,2.233a13.541,13.541,0,0,1-.782,1.117c-.112.168-.279.391-.391.558a4.445,4.445,0,0,0-.335.447c-.112.167-.279.335-.391.5-.112.112-.167.223-.279.279a3.613,3.613,0,0,1-.5.447l-.167.112-.056.056h.056l.112-.056c.167-.056.335-.056.5-.112.279-.112.614-.168.893-.279l.558-.168a4.9,4.9,0,0,0,.837-.279c.558-.167,1.117-.391,1.619-.558,1.061-.391,2.122-.782,3.182-1.228,1.005-.447,2.066-.838,3.015-1.34,1-.447,1.9-.893,2.847-1.4a78.527,78.527,0,0,0,9.324-5.7C695.875,363.275,698.667,360.539,698.946,360.818Zm44.835,31.323c0,.112-.335.112-.949.056-.279-.056-.67-.056-1.117-.112-.223-.056-.447-.056-.726-.112s-.5-.112-.782-.167c-.558-.112-1.173-.279-1.9-.447-.67-.168-1.4-.447-2.178-.726-.782-.223-1.619-.614-2.457-.949-.893-.335-1.787-.782-2.736-1.228s-1.9-1.005-2.9-1.563c-.5-.279-1.005-.614-1.508-.949l-1.508-1.005c-.5-.391-1.005-.726-1.508-1.117-.279-.168-.5-.391-.782-.558-.223-.223-.5-.391-.726-.614-.5-.447-1.005-.838-1.508-1.284s-1.005-.949-1.508-1.4a18.5,18.5,0,0,1-1.452-1.508,20.02,20.02,0,0,1-1.452-1.619c-.447-.558-.949-1.117-1.4-1.731l-1.34-1.843a52.975,52.975,0,0,1-4.634-8.208l2.624-.726.112.614a46.229,46.229,0,0,0,5.751,16.639l2.513,4.3-4.243-2.568a30.231,30.231,0,0,1-4.858-3.741,35.225,35.225,0,0,1-3.685-4.076,49.972,49.972,0,0,1-4.8-7.538c-2.289-4.411-3.183-7.147-2.959-7.258.279-.112,1.675,2.4,4.243,6.477a66.918,66.918,0,0,0,5.081,6.923,32.991,32.991,0,0,0,8.208,6.979l-1.731,1.731a46.5,46.5,0,0,1-6.309-17.532l-.112-.67-1.34-9.715,3.964,8.989a49.482,49.482,0,0,0,4.3,7.761c.391.558.838,1.173,1.228,1.731.447.558.893,1.117,1.284,1.619a17.95,17.95,0,0,0,1.34,1.563c.447.5.893,1.005,1.34,1.452l1.4,1.4c.447.447.949.838,1.4,1.284.223.223.447.391.67.614a6.315,6.315,0,0,0,.726.558c.5.391.949.782,1.4,1.117s.949.67,1.4,1a12.257,12.257,0,0,0,1.4.949c.949.558,1.787,1.173,2.68,1.675a22.234,22.234,0,0,0,2.513,1.34c.837.391,1.563.837,2.289,1.117.726.335,1.4.614,2.066.893.67.223,1.228.447,1.787.67a6.255,6.255,0,0,0,.726.279c.223.056.447.168.67.223.391.168.782.279,1.061.391C743.5,391.918,743.781,392.03,743.781,392.141ZM603.3,445.24c-.167-.112.112-.949.726-2.4.168-.391.335-.782.558-1.228s.447-.893.726-1.4c.558-1.005,1.117-2.122,1.954-3.35.391-.614.782-1.228,1.228-1.9s.949-1.284,1.4-1.954a52.359,52.359,0,0,1,3.35-4.188,76.728,76.728,0,0,1,8.878-8.543,74.423,74.423,0,0,1,10.218-6.868c1.675-.893,3.238-1.731,4.8-2.4.782-.335,1.508-.67,2.233-.949s1.452-.558,2.122-.782c1.34-.5,2.568-.838,3.685-1.173.558-.167,1.061-.279,1.507-.391.5-.112.893-.168,1.284-.279,1.563-.279,2.457-.391,2.513-.167.056.167-.726.614-2.178,1.228-.391.168-.782.335-1.228.5s-.893.391-1.4.614c-1,.447-2.178.893-3.462,1.508-.614.279-1.284.614-1.954.949s-1.4.726-2.122,1.061c-1.452.726-2.959,1.619-4.523,2.513a86.691,86.691,0,0,0-9.771,6.812,88.559,88.559,0,0,0-8.71,8.1c-1.228,1.34-2.4,2.624-3.462,3.908-.5.614-1.061,1.228-1.508,1.843s-.893,1.173-1.34,1.731c-.893,1.061-1.563,2.122-2.233,3.015-.335.447-.614.893-.893,1.228-.279.391-.5.782-.726,1.061C604.028,444.626,603.47,445.3,603.3,445.24Zm2.959,110.44c-.112.112-1.4-.558-3.35-2.457a34.531,34.531,0,0,1-6.365-9.324,67.194,67.194,0,0,1-3.015-7.147c-.447-1.284-.949-2.68-1.4-4.076s-.893-2.9-1.34-4.355a109.622,109.622,0,0,1-3.629-20.045,96.724,96.724,0,0,1,3.573-36.683,74.878,74.878,0,0,1,4.132-10.385c1.228-2.345,2.01-3.573,2.178-3.518.447.223-2.066,5.472-4.467,14.405a107.963,107.963,0,0,0-2.736,16.024,112.4,112.4,0,0,0,0,19.877,123.332,123.332,0,0,0,3.35,19.6c.391,1.452.782,2.9,1.172,4.3s.838,2.736,1.284,4.02c.838,2.624,1.731,4.969,2.624,7.091a41.436,41.436,0,0,0,5.416,9.436C605.312,554.507,606.373,555.512,606.262,555.68Zm27.359-69.346c-.726.279-2.568-3.183-5.639-6.812-3.015-3.629-6.086-6.03-5.7-6.756.167-.335,1.228-.112,2.736.726a19.155,19.155,0,0,1,8.319,9.938C633.955,485.105,633.955,486.222,633.62,486.334Z" transform="translate(-127.369 -141.571)" stroke="#000" stroke-miterlimit="10" stroke-width="1.5"/>
    <path id="Path_1177" data-name="Path 1177" d="M648,558.123c-.335.056-1.005-1.9-1.173-5.137a40.81,40.81,0,0,1,.168-5.7c.223-2.122.558-4.411,1.005-6.812,1.675-9.548,3.629-17.2,4.355-17.029.726.112,0,7.984-1.675,17.532-.447,2.4-.838,4.634-1.172,6.644s-.614,3.853-.782,5.416C648.393,556.113,648.393,558.067,648,558.123Zm11.167,35.4c-.391.056-1.005-2.178-2.122-5.751-.558-1.787-1.228-3.853-2.122-6.142-.447-1.117-.949-2.289-1.452-3.518s-1.061-2.513-1.675-3.741a39.53,39.53,0,0,0-4.02-6.644,48.613,48.613,0,0,0-4.188-4.8c-2.624-2.568-4.467-3.964-4.3-4.3.167-.279,2.457.5,5.528,2.848a31.437,31.437,0,0,1,4.913,4.69,32.422,32.422,0,0,1,4.523,7.035c.67,1.34,1.173,2.624,1.675,3.908.5,1.228.949,2.513,1.34,3.741a41.039,41.039,0,0,1,1.619,6.533C659.615,591.121,659.5,593.466,659.169,593.522Zm14.014.391c-.782.168-4.3-15.913-9.883-35.343-5.472-19.486-10.888-34.952-10.162-35.231.335-.112,2.122,3.573,4.578,9.771a258.873,258.873,0,0,1,8.208,24.679c2.792,9.771,4.8,18.76,5.974,25.349S673.518,593.8,673.183,593.913Zm135.677-27.08c-.112-.056.056-.5.335-1.4a13.331,13.331,0,0,0,.558-1.619c.223-.614.5-1.4.782-2.233A86.821,86.821,0,0,0,814,547.179a140.168,140.168,0,0,0,1.563-22,142.412,142.412,0,0,0-2.066-26.856c-1.787-9.324-5.081-17.923-9.715-24.679a44.783,44.783,0,0,0-7.593-8.71,55.123,55.123,0,0,0-8.152-6.086,81.734,81.734,0,0,0-7.37-4.188c-2.233-1.173-4.132-2.122-5.751-2.9-3.183-1.563-4.913-2.513-4.8-2.68.056-.168,1.954.447,5.248,1.731,1.675.67,3.685,1.452,5.974,2.513s4.913,2.345,7.649,3.908a59.17,59.17,0,0,1,8.6,6.03,48.943,48.943,0,0,1,8.152,8.989c4.969,7.035,8.487,15.969,10.329,25.572a135.158,135.158,0,0,1,1.9,27.415,120.833,120.833,0,0,1-2.178,22.278,68.545,68.545,0,0,1-4.411,14.461c-.391.782-.726,1.508-1.005,2.122a16.492,16.492,0,0,1-.837,1.508C809.251,566.5,808.972,566.889,808.86,566.833Zm-20.882-39.2c-.391.112-.893-.782-1.787-2.066a11.312,11.312,0,0,0-.726-1.005c-.223-.391-.558-.726-.837-1.117a21.625,21.625,0,0,0-2.233-2.345,19.551,19.551,0,0,0-2.568-1.954,10.011,10.011,0,0,0-1.228-.726,11.058,11.058,0,0,0-1.117-.614c-1.34-.726-2.289-1.172-2.233-1.563.056-.335,1.117-.614,2.848-.279a4.8,4.8,0,0,1,1.4.391c.5.167,1.005.391,1.508.614a13.467,13.467,0,0,1,3.127,2.122,14.752,14.752,0,0,1,2.457,2.9c.279.5.558.949.782,1.452a6.548,6.548,0,0,1,.5,1.34C788.425,526.409,788.313,527.526,787.978,527.637Z" transform="translate(-150.572 -183.154)" stroke="#000" stroke-miterlimit="10" stroke-width="1.5"/>
    <path id="Path_1178" data-name="Path 1178" d="M892.1,624.028c-.782-.279,2.4-10.274,2.848-23.06.558-12.73-1.843-23-1.061-23.171.335-.112,1.4,2.345,2.345,6.588q.167.754.335,1.675c.112.558.223,1.172.335,1.787.223,1.228.335,2.568.5,4.02a70.908,70.908,0,0,1,.279,9.269,74.287,74.287,0,0,1-.949,9.213c-.279,1.4-.5,2.736-.837,3.964-.167.614-.279,1.228-.447,1.787s-.335,1.117-.5,1.619C893.666,621.794,892.438,624.14,892.1,624.028Z" transform="translate(-262.178 -240.014)" stroke="#000" stroke-miterlimit="10" stroke-width="1.5"/>
    <path id="Path_1179" data-name="Path 1179" d="M739.867,683.745c-.335-.167.558-2.513,2.513-5.974a72.236,72.236,0,0,1,9.045-12.674,56.154,56.154,0,0,1,6.253-5.974c1.061-.838,2.066-1.619,3.015-2.233.5-.335.949-.67,1.452-.949.447-.279.949-.558,1.34-.782,3.518-2.01,5.918-2.68,6.086-2.345.168.391-1.9,1.675-5.025,3.964-.391.279-.782.614-1.228.893-.391.335-.837.67-1.284,1.061-.893.67-1.787,1.508-2.736,2.345-1.9,1.731-3.853,3.685-5.863,5.918-3.964,4.411-7.147,8.766-9.492,11.893C741.654,681.958,740.2,683.912,739.867,683.745Zm42.1-3.518c-.279-.279.893-1.9,2.624-4.578.223-.335.447-.67.67-1.061l.67-1.173c.5-.782.949-1.675,1.452-2.624.949-1.843,1.954-3.964,2.9-6.2,1.843-4.467,3.183-8.71,4.188-11.781s1.731-4.969,2.066-4.913.335,2.122-.223,5.36A60.144,60.144,0,0,1,792.8,665.6a42.373,42.373,0,0,1-3.238,6.365c-.614.949-1.117,1.843-1.731,2.624-.279.391-.558.782-.838,1.117l-.838,1.005C783.921,679.278,782.19,680.45,781.966,680.227ZM622.448,790.165c-.335.112-2.01-5.193-4.188-13.791s-4.913-20.6-7.426-33.891c-2.513-13.344-4.355-25.46-5.416-34.282-1.117-8.822-1.452-14.294-1.117-14.349.391-.056,1.452,5.36,3.015,14.07s3.685,20.77,6.2,34.059,4.913,25.293,6.588,34C621.834,784.693,622.839,790.109,622.448,790.165Z" transform="translate(-135.068 -270.976)" stroke="#000" stroke-miterlimit="10" stroke-width="1.5"/>
    <path id="Path_1180" data-name="Path 1180" d="M730.685,709.059c0,.167-2.513.5-7.147,1-2.289.279-5.137.391-8.431.614s-7.035.335-11.223.447c-8.319.223-18.2.223-29.2,0s-23.06-.614-35.678-.949c-12.674-.335-24.679-.447-35.622-.223s-20.77.782-29.034,1.508-14.908,1.619-19.486,2.178c-4.578.614-7.147.949-7.2.726-.056-.167,2.457-.837,7.035-1.787,4.578-.893,11.223-2.066,19.486-3.071s18.146-1.731,29.145-2.122,23.115-.335,35.79,0,24.734.782,35.678,1.172c10.943.335,20.826.5,29.09.558,4.132,0,7.873,0,11.167-.056s6.142-.056,8.431-.167C728.117,708.836,730.685,708.892,730.685,709.059Zm-5.7,106.867c-.391-.056,0-5.807.726-15.187.726-9.324,1.843-22.222,2.848-36.46s1.787-27.135,2.4-36.46,1.061-15.131,1.452-15.131.614,5.807.5,15.187-.558,22.334-1.619,36.627-2.4,27.135-3.685,36.46C726.442,810.287,725.381,815.982,724.99,815.926Zm-8.263,1.787c0,.168-2.066.447-5.807.782s-9.213.726-15.969,1.117c-13.456.838-32.1,1.787-52.652,2.624-10.273.391-20.1.949-29.09.726a226.949,226.949,0,0,1-23.674-2.178c-6.7-.838-12.116-1.563-15.857-2.122s-5.807-.949-5.751-1.173c0-.167,2.122-.167,5.863.112s9.213.67,15.913,1.284c6.7.558,14.684,1.508,23.506,1.563s18.649-.558,28.922-.949c20.547-.893,39.2-1.507,52.708-1.843,6.756-.167,12.228-.223,15.969-.223S716.727,817.545,716.727,817.713Zm-82.914-47.124c.112-.056.335.279.782.838a10.341,10.341,0,0,0,2.233,2.066,11.255,11.255,0,0,0,4.355,1.9,11.651,11.651,0,0,0,6.142-.279,14.1,14.1,0,0,0,6.142-4.188,16.084,16.084,0,0,0,2.345-3.518,19.989,19.989,0,0,0,1.452-4.243,25.828,25.828,0,0,0,0-9.715,24.723,24.723,0,0,0-1.4-4.913,14.555,14.555,0,0,0-2.68-4.355,9.765,9.765,0,0,0-4.02-2.736,10.542,10.542,0,0,0-4.746-.447,14.2,14.2,0,0,0-8.208,4.188,20.92,20.92,0,0,0-4.69,7.37,20.592,20.592,0,0,0-1.284,7.538,15.784,15.784,0,0,0,1.4,6.142,16.464,16.464,0,0,0,2.512,4.132c1.731,2.066,3.071,2.848,2.9,3.071-.056.056-.447-.056-1.061-.391a11.488,11.488,0,0,1-2.624-1.954,16.337,16.337,0,0,1-3.127-4.188,17.538,17.538,0,0,1-1.954-6.7,21.362,21.362,0,0,1,1.061-8.375,26.872,26.872,0,0,1,1.954-4.3,22.9,22.9,0,0,1,3.015-4.02,17.641,17.641,0,0,1,4.243-3.294,14.763,14.763,0,0,1,5.416-1.787,13.66,13.66,0,0,1,5.974.558,12.527,12.527,0,0,1,5.193,3.462,17.63,17.63,0,0,1,3.127,5.137,24.638,24.638,0,0,1,1.508,5.528,26.59,26.59,0,0,1-.223,10.72,19.367,19.367,0,0,1-1.787,4.746,18.3,18.3,0,0,1-2.792,3.908,15.868,15.868,0,0,1-7.258,4.523,12.646,12.646,0,0,1-7.091-.112,11.726,11.726,0,0,1-4.634-2.568,8.574,8.574,0,0,1-2.01-2.624C633.813,770.979,633.7,770.589,633.813,770.589Zm-86.6-24.4c.056.167-1.228,1.005-3.629,2.289-.614.335-1.284.67-2.01,1.061s-1.508.838-2.345,1.34c-1.675.949-3.629,2.01-5.7,3.294-1.061.614-2.122,1.284-3.294,1.954-1.117.67-2.289,1.452-3.518,2.233-2.457,1.508-4.913,3.294-7.593,5.081A204.314,204.314,0,0,0,502.714,776.4c-5.583,4.913-10.553,9.883-14.964,14.573-2.122,2.4-4.243,4.634-6.03,6.868-.893,1.117-1.843,2.122-2.68,3.183s-1.619,2.066-2.345,3.015c-1.563,1.9-2.848,3.685-4.02,5.248-.558.782-1.117,1.508-1.619,2.178s-.949,1.284-1.34,1.843c-1.619,2.233-2.568,3.406-2.736,3.294s.5-1.452,1.843-3.853c.335-.614.726-1.284,1.117-2.01.447-.726.949-1.452,1.452-2.289,1.061-1.619,2.233-3.518,3.685-5.528.726-1.005,1.452-2.066,2.233-3.127s1.675-2.178,2.568-3.294c1.731-2.289,3.8-4.634,5.918-7.091a181.047,181.047,0,0,1,15.019-14.964,177.186,177.186,0,0,1,16.806-12.953c2.736-1.787,5.3-3.518,7.817-4.969,1.228-.726,2.457-1.452,3.629-2.122,1.173-.614,2.345-1.228,3.406-1.843,2.178-1.172,4.188-2.122,5.974-2.959.893-.391,1.731-.782,2.457-1.117.782-.335,1.508-.614,2.122-.837C545.706,746.524,547.158,746.022,547.214,746.189ZM560.5,890.241c-.223.335-5.918-2.959-15.019-8.487s-21.5-13.344-35.176-22.054c-6.812-4.355-13.289-8.6-19.207-12.451-2.959-1.954-5.7-3.8-8.319-5.472-2.568-1.731-5.081-3.294-7.2-4.969a27.019,27.019,0,0,1-5.193-5.248,15.9,15.9,0,0,1-2.457-5.025,9.669,9.669,0,0,1-.391-3.518,2.474,2.474,0,0,1,.279-1.228c.112,0,.168.447.279,1.173a12.811,12.811,0,0,0,.893,3.183,16.273,16.273,0,0,0,2.68,4.467,26.491,26.491,0,0,0,5.137,4.634c2.122,1.508,4.634,2.959,7.258,4.634s5.472,3.406,8.487,5.3c5.974,3.741,12.451,7.873,19.319,12.228,13.624,8.766,25.907,16.806,34.729,22.725C555.366,886.054,560.726,889.906,560.5,890.241Zm51.033-2.233c-.112.168-1.675-.614-4.523-2.122-.335-.168-.726-.391-1.117-.614s-.782-.5-1.173-.726q-1.256-.754-2.68-1.675c-.5-.335-1-.614-1.507-.949s-1.005-.726-1.563-1.117c-1.061-.726-2.178-1.563-3.35-2.4a175.643,175.643,0,0,1-15.243-13.177c-5.472-5.248-11.167-11.334-16.974-17.811s-11.279-12.73-16.359-18.258c-1.284-1.4-2.512-2.736-3.741-4.02s-2.4-2.568-3.573-3.741a76.137,76.137,0,0,0-6.7-6.309,38.778,38.778,0,0,0-6.253-4.132,25.142,25.142,0,0,0-5.3-1.954c-3.071-.614-4.8-.391-4.858-.614-.056-.112,1.731-.726,5.025-.447a21.1,21.1,0,0,1,5.751,1.619,34.308,34.308,0,0,1,6.812,4.02,76.279,76.279,0,0,1,7.147,6.2l3.685,3.685c1.284,1.284,2.513,2.624,3.853,3.964,5.193,5.472,10.72,11.669,16.527,18.146s11.39,12.563,16.694,17.867,10.329,9.827,14.684,13.456C605.672,884.044,611.814,887.617,611.535,888.008Zm-74.371,57.23c-.167,0-.335-.949-.335-2.68a33.223,33.223,0,0,1,.893-7.147,71.231,71.231,0,0,1,3.183-10.162,100.379,100.379,0,0,1,5.528-11.837,91.957,91.957,0,0,1,13.958-19.1c4.188-4.355,7.259-6.588,7.482-6.309.279.279-2.289,3.015-6.03,7.593a131.972,131.972,0,0,0-13.009,19.151c-2.177,3.964-4.02,7.817-5.583,11.446-1.508,3.629-2.792,6.923-3.629,9.715C537.778,941.553,537.554,945.238,537.164,945.238Zm69.625-52.763c.223.335-4.02,2.9-10.553,7.314a229.906,229.906,0,0,0-24.344,18.872c-4.467,4.02-8.6,7.984-12.228,11.781-.893.949-1.787,1.843-2.624,2.792-.837.893-1.675,1.787-2.457,2.624-1.563,1.731-3.127,3.294-4.634,4.69a30.443,30.443,0,0,1-4.355,3.35,17.418,17.418,0,0,1-3.8,1.787c-2.177.67-3.518.614-3.518.447-.056-.223,1.173-.5,3.127-1.452a19.318,19.318,0,0,0,3.294-2.066,29.835,29.835,0,0,0,3.853-3.462c1.34-1.4,2.736-3.015,4.243-4.8.726-.893,1.563-1.787,2.345-2.736.838-.949,1.675-1.9,2.568-2.9a156.941,156.941,0,0,1,12.228-12.06,164.127,164.127,0,0,1,25.125-18.481C602.1,894.15,606.621,892.2,606.789,892.475Zm152.092-73.366c.056.391-1.619.838-4.355,1.173a55.721,55.721,0,0,1-21.329-1.954c-2.624-.838-4.187-1.619-4.076-1.954.223-.782,6.756.558,14.852,1.284C752.181,818.439,758.826,818.327,758.881,819.109Zm80.848,14.014c-.5.223-3.406-7.147-10.5-17.588-.893-1.284-1.843-2.624-2.848-4.076-1.061-1.34-2.122-2.792-3.238-4.243-2.289-2.9-4.858-5.918-7.649-8.989a188.1,188.1,0,0,0-19.765-18.537c-7.482-6.086-14.964-11.39-21.943-16.024-6.979-4.578-13.4-8.487-18.984-11.39-11.167-5.862-18.928-7.482-18.816-7.928.056-.167,2.01.056,5.472.893a80.278,80.278,0,0,1,14.182,5.248,185.6,185.6,0,0,1,19.542,11,228.315,228.315,0,0,1,22.278,16.024A171.269,171.269,0,0,1,817.34,796.5c2.848,3.127,5.3,6.309,7.593,9.324,1.117,1.507,2.178,3.015,3.182,4.411.949,1.452,1.843,2.9,2.736,4.243s1.619,2.68,2.345,3.908l1.005,1.843c.335.614.67,1.172.949,1.731.558,1.117,1.061,2.178,1.563,3.183.447,1.005.949,1.843,1.228,2.68C839.227,831.169,839.9,833.011,839.729,833.123Z" transform="translate(-74.463 -297.128)" stroke="#000" stroke-miterlimit="10" stroke-width="1.5"/>
    <path id="Path_1181" data-name="Path 1181" d="M855.764,616.075c0,.112-.447.279-1.4.558-.447.112-1.005.279-1.675.447a7.437,7.437,0,0,0-1.061.279c-.391.112-.782.223-1.228.335-.838.223-1.843.5-2.847.838-1.061.335-2.178.726-3.35,1.117-.279.112-.614.223-.949.335a6.812,6.812,0,0,0-.949.391c-.614.223-1.284.5-1.954.782-1.34.5-2.736,1.173-4.188,1.787-.391.167-.726.335-1.117.5s-.726.391-1.117.558c-.726.391-1.508.726-2.289,1.117s-1.563.837-2.345,1.228c-.782.447-1.619.838-2.457,1.34-1.619.949-3.35,1.9-5.025,3.015-.838.558-1.731,1.061-2.568,1.619s-1.731,1.172-2.624,1.731a262.136,262.136,0,0,0-21.943,16.918c-7.538,6.365-14.684,12.507-21.44,17.811-3.35,2.68-6.644,5.081-9.771,7.314-1.563,1.117-3.071,2.122-4.578,3.127-.726.5-1.508.949-2.178,1.4-.335.223-.726.447-1.061.67a10.4,10.4,0,0,1-1.061.614c-2.792,1.675-5.36,3.071-7.705,4.243-1.173.558-2.233,1.117-3.238,1.563s-1.954.838-2.792,1.173a12.261,12.261,0,0,0-1.173.5c-.391.112-.726.279-1.061.391-.67.223-1.228.447-1.675.558a4.32,4.32,0,0,1-1.452.335c-.167-.447,7.314-3.294,18.09-10.385l1.005-.67a11.342,11.342,0,0,0,1.005-.726c.67-.5,1.4-.949,2.122-1.452,1.452-1.005,2.9-2.066,4.467-3.183,3.015-2.289,6.253-4.746,9.548-7.426,6.589-5.36,13.679-11.558,21.273-17.923a247.563,247.563,0,0,1,22.278-16.918c.893-.558,1.787-1.173,2.68-1.731s1.787-1.061,2.68-1.619c1.731-1.061,3.518-2.01,5.193-2.9.838-.447,1.675-.838,2.513-1.284.838-.391,1.619-.838,2.457-1.228s1.619-.726,2.4-1.061l1.173-.5a10.059,10.059,0,0,1,1.172-.447c1.508-.558,2.959-1.228,4.355-1.619q1.089-.335,2.01-.67c.335-.112.67-.223.949-.335.335-.112.67-.167.949-.279,1.228-.335,2.4-.67,3.518-.949,1.061-.223,2.066-.447,2.959-.614a12.452,12.452,0,0,1,1.284-.223c.391-.056.782-.112,1.117-.168a11.2,11.2,0,0,1,1.787-.167C855.262,615.964,855.764,615.964,855.764,616.075ZM782.677,768c-.056.168-1.284-.223-3.406-1.117-.558-.223-1.117-.5-1.787-.782-.614-.279-1.284-.67-2.01-1.061a52.277,52.277,0,0,1-4.858-2.792c-.893-.558-1.787-1.173-2.736-1.787s-1.843-1.34-2.848-2.066c-.5-.391-1.005-.726-1.508-1.117a9.495,9.495,0,0,0-.782-.558,7.075,7.075,0,0,0-.726-.614c-1.005-.838-2.01-1.731-3.071-2.624a93.619,93.619,0,0,1-12-13.289,100.519,100.519,0,0,1-9.157-15.41c-.558-1.284-1.061-2.513-1.619-3.685-.112-.279-.279-.614-.391-.893s-.223-.614-.335-.893c-.223-.614-.447-1.172-.614-1.787-.391-1.173-.838-2.233-1.172-3.35-.279-1.117-.614-2.122-.893-3.127a55.978,55.978,0,0,1-1.228-5.472,21.07,21.07,0,0,1-.391-2.233c-.056-.726-.167-1.34-.223-1.9-.223-2.289-.279-3.573-.056-3.629s.558,1.228,1.117,3.406c.112.558.279,1.172.447,1.843s.391,1.4.614,2.178c.447,1.563.893,3.35,1.619,5.248q.5,1.424,1,3.015c.391,1.061.838,2.122,1.284,3.238l.67,1.675.335.838c.112.279.279.558.391.837.558,1.173,1.117,2.345,1.675,3.573a104.842,104.842,0,0,0,9.045,14.852,108.026,108.026,0,0,0,11.558,13.065c1.005.893,1.954,1.787,2.9,2.624a3.845,3.845,0,0,0,.726.614c.223.223.5.391.726.614.5.391.949.782,1.4,1.172.949.726,1.787,1.508,2.68,2.178s1.787,1.284,2.568,1.9c1.619,1.228,3.183,2.178,4.578,3.071.67.447,1.284.893,1.9,1.228s1.172.67,1.619.949C781.672,767.107,782.733,767.833,782.677,768Zm2.345-4.858c-.391,0-.67-3.015-1.4-7.705-.112-.614-.168-1.228-.279-1.843-.112-.67-.223-1.284-.391-2.01-.223-1.4-.558-2.848-.893-4.411-.726-3.071-1.675-6.421-2.848-9.827-1.228-3.406-2.568-6.644-3.908-9.492-.67-1.4-1.34-2.792-2.01-4.02-.335-.614-.614-1.228-.949-1.787s-.614-1.117-.949-1.619c-2.4-4.132-4.02-6.644-3.741-6.923.279-.223,2.457,1.9,5.36,5.862.335.5.726,1.005,1.117,1.563s.726,1.172,1.117,1.787c.782,1.228,1.508,2.568,2.289,4.02a71.52,71.52,0,0,1,4.188,9.715,75.769,75.769,0,0,1,2.736,10.218c.279,1.619.558,3.127.67,4.578.056.726.167,1.4.223,2.066s.056,1.284.112,1.9C785.8,760.128,785.357,763.143,785.022,763.143ZM894.569,646.17c.112.112-1.284,1.731-4.076,4.523a130.755,130.755,0,0,1-12.674,10.664A184.845,184.845,0,0,1,857.1,674.534a292.864,292.864,0,0,1-27.08,12.954c-9.827,4.132-19.263,7.761-27.917,10.944s-16.471,5.918-23.115,8.1c-6.588,2.178-12,3.853-15.745,4.914s-5.863,1.563-5.918,1.4,1.954-1.005,5.583-2.4,8.933-3.294,15.466-5.7,14.294-5.3,22.836-8.6,17.979-6.979,27.75-11.111,18.872-8.375,26.968-12.674a212.537,212.537,0,0,0,20.826-12.563c5.7-3.908,10.05-7.482,13.065-9.883C892.726,647.4,894.457,646.058,894.569,646.17ZM614.114,625.455c.056.782-4.746,1.843-10.553,3.573-5.807,1.675-10.441,3.462-10.776,2.736-.167-.335.782-1.228,2.568-2.233a34.073,34.073,0,0,1,7.426-3.127,35.971,35.971,0,0,1,7.928-1.452C612.774,624.9,614.058,625.065,614.114,625.455Zm86.1-202.064c-.112.335-1.731.279-4.188-.67a18.35,18.35,0,0,1-4.076-2.177A24.288,24.288,0,0,1,683.4,410.27a17.133,17.133,0,0,1-1.34-5.081l.67.335h0s.056.056,0,.056a.173.173,0,0,0-.112.056.29.29,0,0,0-.112.223.336.336,0,0,0-.056.223v.168c-.056.056-.056.056-.167.056s-.223-.112-.335-.223a1.19,1.19,0,0,1-.167-.67.742.742,0,0,1,.167-.447.891.891,0,0,1,.5-.391l.391-.112.279.558c.558,1,1.173,2.568,2.233,4.355a38.039,38.039,0,0,0,4.188,5.751,33.476,33.476,0,0,0,7.2,5.974C698.926,422.275,700.322,423,700.21,423.391Zm5.974.335c-.614-.5,2.01-4.467,4.467-9.659,2.513-5.193,3.908-9.715,4.69-9.548.335.056.447,1.34.167,3.294a26.84,26.84,0,0,1-2.4,7.426,30.065,30.065,0,0,1-4.243,6.533C707.524,423.224,706.464,423.95,706.184,423.726Zm44.277-63.986c-.335-.112,1.284-4.02,2.513-10.776a64.291,64.291,0,0,0,1.061-12.228,61.67,61.67,0,0,0-2.01-15.3l-1.619-6.365,3.964,5.3a35.651,35.651,0,0,1,6.644,15.578l.112.726-2.736.056a53.893,53.893,0,0,0-.112-10.832c-.112-.893-.223-1.731-.335-2.568l-.5-2.513c-.167-.837-.391-1.619-.614-2.4a18.855,18.855,0,0,0-.726-2.345c-.279-.782-.5-1.508-.782-2.233s-.614-1.452-.893-2.122c-.167-.335-.279-.726-.447-1.061l-.5-1.005c-.335-.67-.67-1.34-.949-1.954-.335-.614-.726-1.228-1.061-1.843a12.97,12.97,0,0,0-1.061-1.731c-.391-.558-.726-1.117-1.117-1.619a3.966,3.966,0,0,0-.558-.782c-.167-.223-.391-.5-.558-.726-.726-.949-1.452-1.9-2.178-2.736s-1.4-1.675-2.066-2.345-1.284-1.34-1.9-1.954c-.614-.558-1.172-1.061-1.675-1.563a8.6,8.6,0,0,1-.726-.67c-.223-.168-.447-.391-.67-.558a8.6,8.6,0,0,1-1-.893c-.558-.5-.838-.782-.782-.893.056-.056.391.056,1.061.391q.5.251,1.172.67c.223.168.5.279.726.447.279.167.5.391.838.558.558.447,1.228.893,1.9,1.4.67.558,1.34,1.173,2.122,1.843a28.422,28.422,0,0,1,2.289,2.233,29.968,29.968,0,0,1,2.4,2.736c.223.223.391.5.614.726.223.279.391.5.614.782.391.558.782,1.061,1.228,1.675a19.716,19.716,0,0,1,1.172,1.787c.391.614.782,1.228,1.173,1.9.335.67.726,1.34,1.061,2.01.168.335.391.67.558,1.061.168.335.335.726.5,1.061.335.726.67,1.452,1.005,2.233.279.782.558,1.563.893,2.345a18,18,0,0,1,.782,2.457c.223.838.5,1.675.67,2.513.168.893.391,1.731.614,2.624.112.893.279,1.787.391,2.736a52.1,52.1,0,0,1,.167,11.446L760.12,347.4l-1.675-10.329-.112-.67a34.522,34.522,0,0,0-6.086-14.517l2.289-1.117a58.71,58.71,0,0,1,1.675,15.969,55.427,55.427,0,0,1-1.731,12.563,53.091,53.091,0,0,1-2.624,7.873C751.131,358.9,750.573,359.8,750.461,359.74Z" transform="translate(-130.028 -112.632)" stroke="#000" stroke-miterlimit="10" stroke-width="1.5"/>
    <path id="Path_1182" data-name="Path 1182" d="M797.145,978.148c-.223.279-2.4-.838-5.416-3.406l-1.172-1.005c-.391-.391-.782-.782-1.228-1.172-.838-.838-1.675-1.787-2.513-2.736a47.018,47.018,0,0,1-4.858-7.035,49.907,49.907,0,0,1-3.573-7.761,32.014,32.014,0,0,1-1.061-3.573c-.168-.558-.279-1.117-.391-1.619-.112-.558-.223-1.061-.279-1.508-.67-3.908-.558-6.365-.223-6.421.391-.056.949,2.289,2.066,5.918.167.447.279.949.447,1.452s.335,1.005.558,1.508c.335,1.061.837,2.177,1.284,3.35,1.005,2.289,2.177,4.8,3.573,7.314a68.621,68.621,0,0,0,4.467,6.812c.782,1.005,1.508,1.954,2.233,2.792a11.164,11.164,0,0,0,1.061,1.228c.335.391.67.782,1.005,1.117C795.693,976.194,797.424,977.813,797.145,978.148Zm2.568-6.533c-.279.223-1.9-.893-4.02-3.238a47.172,47.172,0,0,1-3.518-4.355,56.077,56.077,0,0,1-3.518-5.863,53.225,53.225,0,0,1-2.68-6.309,41.585,41.585,0,0,1-1.452-5.36c-.614-3.127-.558-5.081-.223-5.193.782-.167,2.513,7.314,6.756,15.634C795.247,965.251,800.272,971.057,799.713,971.616ZM597.314,941.8c.279.167-.558,2.568-2.847,5.974-.279.447-.614.838-.893,1.34-.335.447-.67.893-1.061,1.4-.726.949-1.619,1.9-2.513,2.9a57.622,57.622,0,0,1-6.588,5.863,49.84,49.84,0,0,1-7.538,4.523c-1.228.558-2.4,1.117-3.518,1.508-.558.223-1.117.447-1.619.614-.558.167-1.061.335-1.507.447-3.908,1.117-6.477,1.228-6.533.893-.112-.391,2.289-1.172,5.918-2.736.447-.223.949-.391,1.4-.614.5-.223,1-.5,1.508-.726,1.061-.5,2.122-1.061,3.294-1.675a70.66,70.66,0,0,0,7.091-4.523,72.588,72.588,0,0,0,6.421-5.416c.893-.893,1.787-1.787,2.568-2.624.391-.447.782-.838,1.117-1.228l1.005-1.173C595.472,943.643,596.923,941.633,597.314,941.8Z" transform="translate(-116.746 -400.557)" stroke="#000" stroke-miterlimit="10" stroke-width="1.5"/>
    <path id="Path_1183" data-name="Path 1183" d="M580.12,937.389c.223.167-.614,1.731-2.233,4.076a59.918,59.918,0,0,1-6.979,8.766,44.423,44.423,0,0,1-4.69,4.132,17.919,17.919,0,0,1-2.289,1.508c-.391.223-.726.447-1.061.614l-1.005.5c-2.624,1.284-4.411,1.619-4.467,1.4-.112-.279,1.508-1.005,3.853-2.513a8.513,8.513,0,0,0,.893-.614c.335-.223.614-.447.949-.67.67-.447,1.34-1.005,2.066-1.563,1.4-1.172,2.9-2.568,4.411-4.076,2.959-3.071,5.416-6.086,7.258-8.263C578.724,938.561,579.953,937.221,580.12,937.389Z" transform="translate(-114.404 -398.825)" stroke="#000" stroke-miterlimit="10" stroke-width="1"/>
    <path id="Path_1184" data-name="Path 1184" d="M620.123,462.337c-.223.335-1.954-.447-4.746-1.452a49.78,49.78,0,0,0-4.969-1.452,40.888,40.888,0,0,0-6.253-.949,39.318,39.318,0,0,0-9.045.279c-2.568.335-4.578.893-5.918,1.117l-.335-1c.893-.056,1.452,0,1.508.167s-.391.5-1.228.893l-.335-1.005a23.19,23.19,0,0,1,5.863-2.345,30.815,30.815,0,0,1,9.659-.782,29.454,29.454,0,0,1,11.837,3.35C618.895,460.606,620.291,462,620.123,462.337Zm-5.583-13.289c-.167.782-4.913.335-10.664.558-5.751.167-10.441.838-10.664.112-.112-.335,1.005-1,2.9-1.619a29.614,29.614,0,0,1,7.705-1.228,27.9,27.9,0,0,1,7.761.782C613.535,448.1,614.651,448.658,614.54,449.048Zm175.264,13.4c-.223.335-1.731-.223-4.188-1.061-.614-.223-1.284-.391-2.01-.614s-1.508-.391-2.289-.614a43.928,43.928,0,0,0-10.776-1.228,16.887,16.887,0,0,0-2.4.112c-.726.056-1.452.112-2.066.168-2.568.223-4.188.5-4.3.112-.112-.335,1.34-1.228,3.964-2.01a20.942,20.942,0,0,1,2.178-.5,17.089,17.089,0,0,1,2.513-.335,29.55,29.55,0,0,1,5.863.056,29.037,29.037,0,0,1,5.751,1.228,23.952,23.952,0,0,1,2.4.893c.726.279,1.4.67,2.01.949C788.8,460.941,789.971,462.114,789.8,462.449Zm-7.817-13.624c-.167.726-4.02.614-8.766.335-4.746-.335-8.6-.726-8.654-1.452s3.908-1.563,8.822-1.228C778.357,446.759,782.154,448.1,781.986,448.825Zm-83.863-188.72c-.112.391-2.4.112-6.03.056h-1.452c-.5,0-1.005.056-1.563.056-1.061,0-2.177.167-3.406.279A52.742,52.742,0,0,0,678.023,262a54.737,54.737,0,0,0-7.258,2.736c-1.061.558-2.122,1.005-3.015,1.563-.447.279-.949.5-1.34.782-.447.279-.837.5-1.228.782-3.071,1.954-4.858,3.406-5.193,3.127-.112-.112.168-.67.838-1.508a5.906,5.906,0,0,1,.558-.67c.223-.223.447-.5.726-.782.558-.5,1.173-1.173,1.9-1.731.391-.279.782-.614,1.173-.949s.893-.614,1.34-.949c.893-.67,1.954-1.228,3.071-1.9a43.7,43.7,0,0,1,7.649-3.127,41.583,41.583,0,0,1,8.152-1.4,26.222,26.222,0,0,1,3.629,0c.558.056,1.117.056,1.619.112l1.508.168a22.158,22.158,0,0,1,2.513.5c.391.112.726.168,1,.279.335.112.614.223.838.279C697.621,259.659,698.179,259.938,698.123,260.105Zm4.3,2.289c-.67.335-2.68-2.233-5.639-4.858-2.9-2.624-5.7-4.355-5.416-5.081.167-.335,1.061-.335,2.457.168a15.237,15.237,0,0,1,4.8,2.9,15.06,15.06,0,0,1,3.406,4.467C702.646,261.278,702.758,262.227,702.423,262.395Zm5.863-3.629c-.335.168-1.061-.5-2.177-1.508-.279-.223-.558-.5-.949-.782-.335-.279-.726-.558-1.117-.838a28.1,28.1,0,0,0-2.68-1.675,25.008,25.008,0,0,0-2.9-1.228,12.118,12.118,0,0,0-1.34-.391c-.447-.112-.838-.223-1.172-.279-1.452-.335-2.457-.5-2.513-.893-.056-.335.893-.893,2.624-1.005a5.834,5.834,0,0,1,1.4,0,8.659,8.659,0,0,1,1.619.223,13.249,13.249,0,0,1,3.518,1.228,13.939,13.939,0,0,1,3.015,2.178c.391.391.782.782,1.117,1.173a7.133,7.133,0,0,1,.782,1.173C708.453,257.537,708.564,258.6,708.285,258.765Zm9.324,4.188c-.223-.112-.223-1.173.67-2.792a12.21,12.21,0,0,1,1.954-2.624,8.594,8.594,0,0,1,.726-.67,1.22,1.22,0,0,1,.279-.223c.168-.112.279-.223.447-.335.112-.056.168-.112.279-.112a.2.2,0,0,0,.112-.056h.056l-.112-.056a1.971,1.971,0,0,0-.782-.167h-1.005c-.949.056-1.9.167-2.792.223a14.184,14.184,0,0,0-4.355.893,6.337,6.337,0,0,0-2.345,1.675c-.5.5-.726.893-.893.838s-.279-.558,0-1.4a5.82,5.82,0,0,1,2.345-2.848,12.465,12.465,0,0,1,4.969-1.675c.949-.167,1.9-.279,2.9-.391.223,0,.67-.056,1.061-.056a10.732,10.732,0,0,1,1.34,0,10.377,10.377,0,0,1,2.4.335,6.638,6.638,0,0,1,1.787.67c.5.279,1.061.5,1.619.837l.447.223c.112.056.056.056.056.056v.056c0,.056-.056.056,0,.167s0,.112.168.279l.167.223.112.112.167.167c-.67.167-1.284.335-1.9.447-.5.112-1.061.279-1.563.391-.223.056-.5.112-.726.168l-.167.056c-.056,0-.056.056-.112.056l-.223.112c-.279.112-.614.279-.893.391s-.5.279-.726.391l-.335.223-.167.112-.112.112c-.223.168-.447.279-.67.447a11.564,11.564,0,0,0-2.066,1.9C718.447,262.227,717.945,263.065,717.61,262.953Z" transform="translate(-128.277 -95.296)" stroke="#000" stroke-miterlimit="10" stroke-width="1.5"/>
    <path id="Path_1185" data-name="Path 1185" d="M844.739,283.135c-.279.279-1.675-.726-3.908-2.289a81.127,81.127,0,0,0-8.933-5.528c-1.843-.949-3.573-1.787-5.248-2.457-.838-.335-1.619-.67-2.345-.949a9.466,9.466,0,0,0-1.954-.558,4.312,4.312,0,0,0-2.68.223c-.558.279-.837.614-1.061.558-.168-.056-.223-.614.335-1.4a3.835,3.835,0,0,1,1.4-.949,7.972,7.972,0,0,1,2.122-.391,10.184,10.184,0,0,1,2.513.279c.837.223,1.675.447,2.568.726a42.587,42.587,0,0,1,5.639,2.4,36.237,36.237,0,0,1,8.933,6.477C844.069,281.4,845.018,282.912,844.739,283.135Z" transform="translate(-229.722 -103.809)" stroke="#000" stroke-miterlimit="10" stroke-width="1.5"/>
    <path id="Path_1186" data-name="Path 1186" d="M653.5,997.878c.167.223-1.508,1.619-3.685,4.243a34.785,34.785,0,0,0-3.35,4.969,27.813,27.813,0,0,0-1.508,3.182,16.785,16.785,0,0,0-.614,1.787c-.112.335-.223.614-.335.949l-.167.5c-.056.168-.112.279-.223.614a9.08,9.08,0,0,1-.614,1.284,4.647,4.647,0,0,1-.726,1.005,13,13,0,0,1-1.563,1.452.424.424,0,0,1-.112-.223l-.112-.279a1.122,1.122,0,0,0-.223-.447,4.181,4.181,0,0,1-.279-.893,7.7,7.7,0,0,1-.112-1.228v-1.284c-.112-.391-.223-.614-.391-.67a.8.8,0,0,0-.782.056,7.6,7.6,0,0,0-1.117.614c-.335.223-.726.5-1.005.726a14.5,14.5,0,0,0-1.619,1.563,19.19,19.19,0,0,0-1.9,2.68c-.391.67-.614,1.061-.726,1.061-.112-.056-.112-.5.112-1.284a11.2,11.2,0,0,1,1.508-3.183,12.216,12.216,0,0,1,1.619-1.9,8.17,8.17,0,0,1,1.061-.893,6.126,6.126,0,0,1,1.34-.838,3.835,3.835,0,0,1,.949-.279,2.228,2.228,0,0,1,1.173.167,2.182,2.182,0,0,1,.949.782,3.97,3.97,0,0,1,.447,1.005l.056.223v.335c0,.112,0,.279.112.335a1.769,1.769,0,0,0,.447-.67l.112-.335.168-.447c.112-.335.223-.614.335-.949a18.065,18.065,0,0,1,.726-1.843,23.434,23.434,0,0,1,1.675-3.35,25.677,25.677,0,0,1,3.853-5.025,22.1,22.1,0,0,1,3.238-2.736C652.887,997.99,653.39,997.767,653.5,997.878Zm-21.44,27.415c.167,0,.335.67.558,1.954.112.614.223,1.4.335,2.289.056.447.112.893.167,1.4.056.223.056.5.112.782a1.949,1.949,0,0,1-.168,1.228,2,2,0,0,1-1.061.838,2.737,2.737,0,0,1-1.061.167c-.614.056-1.284.112-1.954.112s-1.34,0-2.066-.056h-.5a4.42,4.42,0,0,1,.223.5c.447.893.949,1.731,1.4,2.568l.223.335.335.558c.223.335.447.726.67,1.061.447.67.893,1.4,1.34,2.066q-3.434-.5-6.365-1.005c-1.34-.223-2.513-.391-3.518-.558-1.954-.335-3.127-.614-3.127-.782s1.228-.279,3.238-.279c1.005,0,2.233.056,3.573.167.614.056,1.34.112,2.01.168a2.7,2.7,0,0,0,.67,0c-.056-.112-.168-.223-.223-.335l-.112-.167-.056-.056-.168-.279q-.754-1.256-1.507-2.68c-.558-1.117-1.117-2.289-1.619-3.406,1.228.112,2.513.279,3.629.391.67.056,1.284.112,1.9.112h1.787c.279,0,.614-.056.67-.056a.307.307,0,0,0,.279-.167.6.6,0,0,0,.056-.335v-4.467C631.838,1026.019,631.949,1025.293,632.061,1025.293Zm138.413.893c-.112.168-.838-.335-2.233-.837a12.977,12.977,0,0,0-2.513-.558,7.3,7.3,0,0,0-1.563,0,.951.951,0,0,0-.391.056l-.279.056c-.112,0-.279.056-.391.056-.5.112-1.061.223-1.619.335,0-.5,0-1.172.056-1.731v-3.741c-.056-1.563-.112-3.239-.279-4.969a34.346,34.346,0,0,0-1.284-6.812,32.148,32.148,0,0,0-2.066-5.248c-.391-.726-.726-1.34-1.061-1.9-.167-.279-.335-.558-.5-.782s-.279-.447-.391-.614a1.48,1.48,0,0,0-.335-.279.307.307,0,0,0-.279.167c-.112.167.056.223.056.223.056-.112-.223-.223-.112-.558a.6.6,0,0,1,.391-.335.816.816,0,0,1,.726.279c.223.168.391.391.614.558a8.349,8.349,0,0,1,.614.726,13.159,13.159,0,0,1,1.34,1.843,23.336,23.336,0,0,1,2.568,5.416,33.657,33.657,0,0,1,1.508,7.147c.168,1.787.223,3.518.223,5.137,0,.838-.056,1.619-.056,2.345v1.061c0,.056-.056.167,0,.167h1.117a9.24,9.24,0,0,1,1.787.167,9.7,9.7,0,0,1,2.736,1.005C770.027,1025.293,770.586,1026.075,770.474,1026.186Zm10.5,1.508c-.391.335-2.289-1.172-5.081-1.843-2.792-.726-5.193-.335-5.36-.837-.056-.223.5-.67,1.563-.949a8.547,8.547,0,0,1,1.9-.279,8.932,8.932,0,0,1,2.345.279,7.731,7.731,0,0,1,2.178.893,7.026,7.026,0,0,1,1.563,1.117C780.859,1026.912,781.138,1027.526,780.971,1027.694Zm3.294,28.42c0,.112-.614.279-1.843.391a6.4,6.4,0,0,1-2.233-.167,4.722,4.722,0,0,1-2.68-1.675,4,4,0,0,1-.837-1.843,3.462,3.462,0,0,1,.391-2.122c.614-1.284,1.675-2.233,2.01-3.294a2.024,2.024,0,0,0,.056-1.4c-.168-.335-.558-.5-1.173-.614a3.027,3.027,0,0,0-1.005,0c-.391,0-.782.056-1.172.056-.949.056-1.954.112-2.9.112-.838.056-1.675.056-2.457.112.726-1.34,1.452-2.624,2.178-3.908l1.34-2.345c.447-.782.838-1.507,1.284-2.233.223-.335.391-.726.614-1.061a2.263,2.263,0,0,0,.279-.5c.056-.167.056-.167.112-.223a.336.336,0,0,0-.056-.223c0-.056-.112-.167-.223-.223a2.959,2.959,0,0,0-.837-.447,8.657,8.657,0,0,0-1.954-.391,15.55,15.55,0,0,0-3.406.279c-1.9.391-3.071.67-3.127.5s.949-.726,2.848-1.4a10.867,10.867,0,0,1,3.685-.67,9.341,9.341,0,0,1,2.4.279,3.6,3.6,0,0,1,1.34.614,2.378,2.378,0,0,1,.614.67,1.928,1.928,0,0,1,.279,1.005,2.1,2.1,0,0,1-.223.893,5.147,5.147,0,0,0-.279.558c-.168.335-.391.726-.558,1.061-.391.726-.782,1.508-1.228,2.289-.614,1.117-1.228,2.233-1.843,3.462h.335c.614,0,1.228-.056,1.843-.056.391,0,.782-.056,1.172-.056a10.329,10.329,0,0,1,1.284.056,3.4,3.4,0,0,1,1.4.447,2.827,2.827,0,0,1,1.117,1.172,3.608,3.608,0,0,1,.279,1.507,3.312,3.312,0,0,1-.279,1.284,7.252,7.252,0,0,1-1.173,1.954,9.782,9.782,0,0,0-1.005,1.452,2.4,2.4,0,0,0-.335,1.34,2.53,2.53,0,0,0,.447,1.228,3.778,3.778,0,0,0,1.954,1.452,10.145,10.145,0,0,0,2.01.447C783.6,1055.946,784.265,1056,784.265,1056.114Z" transform="translate(-140.996 -425.535)" stroke="#000" stroke-miterlimit="10" stroke-width="1"/>
    <g id="Group_488" data-name="Group 488" transform="translate(298.357 34.356)">
      <path id="Path_1187" data-name="Path 1187" d="M493.52,273.213H393.8a6.72,6.72,0,0,1-6.7-6.7V230.5a6.72,6.72,0,0,1,6.7-6.7h99.72a6.72,6.72,0,0,1,6.7,6.7v36.013A6.72,6.72,0,0,1,493.52,273.213Z" transform="translate(-337.551 -118.025)" fill="#d1e0f7"/>
      <path id="Path_1188" data-name="Path 1188" d="M396.434,478.695c-.726-.614-15.3-13.289-11.949-29.425,1.9-9.213,8.654-14.573,11.949-17.141,12.507-9.938,27.359-8.654,32.161-7.984s20.324,2.848,27.861,15.913c.949,1.619,5.639,9.715,3.35,19.319-3.127,13.344-17.253,19.1-22.39,21.161C418.935,488.075,401.235,480.816,396.434,478.695Zm-69.849,64.656c-.949.838-3.685,3.462-3.685,7.035,0,3.071,2.01,5.081,5.193,8.263a31.426,31.426,0,0,0,11.055,7.035,24.724,24.724,0,0,0,2.736.893c1.284-3.35,2.9-7.984,4.578-13.512,4.188-13.847,3.685-16.974,2.122-18.984a7.88,7.88,0,0,0-7.035-3.071c-5.025.67-7.091,7.37-7.37,8.263a15.294,15.294,0,0,0,.614,10.106,8.225,8.225,0,0,0-3.071-4.578A8.813,8.813,0,0,0,326.585,543.351ZM346.8,508.733a7.962,7.962,0,0,0-1.843,3.964,8.084,8.084,0,0,0,3.35,7.984,3.3,3.3,0,0,0,2.122.614c1.452-.223,2.68-1.9,3.071-4.3.391-.335,5.751-4.8,4.578-9.827-.056-.167-.838-3.294-2.736-3.685-2.066-.447-4.69,2.457-5.528,5.193-.67,2.122-.168,3.853-.614,3.964C348.919,512.809,348.3,512.2,346.8,508.733Z" transform="translate(-309.196 -206.31)" fill="#0381ff"/>
      <path id="Path_1189" data-name="Path 1189" d="M349.38,650c-.223-.112.893-3.406,2.568-8.766.837-2.68,1.731-5.918,2.68-9.492.223-.893.447-1.843.67-2.792s.447-1.9.614-2.848a12.741,12.741,0,0,0-.112-5.807,4.914,4.914,0,0,0-3.741-3.462,6.914,6.914,0,0,0-2.624,0,7.154,7.154,0,0,0-2.345.949,11.566,11.566,0,0,0-3.518,3.462,13.989,13.989,0,0,0-1.9,3.908,12.423,12.423,0,0,0-.558,3.573,9.776,9.776,0,0,0,.391,2.736c.447,1.452,1.005,2.178.893,2.233-.056.056-.837-.5-1.508-2.01a9.165,9.165,0,0,1-.726-2.9,12.549,12.549,0,0,1,.335-3.964,13.712,13.712,0,0,1,1.9-4.411,13.326,13.326,0,0,1,3.908-4.02,8.241,8.241,0,0,1,6.253-1.228,6.168,6.168,0,0,1,3.127,1.563,7.429,7.429,0,0,1,1.954,3.071,10.6,10.6,0,0,1,.447,3.406,20.528,20.528,0,0,1-.335,3.238c-.168,1.005-.447,2.01-.67,2.959s-.5,1.9-.782,2.792c-1.005,3.629-2.122,6.812-3.071,9.492C351.166,646.985,349.6,650.112,349.38,650Z" transform="translate(-316.804 -290.794)" stroke="#000" stroke-miterlimit="10" stroke-width="1"/>
      <path id="Path_1190" data-name="Path 1190" d="M336.468,631.753c-.168.223-2.568-1.4-6.644-3.741-2.01-1.173-4.467-2.513-7.2-3.853-1.4-.67-2.848-1.284-4.411-2.066a13.8,13.8,0,0,1-2.345-1.508,7.635,7.635,0,0,1-1.843-2.345,8.251,8.251,0,0,1-.391-5.751,10.151,10.151,0,0,1,1.117-2.513,9.921,9.921,0,0,1,1.787-1.954,2.008,2.008,0,0,1,.558-.391,4.921,4.921,0,0,1,.558-.335,10.575,10.575,0,0,1,1.173-.5c.223-.056.391-.112.558-.167.223-.056.391-.056.614-.112a8.329,8.329,0,0,1,1.173-.112,9.075,9.075,0,0,1,4.02.893,9.558,9.558,0,0,1,2.736,1.954,8.121,8.121,0,0,1,1.452,2.01c.614,1.228.67,2.01.558,2.01-.167.056-.391-.614-1.173-1.675a13.6,13.6,0,0,0-1.563-1.675,9.448,9.448,0,0,0-2.568-1.508,7.67,7.67,0,0,0-3.462-.558,6.362,6.362,0,0,0-3.573,1.4,12.642,12.642,0,0,0-1.4,1.563,10.966,10.966,0,0,0-.893,2.01,6.822,6.822,0,0,0,.279,4.467,5.363,5.363,0,0,0,1.4,1.787,12.325,12.325,0,0,0,2.01,1.284c1.452.726,2.959,1.452,4.355,2.177a69.172,69.172,0,0,1,7.147,4.243C334.458,629.575,336.58,631.585,336.468,631.753Zm9.827-52.2c-.279.056-.782-1.731-2.289-4.188-.391-.614-.838-1.284-1.34-1.954a4.705,4.705,0,0,0-1.731-1.619.82.82,0,0,0-.726.056,2.11,2.11,0,0,0-.67.838,6.549,6.549,0,0,0-.279.614,3.41,3.41,0,0,0-.167.726,14.012,14.012,0,0,0-.223,1.507,9.709,9.709,0,0,0,1.34,5.7,10.63,10.63,0,0,0,3.406,3.462,16.854,16.854,0,0,0,3.071,1.4c.782.223,1.228.335,1.228.5,0,.112-.5.223-1.34.223a8.732,8.732,0,0,1-3.573-.949,10.285,10.285,0,0,1-4.188-3.685,11.054,11.054,0,0,1-1.731-6.7,10.5,10.5,0,0,1,.279-1.843c.056-.279.167-.558.223-.893a6.206,6.206,0,0,1,.391-.893,3.578,3.578,0,0,1,1.4-1.508,2.6,2.6,0,0,1,1.117-.335,2.5,2.5,0,0,1,1.117.223,3.626,3.626,0,0,1,1.4,1.117c.335.391.614.782.893,1.173a18.838,18.838,0,0,1,1.284,2.233,14.76,14.76,0,0,1,1.173,3.462C346.463,579.045,346.407,579.492,346.3,579.548Z" transform="translate(-304.954 -270.927)" stroke="#000" stroke-miterlimit="10" stroke-width="1"/>
      <path id="Path_1191" data-name="Path 1191" d="M372.314,518.472c-.223-.168.614-1.787,2.01-4.355.67-1.284,1.508-2.792,2.4-4.523a28.383,28.383,0,0,0,1.284-2.624,3.249,3.249,0,0,0,.223-2.457,2.11,2.11,0,0,0-1.843-1.061,3.263,3.263,0,0,0-2.233.893,10.417,10.417,0,0,0-1.675,1.843,14.337,14.337,0,0,0-1.117,1.954,16.511,16.511,0,0,0-1.005,3.183c-.168.782-.279,1.228-.391,1.228s-.279-.447-.279-1.284a9.437,9.437,0,0,1,.558-3.573,9.253,9.253,0,0,1,1.061-2.289,8.715,8.715,0,0,1,1.843-2.345,4.367,4.367,0,0,1,1.452-.949,4.272,4.272,0,0,1,3.8.112,3.284,3.284,0,0,1,1.508,1.619,4.08,4.08,0,0,1,.279,2.122,8.355,8.355,0,0,1-.5,1.787c-.447,1.061-1.005,1.9-1.452,2.792-1.005,1.675-1.954,3.183-2.792,4.411C373.766,517.243,372.537,518.639,372.314,518.472Zm63.093-36.683a14.329,14.329,0,0,1,2.289-.056c1.508,0,3.685.056,6.477-.112,1.4-.112,2.959-.279,4.634-.5a45.345,45.345,0,0,0,5.36-1.228,37.774,37.774,0,0,0,11.949-5.918,44.907,44.907,0,0,0,5.863-5.137,35.928,35.928,0,0,0,2.68-3.127c.893-1.117,1.787-2.289,2.568-3.462a18.067,18.067,0,0,0,3.238-8.152,20.275,20.275,0,0,0-1.117-9.213,35.74,35.74,0,0,0-2.066-4.467,26.171,26.171,0,0,0-2.736-4.243,31.607,31.607,0,0,0-7.649-6.979,33.053,33.053,0,0,0-9.715-4.578,44.843,44.843,0,0,0-11-1.787,43.32,43.32,0,0,0-11.111.782,48.5,48.5,0,0,0-10.329,3.294c-1.619.726-3.238,1.508-4.746,2.345-1.563.837-3.071,1.731-4.578,2.624a34.479,34.479,0,0,0-7.817,6.2,28.34,28.34,0,0,0-4.969,8.04,22.874,22.874,0,0,0-1.787,8.654,21.555,21.555,0,0,0,1.563,8.1,23.2,23.2,0,0,0,4.076,6.477,31.828,31.828,0,0,0,15.634,10.106,44.267,44.267,0,0,0,4.523,1.117c2.736.5,4.913.726,6.421.949a12.462,12.462,0,0,1,2.233.335,11.872,11.872,0,0,1-2.289,0,51.519,51.519,0,0,1-6.477-.614,45.723,45.723,0,0,1-4.634-.949,33.965,33.965,0,0,1-5.3-1.9,33.252,33.252,0,0,1-11.055-8.208,25.573,25.573,0,0,1-4.411-6.812,22.2,22.2,0,0,1-1.787-8.654,24.709,24.709,0,0,1,1.843-9.268,35.888,35.888,0,0,1,2.178-4.411,23.291,23.291,0,0,1,3.015-4.076,35.841,35.841,0,0,1,8.152-6.533c1.508-.949,3.015-1.787,4.634-2.68,1.563-.893,3.238-1.675,4.913-2.457a52.625,52.625,0,0,1,5.193-2.01c.893-.279,1.787-.558,2.736-.782.447-.112.893-.223,1.4-.335l1.4-.279a44.31,44.31,0,0,1,11.558-.838,49.057,49.057,0,0,1,11.446,1.9,38.268,38.268,0,0,1,10.218,4.858,33.831,33.831,0,0,1,8.04,7.37,27.373,27.373,0,0,1,2.848,4.467,36.456,36.456,0,0,1,2.178,4.746,20.486,20.486,0,0,1,1.117,9.994,18.792,18.792,0,0,1-1.284,4.69,24,24,0,0,1-2.289,4.076c-.837,1.228-1.787,2.4-2.68,3.518a39.368,39.368,0,0,1-2.848,3.238,42.974,42.974,0,0,1-6.086,5.193,40.943,40.943,0,0,1-12.451,5.863,46.186,46.186,0,0,1-5.528,1.117,37.1,37.1,0,0,1-4.746.335,65.284,65.284,0,0,1-6.533-.223A12.329,12.329,0,0,1,435.407,481.789Z" transform="translate(-329.856 -205.105)" stroke="#000" stroke-miterlimit="10" stroke-width="1"/>
      <path id="Path_1192" data-name="Path 1192" d="M458.71,458.095c.056-.112.335-.056.726-.056a3.378,3.378,0,0,0,1.619-.391,2.678,2.678,0,0,0,1.4-1.619,1.974,1.974,0,0,0-.112-1.117,2.39,2.39,0,0,0-.838-1.005,2.873,2.873,0,0,0-1.228-.5,1.923,1.923,0,0,0-1.117.223,2.57,2.57,0,0,0-1.173,1.787,2.965,2.965,0,0,0,.112,1.619c.112.391.223.614.167.726-.056.056-.391,0-.782-.335a3.263,3.263,0,0,1-.782-2.122,4.152,4.152,0,0,1,.335-1.563,3.154,3.154,0,0,1,1.228-1.508,3.678,3.678,0,0,1,2.178-.614,4.055,4.055,0,0,1,2.178.838,4.506,4.506,0,0,1,1.4,1.843,3.413,3.413,0,0,1,.056,2.233,3.826,3.826,0,0,1-1.117,1.619,3.244,3.244,0,0,1-1.452.726,2.863,2.863,0,0,1-2.233-.167C458.822,458.43,458.654,458.151,458.71,458.095Zm20.212-2.289c.056-.112.335-.056.782,0a2.969,2.969,0,0,0,1.619-.223,2.316,2.316,0,0,0,1.4-1.563,2.56,2.56,0,0,0-.782-2.345,2.108,2.108,0,0,0-2.345-.167,2.329,2.329,0,0,0-.893.726,1.672,1.672,0,0,0-.223.447,1.314,1.314,0,0,0-.112.447,2.148,2.148,0,0,0,.391,1.452c.223.279.5.447.447.558,0,.112-.335.279-.893,0a2.525,2.525,0,0,1-1.284-2.01,4.2,4.2,0,0,1,0-.838,5.487,5.487,0,0,1,.279-.893,3.571,3.571,0,0,1,1.34-1.4,4.224,4.224,0,0,1,2.066-.558,3.623,3.623,0,0,1,2.289.837,4.078,4.078,0,0,1,1.228,4.188,3.507,3.507,0,0,1-1.117,1.619,3.594,3.594,0,0,1-1.508.67,3.26,3.26,0,0,1-2.233-.335C478.978,456.2,478.866,455.917,478.922,455.806Zm21.831-1.843c0-.279,1.061-.335,2.122-1.34a2.979,2.979,0,0,0,.949-2.01,2.621,2.621,0,0,0-1.228-2.178,1.831,1.831,0,0,0-1.173-.279,2.768,2.768,0,0,0-1.117.447,2.112,2.112,0,0,0-.893,1.843,4.661,4.661,0,0,0,.614,1.619c.223.391.279.67.223.782-.112.056-.335,0-.726-.279a3.442,3.442,0,0,1-1.34-1.787,3.337,3.337,0,0,1,1.005-3.35,3.858,3.858,0,0,1,1.954-1.005,3.408,3.408,0,0,1,2.345.5,4.159,4.159,0,0,1,1.954,3.8,3.948,3.948,0,0,1-1.787,2.9,3.661,3.661,0,0,1-2.122.614C501.032,454.242,500.753,454.075,500.753,453.963Zm20.938-16.527c-.279.056-.838-1.228-1.954-3.238a17.235,17.235,0,0,0-.949-1.619c-.335-.558-.726-1.173-1.117-1.787a41.971,41.971,0,0,0-2.959-3.853,39.354,39.354,0,0,0-3.462-3.406c-.558-.5-1.117-.949-1.619-1.34a13.076,13.076,0,0,0-1.507-1.117c-1.843-1.34-3.071-2.066-2.959-2.345.112-.223,1.563.112,3.629,1.228a18.956,18.956,0,0,1,1.675,1.005c.614.391,1.172.838,1.843,1.284a36.028,36.028,0,0,1,3.741,3.518,26.609,26.609,0,0,1,3.015,4.132c.391.67.782,1.34,1.061,1.954a15.865,15.865,0,0,1,.782,1.787C521.747,435.929,521.914,437.38,521.691,437.436Zm5.248-.056c-.279,0-.558-1.228-1.117-3.183-.167-.5-.279-1.005-.5-1.563-.168-.558-.447-1.173-.67-1.787a30.574,30.574,0,0,0-1.9-3.853,39.63,39.63,0,0,0-2.4-3.573c-.391-.5-.782-1.005-1.172-1.452s-.782-.838-1.117-1.228c-1.4-1.452-2.345-2.345-2.177-2.568.112-.167,1.34.279,3.071,1.619a11.842,11.842,0,0,1,1.34,1.117,11.647,11.647,0,0,1,1.4,1.452,22.19,22.19,0,0,1,2.68,3.741,21.2,21.2,0,0,1,1.9,4.188c.223.67.391,1.34.558,1.954s.223,1.172.335,1.731C527.386,436.04,527.163,437.38,526.939,437.38Z" transform="translate(-368.29 -203.857)" stroke="#000" stroke-miterlimit="10" stroke-width="1"/>
      <ellipse id="Ellipse_240" data-name="Ellipse 240" cx="2.233" cy="0.893" rx="2.233" ry="0.893" transform="matrix(0.966, 0.257, -0.257, 0.966, 21.554, 299.145)" stroke="#000" stroke-miterlimit="10" stroke-width="1"/>
      <ellipse id="Ellipse_241" data-name="Ellipse 241" cx="1.898" cy="0.893" rx="1.898" ry="0.893" transform="matrix(0.761, 0.649, -0.649, 0.761, 25.769, 291.631)" stroke="#000" stroke-miterlimit="10" stroke-width="1"/>
      <path id="Path_1193" data-name="Path 1193" d="M334.841,405.557c.447.223.056,2.066-.67,4.3-.726,2.178-1.508,3.964-2.01,3.853s-.5-2.122.279-4.411C333.166,406.953,334.394,405.334,334.841,405.557Zm-36.348,78.894c-.447-.223.223-2.345,1.787-4.467s3.406-3.35,3.741-3.015-.782,2.066-2.289,4.076C300.223,483.111,298.939,484.73,298.493,484.451Zm9.6,2.345c-.223.056-.558-.335-.782-1.005a5.517,5.517,0,0,1-.056-2.736,5.318,5.318,0,0,1,1.172-2.457c.447-.558.893-.726,1.117-.614.391.335-.112,1.731-.5,3.406C308.654,485.232,308.6,486.684,308.1,486.8Zm8.71,1.954c-.5.112-1.284-1.675-1.452-4.02s.447-4.243.893-4.188c.5.056.726,1.843.893,4.076C317.309,486.8,317.309,488.638,316.806,488.75Zm23.06-218.7c-.558-.056.279-9.659-.056-21.552-.335-11.837-1.731-21.385-1.228-21.5.447-.112,2.68,9.436,3.015,21.44C341.987,260.444,340.312,270.1,339.866,270.047Z" transform="translate(-298.357 -119.438)" stroke="#000" stroke-miterlimit="10" stroke-width="1"/>
      <path id="Path_1194" data-name="Path 1194" d="M495.2,237.133a30.94,30.94,0,0,1-.726-5.36c-.112-.893-.167-1.843-.279-2.9a7.531,7.531,0,0,0-.614-3.071c-.558-.837-1.787-1-3.127-.949-1.4.112-2.848.223-4.411.335-12.4,1.005-29.592,1.9-48.632,1.787s-36.181-1.117-48.632-2.289q-4.69-.419-8.375-.838a15.355,15.355,0,0,0-6.142.335,5.8,5.8,0,0,0-1.954.949A3.139,3.139,0,0,0,371.3,226.3a6.682,6.682,0,0,0-.335.949,1.8,1.8,0,0,1-.112.335.966.966,0,0,1-.056-.391,4.971,4.971,0,0,1,.167-1.061,3.8,3.8,0,0,1,1.005-1.452,6.378,6.378,0,0,1,2.122-1.173,15.163,15.163,0,0,1,6.421-.67c2.457.167,5.248.391,8.375.558,12.4.782,29.536,1.619,48.52,1.731s36.125-.558,48.52-1.228c1.563-.056,3.071-.168,4.467-.223a7.23,7.23,0,0,1,2.178.223,3.378,3.378,0,0,1,1.843,1.284,4.53,4.53,0,0,1,.558,1.9c.056.614.056,1.117.112,1.675.056,1.061.112,2.01.112,2.9A34.683,34.683,0,0,1,495.2,237.133Z" transform="translate(-330.352 -117.567)" stroke="#000" stroke-miterlimit="10" stroke-width="1"/>
      <path id="Path_1195" data-name="Path 1195" d="M497.764,245.788a4.7,4.7,0,0,1,.279,1.508c.112,1.005.279,2.457.391,4.355a96.686,96.686,0,0,1-.391,16.08c-.168,1.675-.391,3.462-.67,5.3a15.965,15.965,0,0,1-.614,2.9,4.02,4.02,0,0,1-.949,1.508,3.9,3.9,0,0,1-1.563.838,21.924,21.924,0,0,1-3.071.5c-1.005.112-2.066.279-3.127.447-2.122.279-4.243.558-6.477.837-8.878,1.061-18.7,2.01-28.978,2.624a501.111,501.111,0,0,1-52.819.447c-6.756-.335-12.228-.726-15.969-1.061a44.936,44.936,0,0,1-5.807-.726,36.332,36.332,0,0,1,5.863.056c3.8.112,9.213.335,15.969.5,13.512.279,32.161.279,52.708-1.005,10.273-.614,20.044-1.508,28.922-2.457,2.233-.223,4.355-.447,6.477-.726,1.061-.112,2.066-.279,3.127-.391a21.175,21.175,0,0,0,2.9-.447,2.282,2.282,0,0,0,1.619-1.4,16.654,16.654,0,0,0,.558-2.624c.335-1.787.558-3.518.782-5.193a124.875,124.875,0,0,0,.949-15.913C497.708,247.854,497.6,245.788,497.764,245.788Zm-25.125.223c0,.056-.279.167-.838.391a4.864,4.864,0,0,1-1.061.279q-.67.167-1.508.335a47.4,47.4,0,0,1-9.771.558c-4.132-.056-8.989-.5-14.349-.391a62.679,62.679,0,0,0-8.319.838c-2.9.447-5.863,1.061-8.989,1.563a76.092,76.092,0,0,1-9.157.949c-2.959.112-5.863.112-8.543.056-5.416-.168-10.273-.335-14.405-.5-4.076-.168-7.426-.335-9.715-.5s-3.573-.279-3.573-.447,1.284-.223,3.573-.279,5.639-.112,9.715-.112,8.989.056,14.405.112a94.893,94.893,0,0,0,17.42-1.117c3.071-.5,6.086-1.117,8.989-1.563a57.893,57.893,0,0,1,8.6-.782c5.528-.056,10.385.558,14.405.782a60.008,60.008,0,0,0,9.6,0q.838-.084,1.508-.167a9.4,9.4,0,0,1,1.117-.112C472.3,245.956,472.638,245.956,472.638,246.011Z" transform="translate(-333.531 -127.562)" stroke="#000" stroke-miterlimit="10" stroke-width="1"/>
      <path id="Path_1196" data-name="Path 1196" d="M469.966,265.755c0,.223-4.8-.056-12.451-.726-1.9-.167-3.964-.335-6.2-.335a30.443,30.443,0,0,0-6.979.67,24.222,24.222,0,0,0-3.573,1.173c-.614.279-1.228.5-1.9.782a13.153,13.153,0,0,1-2.122.558,30.758,30.758,0,0,1-8.766-.167,74.416,74.416,0,0,0-10.888-.67,22.47,22.47,0,0,0-9.324,2.178l-1.675.838.5-1.787a.6.6,0,0,0,0-.447,1.593,1.593,0,0,0-.558-.391,5.215,5.215,0,0,0-1.9-.335c-.335,0-.67.056-.949.056-.335.056-.726.112-1.061.167-.67.112-1.4.167-2.01.223a34.176,34.176,0,0,1-6.868-.112c-3.8-.5-5.807-1.34-5.751-1.452.056-.168,2.122.335,5.863.5a47.19,47.19,0,0,0,6.644-.223c.614-.056,1.284-.168,1.954-.279a6.494,6.494,0,0,0,1-.223,8.333,8.333,0,0,1,1.173-.112,6.91,6.91,0,0,1,2.513.391,2.7,2.7,0,0,1,1.284.893,3.316,3.316,0,0,1,.223.447,1.726,1.726,0,0,1,.112.447v.5a1.314,1.314,0,0,1-.112.447l-1.117-.949a23.149,23.149,0,0,1,9.939-2.513,70.159,70.159,0,0,1,11.223.614,29.6,29.6,0,0,0,8.263.223,17.667,17.667,0,0,0,3.685-1.173A23.769,23.769,0,0,1,444,263.745a30.873,30.873,0,0,1,7.37-.558c2.289.112,4.411.335,6.309.614C465.332,264.75,470.022,265.531,469.966,265.755Zm5.248,11.446c.056.112-1.005.614-3.071,1.228a44.026,44.026,0,0,1-8.933,1.675,39.978,39.978,0,0,1-6.365.056c-1.172-.056-2.345-.168-3.573-.335s-2.457-.335-3.741-.5a29.721,29.721,0,0,0-3.853-.223,9.555,9.555,0,0,0-3.741.782c-.279.168-.558.279-.838.447-.056.056-.167.112-.223.168l-.056.056a.055.055,0,0,0,.056.056c0,.056.056.056.112.112l.112.112.056.056a.173.173,0,0,1,.112.056,2.676,2.676,0,0,0,1.619.056,1.882,1.882,0,0,0,.67-.335,2.006,2.006,0,0,0,.391-.558l1.284,1.061a4.514,4.514,0,0,1-1.508.614,7.441,7.441,0,0,1-1.563.168,7.863,7.863,0,0,1-3.015-.614,36.9,36.9,0,0,1-5.137-2.68,7.889,7.889,0,0,0-3.015-.949,4.693,4.693,0,0,0-2.736.726,2.72,2.72,0,0,0-.893.893c-.056.112-.112.168-.112.279-.056.112-.112.223-.056.223,0,.056-.056.167,0,.223s.112.112.168.112l.5.167a1.5,1.5,0,0,0,1.005-.223l.168,1.563a44.629,44.629,0,0,0-9.883-2.9,13.96,13.96,0,0,0-4.578.056c-.335.056-.726.168-1.061.223l-1.005.335a7.271,7.271,0,0,0-.949.447,1.959,1.959,0,0,0-.447.279c-.223.168-.5.279-.726.447l-.391.223c-.056,0-.056.056-.112,0l-.056-.056-.167-.168c-.223-.168-.391-.391-.614-.558-.056-.056-.112-.112-.168-.112l-.112-.056-.168-.167a1,1,0,0,0-.391-.279,7.525,7.525,0,0,0-1.675-.782,9.393,9.393,0,0,0-3.462-.447,7.52,7.52,0,0,0-3.015.782,6.083,6.083,0,0,0-.614.335,2,2,0,0,0-.558.391c-.5.335-.949.893-1.4,1.173a8.408,8.408,0,0,0-.558-.949c-.112-.112-.168-.223-.279-.335l-.223-.223a2.522,2.522,0,0,0-.949-.614,4.712,4.712,0,0,0-1.787-.391,5.405,5.405,0,0,0-1.563.279c-.056-.056.391-.5,1.563-.726a4.676,4.676,0,0,1,2.066.223,5.42,5.42,0,0,1,1.228.67,1.218,1.218,0,0,1,.279.223l.168.167a1,1,0,0,1,.279.391c0,.056.056,0,.056,0l.056-.056.168-.168.167-.167.223-.168a2.48,2.48,0,0,1,.614-.447,4.165,4.165,0,0,1,.67-.391,9.045,9.045,0,0,1,3.35-1.005,9.8,9.8,0,0,1,3.964.391,7.936,7.936,0,0,1,2.01.893,3.1,3.1,0,0,1,.447.335l.223.167.112.112a.055.055,0,0,1,.056.056l.168.167c.056,0,.056.056.112.056l.112-.056.223-.112a4.05,4.05,0,0,1,.5-.279c.335-.168.726-.335,1.061-.5.391-.112.782-.279,1.173-.391s.782-.168,1.173-.279a17.119,17.119,0,0,1,5.081-.168,41.983,41.983,0,0,1,10.329,2.848l1.563.614-1.4.949a3.094,3.094,0,0,1-2.178.5,4.1,4.1,0,0,1-1.117-.279,3.453,3.453,0,0,1-1.117-.838l-.112-.112v-.5a3.267,3.267,0,0,1,.112-.726c.056-.279.112-.391.167-.614.056-.167.168-.335.223-.5a5.348,5.348,0,0,1,1.452-1.508,6.356,6.356,0,0,1,3.853-1.005,10.2,10.2,0,0,1,3.685,1.173,46.683,46.683,0,0,0,4.913,2.568,5.115,5.115,0,0,0,4.523-.056l2.4-1.508-1.061,2.568a3.1,3.1,0,0,1-.949,1.284,3.044,3.044,0,0,1-1.34.67,4.34,4.34,0,0,1-2.792-.112,2.723,2.723,0,0,0-.391-.168,1.7,1.7,0,0,1-.391-.279,3.5,3.5,0,0,1-.67-.614c-.168-.223-.279-.5-.447-.726a1.182,1.182,0,0,1-.168-.391l.279-.279.614-.614c.112-.112.223-.168.335-.279l.391-.279a9.706,9.706,0,0,1,1.061-.558,11.324,11.324,0,0,1,4.411-.893,23.776,23.776,0,0,1,4.076.279c1.284.168,2.568.391,3.741.614,1.172.167,2.345.335,3.462.447a59.764,59.764,0,0,0,6.2.167,57.905,57.905,0,0,0,8.822-1.117C474.042,277.368,475.159,277.089,475.215,277.2Z" transform="translate(-337.727 -135.413)" stroke="#000" stroke-miterlimit="10" stroke-width="1"/>
      <path id="Path_1197" data-name="Path 1197" d="M716.462,53.68c-4.243,9.157-3.741,15.3-2.289,19.319,2.959,8.375,9.883,9.715,12.9,18.369a36.467,36.467,0,0,1,1.843,14.684c-.726,5.751-2.848,8.71-1.4,10.553,1.508,1.9,5.639-1.787,12.4-.893a30.4,30.4,0,0,1,6.868,1.843c3.015,1.228,3.462,2.01,4.578,1.843,2.959-.5,2.792-6.253,5.974-10.553,2.233-3.071,4.132-2.066,13.791-6.421,9.771-4.411,10.72-6.477,11.055-7.37,1.34-3.853-1.061-8.431-3.685-11.055-3.908-3.853-7.426-2.457-12.4-4.578-10.218-4.355-6.979-15.187-18.369-24.344-1.675-1.34-10.274-8.263-20.659-6.421A21.58,21.58,0,0,0,716.462,53.68Z" transform="translate(-481.543 -40.534)" fill="#197bdd"/>
      <path id="Path_1198" data-name="Path 1198" d="M720.083,108.46a10.715,10.715,0,0,1,.223-2.4,18.514,18.514,0,0,0-.391-6.309,17.785,17.785,0,0,0-1.508-4.02,20.812,20.812,0,0,0-2.9-4.02c-1.228-1.284-2.624-2.624-3.964-4.132a31.63,31.63,0,0,1-3.685-5.137,29.444,29.444,0,0,1-2.4-5.863c-.167-.5-.223-1.005-.391-1.452-.056-.223-.112-.5-.167-.726s-.056-.5-.112-.726c-.056-.5-.167-.949-.223-1.452s-.056-.949-.112-1.452a23.283,23.283,0,0,1,1.4-9.827,14.076,14.076,0,0,1,.837-1.843c.167-.279.279-.558.447-.838s.335-.5.447-.726a11.61,11.61,0,0,1,1.731-2.289,5.007,5.007,0,0,1,1.508-1.061c.391-.168.614-.168.67-.112.056.112-.726.447-1.675,1.619a10.789,10.789,0,0,0-1.4,2.345,4.609,4.609,0,0,1-.391.726l-.335.838a13.267,13.267,0,0,0-.67,1.787,24.084,24.084,0,0,0-.949,9.268l.167,1.34c.056.447.168.893.223,1.34.056.223.056.447.112.67l.167.67a13.033,13.033,0,0,0,.391,1.4,30.759,30.759,0,0,0,2.289,5.472,27.946,27.946,0,0,0,3.406,4.858c1.284,1.452,2.68,2.792,3.908,4.188a18.1,18.1,0,0,1,4.467,8.933,16.042,16.042,0,0,1-.167,6.7A5.987,5.987,0,0,1,720.083,108.46Zm49.86-28.531c0,.056-.223.168-.614.279a7.317,7.317,0,0,1-1.954.279,13.624,13.624,0,0,1-1.452-.056c-.279-.056-.558-.056-.837-.112a4.651,4.651,0,0,1-.838-.223,14.652,14.652,0,0,1-3.8-1.675,23.582,23.582,0,0,1-7.426-7.593c-2.178-3.35-3.908-7.314-6.2-11.111a25.421,25.421,0,0,0-3.853-5.025,19.841,19.841,0,0,0-4.746-3.462,22.079,22.079,0,0,0-9.659-2.457,22.945,22.945,0,0,0-6.756.893,10.066,10.066,0,0,1-1.061.279c-.279.112-.558.168-.782.279-.391.112-.67.167-.67.112s.167-.223.5-.447c.168-.112.447-.279.726-.447A8.86,8.86,0,0,1,721.535,49a19.438,19.438,0,0,1,6.979-1.508A22,22,0,0,1,738.9,49.723a19.216,19.216,0,0,1,5.193,3.685,28.214,28.214,0,0,1,4.188,5.36c2.4,3.964,4.076,7.928,6.086,11.167a23.751,23.751,0,0,0,6.7,7.426,16.763,16.763,0,0,0,3.406,1.787c.279.112.5.167.782.279.279.056.5.112.726.167a12.459,12.459,0,0,0,1.284.223,11.081,11.081,0,0,0,1.843.056C769.664,79.817,769.887,79.873,769.943,79.929Zm-35.176,36.851c.112.223-.726.838-2.178,1.508a16.01,16.01,0,0,1-2.68,1.005,12.054,12.054,0,0,1-3.573.447,8.107,8.107,0,0,1-5.974-2.792,3.693,3.693,0,0,1-.893-1.843c-.112-.447-.056-.726.056-.782.279-.112.67.837,1.787,1.731a9.009,9.009,0,0,0,5.081,1.9,23.242,23.242,0,0,0,5.751-.838C733.651,116.724,734.656,116.556,734.768,116.779Zm38.3-25.74c-.112.112-.614-.335-1.787-.5a10.357,10.357,0,0,0-4.858,1.117c-4.132,1.731-9.827,3.964-15.913,6.979-3.015,1.508-5.807,3.071-8.319,4.634-2.457,1.563-4.578,3.127-6.309,4.467-3.462,2.792-5.3,4.8-5.528,4.578-.167-.112,1.4-2.457,4.69-5.583a54.441,54.441,0,0,1,6.253-4.913,68.965,68.965,0,0,1,8.375-4.858,128.988,128.988,0,0,1,16.248-6.588,9.932,9.932,0,0,1,5.472-.614,2.913,2.913,0,0,1,1.34.726C773.014,90.817,773.126,90.984,773.07,91.04Z" transform="translate(-477.683 -40.15)" stroke="#000" stroke-miterlimit="10" stroke-width="1"/>
      <path id="Path_1199" data-name="Path 1199" d="M797.615,131.709c-.056-.112.112-.391.558-.893a13.313,13.313,0,0,1,2.122-1.675c.949-.614,2.066-1.284,3.294-2.066a13.117,13.117,0,0,0,1.787-1.284,6.937,6.937,0,0,0,1.508-1.619A5.643,5.643,0,0,0,808,120.318a7.906,7.906,0,0,0-1.061-3.294,6.828,6.828,0,0,0-1.563-1.843c-.447-.391-.726-.614-.67-.726,0-.056.112-.056.279-.056a2.186,2.186,0,0,1,.726.168,5.057,5.057,0,0,1,2.233,1.675,7.479,7.479,0,0,1,1.731,3.853,8.017,8.017,0,0,1-.112,2.568l-.167.67c-.112.223-.167.447-.279.67a14.136,14.136,0,0,1-.726,1.228,10.538,10.538,0,0,1-1.9,1.954,13.977,13.977,0,0,1-2.01,1.34c-1.34.726-2.513,1.284-3.518,1.731s-1.787.837-2.345,1.117C798.006,131.653,797.671,131.82,797.615,131.709Zm-18.537,5.583c.056-.056.5.112,1.005.726a5.85,5.85,0,0,1,1.173,3.183,8.74,8.74,0,0,1-1.117,4.913,13.318,13.318,0,0,1-1.675,2.4,11.618,11.618,0,0,1-1.172,1.173,5.562,5.562,0,0,1-1.619.893,2.935,2.935,0,0,1-2.066-.056,3.551,3.551,0,0,1-1.508-1.34,4.561,4.561,0,0,1-.614-1.563,13.051,13.051,0,0,1-.223-1.452,12.169,12.169,0,0,1,.558-4.913,9.115,9.115,0,0,1,1.563-2.9c.5-.614.838-.838.949-.782.223.168-.726,1.563-1.284,4.02a12.293,12.293,0,0,0-.167,4.355,7.293,7.293,0,0,0,.67,2.289,1.256,1.256,0,0,0,1.508.558,4.527,4.527,0,0,0,1.005-.558c.335-.279.614-.558.949-.893a16.762,16.762,0,0,0,1.563-2.066,8.215,8.215,0,0,0,1.284-4.02,6.339,6.339,0,0,0-.5-2.848C779.19,137.739,778.966,137.4,779.078,137.292Z" transform="translate(-507.197 -69.708)" stroke="#000" stroke-miterlimit="10" stroke-width="1"/>
      <ellipse id="Ellipse_242" data-name="Ellipse 242" cx="6.812" cy="0.893" rx="6.812" ry="0.893" transform="matrix(-0.961, 0.276, -0.276, -0.961, 233.112, 72.79)" stroke="#000" stroke-miterlimit="10" stroke-width="1"/>
      <ellipse id="Ellipse_243" data-name="Ellipse 243" cx="6.365" cy="0.893" rx="6.365" ry="0.893" transform="translate(232.965 82.615) rotate(138.973)" stroke="#000" stroke-miterlimit="10" stroke-width="1"/>
      <ellipse id="Ellipse_244" data-name="Ellipse 244" cx="5.974" cy="0.893" rx="5.974" ry="0.893" transform="matrix(-0.527, 0.85, -0.85, -0.527, 241.728, 87.173)" stroke="#000" stroke-miterlimit="10" stroke-width="1"/>
      <path id="Path_1200" data-name="Path 1200" d="M744.584,131.811c-.5.112-1.284-1.34-1.4-3.294s.447-3.518.949-3.462.726,1.563.838,3.35C745.087,130.136,745.087,131.644,744.584,131.811Zm20.938-89.726c-.223.168-1.061-.67-2.457-1.787a3.912,3.912,0,0,1-.558-.447c-.223-.167-.391-.279-.614-.447-.447-.335-.949-.558-1.452-.893a25.639,25.639,0,0,0-3.518-1.563,20.1,20.1,0,0,0-3.741-.893c-.614-.056-1.172-.168-1.675-.168-.279,0-.5-.056-.782-.056H750c-1.787,0-2.959.167-3.015-.112-.056-.223,1.005-.838,2.9-1.173.223-.056.5-.056.782-.112a4.226,4.226,0,0,1,.838-.056c.558-.056,1.172,0,1.843,0a16.466,16.466,0,0,1,4.132.838,21.809,21.809,0,0,1,3.8,1.843,10.937,10.937,0,0,1,1.452,1.117,6.1,6.1,0,0,1,.614.558,5.269,5.269,0,0,0,.558.558C765.243,40.857,765.69,41.974,765.522,42.085Zm7.705-.893c-.447.223-1.731-1.452-3.685-3.127-1.9-1.675-3.741-2.736-3.573-3.238.112-.223.726-.279,1.619,0a9.611,9.611,0,0,1,3.182,1.843,8.811,8.811,0,0,1,2.233,2.9C773.395,40.466,773.451,41.08,773.227,41.192ZM798.3,52.3c.447.223-.5,2.568-2.457,4.913-1.954,2.289-4.132,3.573-4.467,3.183s1.228-2.178,3.071-4.355S797.85,52.08,798.3,52.3Z" transform="translate(-494.814 -34.356)" stroke="#000" stroke-miterlimit="10" stroke-width="1"/>
      <ellipse id="Ellipse_245" data-name="Ellipse 245" cx="6.7" cy="0.893" rx="6.7" ry="0.893" transform="matrix(0.865, -0.501, 0.501, 0.865, 303.089, 29.795)" stroke="#000" stroke-miterlimit="10" stroke-width="1"/>
      <path id="Path_1201" data-name="Path 1201" d="M870.613,105.49c.056.5-3.629,1.228-8.1,2.01-4.523.782-8.152,1.4-8.319.893-.112-.447,3.406-1.9,7.984-2.68C866.816,104.876,870.613,104.988,870.613,105.49Z" transform="translate(-543.847 -65.6)" stroke="#000" stroke-miterlimit="10" stroke-width="1"/>
      <path id="Path_1202" data-name="Path 1202" d="M1170.756,223.929c-26.075-1.4-47.236-1.452-61.473-1.34-28.922.279-42.546,1.731-66.164,0a340.772,340.772,0,0,1-46.789-6.7,10.81,10.81,0,0,1-12-.67,10.925,10.925,0,0,1-4.02-11.39c.391-13.959.447-28.7,0-44.109-.447-16.192-1.4-31.546-2.68-46.119A11.919,11.919,0,0,1,994.99,97.576c4.188,0,11.558.056,20.715,0,64.935-.223,97.431-.279,104.3-1.34,6.979-1.061,21.608-3.573,40.089,0a101.03,101.03,0,0,1,14.684,4.02c-.056,15.745-.223,31.77-.67,48.129q-.838,32.914-2.68,64.154Q1171.091,218.233,1170.756,223.929Z" transform="translate(-597.426 -60.868)" fill="#d1e0f7"/>
      <path id="Path_1203" data-name="Path 1203" d="M1002.089,141.708a8.354,8.354,0,0,1,9.548.782c3.406,3.127,3.015,9.213-.279,11.837a6.355,6.355,0,0,1-6.2,1.005C1001.7,153.88,999.744,148.184,1002.089,141.708Z" transform="translate(-608.713 -81.27)" fill="#0381ff"/>
      <path id="Path_1204" data-name="Path 1204" d="M968.87,223.137c-.447,0-.335-6.923-.67-18.09q-.084-2.094-.167-4.355c-.056-1.508-.167-3.127-.223-4.746-.112-3.294-.335-6.756-.558-10.441-.447-7.37-1.005-15.466-1.563-23.953s-1.005-16.639-1.284-24.065c-.112-3.685-.223-7.2-.223-10.5,0-1.675-.056-3.238,0-4.746,0-1.508.056-3.015.056-4.411,0-2.792.167-5.36.279-7.538.056-1.117.112-2.122.167-3.071.112-.949.168-1.843.223-2.624.335-3.127.558-4.858.782-4.8.447,0,.223,6.923.5,18.09.056,1.4.056,2.848.112,4.355s.112,3.127.167,4.746c.112,3.294.335,6.756.5,10.441.391,7.37.949,15.466,1.508,23.953s1.061,16.639,1.34,24.009c.112,3.685.279,7.2.279,10.5,0,1.675.056,3.238.056,4.746s0,3.015-.056,4.411c0,2.792-.112,5.36-.223,7.538-.056,1.117-.112,2.122-.167,3.127-.056.949-.167,1.843-.223,2.624C969.261,221.406,969.038,223.137,968.87,223.137Z" transform="translate(-592.412 -63.259)" stroke="#000" stroke-miterlimit="10" stroke-width="1.5"/>
      <path id="Path_1205" data-name="Path 1205" d="M1176.758,95.148a8.088,8.088,0,0,1-2.01.279,42.859,42.859,0,0,1-5.807-.112c-2.513-.223-5.583-.67-9.1-1.284s-7.538-1.452-11.949-2.01a101.46,101.46,0,0,0-14.629-.558q-3.936.084-8.208.168c-2.792.056-5.695.167-8.71.223-11.893.279-25.014.614-38.749.949-27.47.614-52.317,1.061-70.351,1.284-8.989.112-16.3.168-21.329.168-2.513,0-4.467,0-5.807-.056a13.682,13.682,0,0,1-2.01-.112,11.14,11.14,0,0,1,2.01-.223c1.34-.112,3.294-.168,5.807-.279,5.025-.223,12.339-.5,21.329-.782,17.979-.558,42.881-1.228,70.351-1.843,13.735-.279,26.8-.558,38.749-.782q4.439-.084,8.71-.168c2.848-.056,5.528-.112,8.208-.112a111.761,111.761,0,0,1,14.8.782c4.523.614,8.487,1.563,11.948,2.233,3.518.726,6.533,1.284,8.989,1.563C1173.967,95.2,1176.758,94.981,1176.758,95.148Z" transform="translate(-598.571 -58.887)" stroke="#000" stroke-miterlimit="10" stroke-width="1"/>
      <ellipse id="Ellipse_246" data-name="Ellipse 246" cx="58.179" cy="0.893" rx="58.179" ry="0.893" transform="translate(579.173 40.885) rotate(90.267)" stroke="#000" stroke-miterlimit="10" stroke-width="1"/>
      <path id="Path_1206" data-name="Path 1206" d="M1174.422,233.994a9.261,9.261,0,0,1-1.9.335c-1.284.168-3.127.335-5.528.558-4.8.391-11.781.838-20.435,1.005s-18.928.168-30.318-.167c-11.39-.279-23.953-.726-37.074-1.228-6.589-.223-13.009-.447-19.207-.893-6.2-.391-12.172-1.061-17.867-1.675-11.334-1.34-21.5-2.4-30.095-3.127s-15.578-1.173-20.38-1.508c-2.4-.167-4.3-.279-5.528-.391-1.284-.112-1.954-.168-1.954-.279a7.563,7.563,0,0,1,1.954-.112c1.284,0,3.127,0,5.583.056,4.8.112,11.837.391,20.435.949s18.872,1.452,30.206,2.736c5.7.614,11.614,1.228,17.755,1.563,6.2.391,12.619.614,19.151.837,13.177.5,25.684.949,37.074,1.34s21.664.558,30.262.558,15.578-.223,20.379-.447c2.4-.112,4.3-.167,5.528-.223A13.246,13.246,0,0,1,1174.422,233.994Zm-190.339-61.25c-.223,0-.726-2.792-1.228-7.426s-1.061-11-1.452-18.09-.5-13.456-.5-18.09.167-7.538.447-7.538c.5,0,1.117,11.446,1.9,25.516C984.027,161.242,984.641,172.688,984.083,172.744Z" transform="translate(-599.807 -72.888)" stroke="#000" stroke-miterlimit="10" stroke-width="1"/>
      <path id="Path_1207" data-name="Path 1207" d="M1063.486,116.847c0,.279-4.746.223-12.339.168H1037.8c-5.025.056-10.553.112-16.359.279s-11.334.391-16.359.67-9.548.5-13.344.726c-7.593.447-12.284.782-12.339.5a14.287,14.287,0,0,1,3.238-.67c2.122-.335,5.193-.726,8.933-1.117,3.8-.391,8.319-.782,13.344-1.173,5.025-.335,10.553-.614,16.359-.782s11.334-.223,16.415-.168c5.025.056,9.6.168,13.4.391,3.8.168,6.868.391,8.989.614C1062.37,116.568,1063.542,116.735,1063.486,116.847Zm.5,51.814c-.558-.056.279-11.39.167-25.4-.056-14.014-1-25.349-.5-25.4.223,0,.782,2.792,1.284,7.37s.949,10.944,1.005,17.979a177.626,177.626,0,0,1-.782,18.034C1064.771,165.869,1064.212,168.661,1063.989,168.661Z" transform="translate(-599.145 -70.089)" stroke="#000" stroke-miterlimit="10" stroke-width="1"/>
      <path id="Path_1208" data-name="Path 1208" d="M1067.276,182.552c0,.223-4.467.614-11.725.949s-17.309.726-28.364,1.005c-5.528.167-10.832.279-15.634.335s-9.157.167-12.786,0a66.121,66.121,0,0,1-8.6-.782c-2.01-.335-3.127-.67-3.071-.782.056-.279,4.467.447,11.725.335,3.629,0,7.928-.223,12.73-.391s10.05-.335,15.634-.447c11.055-.279,21.105-.447,28.364-.447C1062.81,182.162,1067.276,182.273,1067.276,182.552Zm-33.445-4.411c-.112-.112.558-.67,1.4-1.843a7.944,7.944,0,0,0,1.228-2.289.792.792,0,0,0,.112-.335c0-.056.056-.112.056-.167l.056-.167a.953.953,0,0,0,.056-.391c0-.112.056-.223.056-.391v-.167c-.056.056-.112.112-.167.112-.112.056-.168.112-.279.112-.056,0-.112.056-.167.056h-.447a2.251,2.251,0,0,1-1.228-.335,1.7,1.7,0,0,1-.447-.447,1.992,1.992,0,0,1-.223-.614,1.834,1.834,0,0,1,.056-.949,3.985,3.985,0,0,1,.391-.838c.223-.335.447-.67.67-1.061.447-.726.949-1.4,1.452-2.178q1.34-2.01,2.848-4.188a2.37,2.37,0,0,0,.279-.391h-.279l.447-.056c.279-.056.056,0,0,0h-.223c-1.228.112-2.457.223-3.629.335.558-.893,1.061-1.787,1.563-2.624.391-.614.726-1.228,1.117-1.787q.838-1.424,1.675-2.68c1.061-1.731,2.01-3.183,2.848-4.467,1.619-2.457,2.68-3.908,2.9-3.8.167.112-.558,1.731-1.9,4.355-.67,1.34-1.508,2.9-2.512,4.634-.5.893-1.005,1.787-1.564,2.792-.112.223-.279.5-.391.726l-.167.279-.056.112a1.4,1.4,0,0,1-.223.391l.279-.056h-.056l-.391.056h-.112l.5-.056c1.284-.112,2.568-.223,3.908-.391-.614.893-1.284,1.843-1.9,2.792-1.172,1.731-2.345,3.35-3.406,4.969-.5.726-1.005,1.452-1.507,2.122-.223.335-.5.67-.726,1.005a1.036,1.036,0,0,1-.167.223c0,.056-.056.112-.056.168a.369.369,0,0,0,.391.335h.223c.056,0,.112-.056.167-.056.112-.056.223-.056.335-.112l.335-.167c.5-.279,1.005-.558,1.563-.893a9.416,9.416,0,0,1-1.005,4.467,9.066,9.066,0,0,1-1.675,2.345C1034.725,177.974,1033.887,178.253,1033.832,178.142Z" transform="translate(-602.544 -83.924)" stroke="#000" stroke-miterlimit="10" stroke-width="1"/>
      <path id="Path_1209" data-name="Path 1209" d="M1097.8,175.2c-.167.056-.67-.67-1.619-1.954a52.537,52.537,0,0,0-4.132-5.025l-.949-.949,1.4-.335c.223-.056.447-.112.726-.167-.056-.056-.056-.167-.112-.223l-.056-.112v-.056l-.056-.223c-.223-.5-.447-1.061-.67-1.619-.447-1.117-.893-2.233-1.4-3.406l-.558-1.452,1.563.223h.279a.435.435,0,0,0,.391-.167l-.112-.168c-.112-.168-.223-.279-.335-.447-.726-.949-1.4-1.9-2.066-2.792-1.284-1.787-2.457-3.406-3.462-4.8-1.954-2.736-3.071-4.467-2.9-4.634s1.675,1.284,3.908,3.853c1.117,1.284,2.4,2.792,3.741,4.578.67.893,1.4,1.787,2.122,2.736l.279.391c.167.223.335.447.447.614.223.391.447.838.67,1.228a3.517,3.517,0,0,1-2.512,1.4h-.447a1.089,1.089,0,0,1-.391-.056l1.005-1.228c.447,1.173.893,2.345,1.34,3.406.558,1.452,1.061,2.792,1.563,4.132-.949.167-1.843.335-2.736.447l.447-1.284a27.421,27.421,0,0,1,3.8,5.583C1097.689,174.193,1097.968,175.086,1097.8,175.2Zm-3.741,1.731c.112.223-.893,1.005-2.736,1.787a26.072,26.072,0,0,1-3.35,1.117,23.944,23.944,0,0,1-4.3.67,27.632,27.632,0,0,1-4.355-.112,17.033,17.033,0,0,1-3.462-.726c-1.954-.558-3.015-1.228-2.959-1.452.167-.5,4.8.893,10.664.5C1089.37,178.38,1093.836,176.426,1094.06,176.928Z" transform="translate(-640.438 -84.051)" stroke="#000" stroke-miterlimit="10" stroke-width="1"/>
      <ellipse id="Ellipse_247" data-name="Ellipse 247" cx="1.787" cy="0.893" rx="1.787" ry="0.893" transform="translate(441.995 96.242) rotate(80.984)" stroke="#000" stroke-miterlimit="10" stroke-width="1"/>
      <ellipse id="Ellipse_248" data-name="Ellipse 248" cx="0.893" cy="1.34" rx="0.893" ry="1.34" transform="translate(446.419 95.948)" stroke="#000" stroke-miterlimit="10" stroke-width="1"/>
      <path id="Path_1210" data-name="Path 1210" d="M996.091,153.49c.112-.112.67.279,1.731.67a8.8,8.8,0,0,0,2.01.5,5.945,5.945,0,0,0,2.568-.335c1.787-.726,3.127-2.9,3.573-5.583a12.815,12.815,0,0,0,0-4.132,8.942,8.942,0,0,0-.67-2.066,6.6,6.6,0,0,0-1.173-1.787,4.992,4.992,0,0,0-1.675-1.228,4.76,4.76,0,0,0-1.954-.447,6.272,6.272,0,0,0-3.685,1.284,9.791,9.791,0,0,0-1.34,1.284,7.122,7.122,0,0,0-.893,1.508,8.254,8.254,0,0,0-.614,3.183,11.937,11.937,0,0,0,1.061,4.746c.5,1.061.838,1.675.726,1.731s-.614-.391-1.34-1.4a10.715,10.715,0,0,1-1.731-5.025,9.278,9.278,0,0,1,.5-3.8,7.135,7.135,0,0,1,1.061-1.9,9.172,9.172,0,0,1,1.619-1.675,8.114,8.114,0,0,1,4.69-1.731,6.693,6.693,0,0,1,4.969,2.178,10.147,10.147,0,0,1,1.508,2.289,11.056,11.056,0,0,1,.726,2.457,12.553,12.553,0,0,1-.112,4.8,11.777,11.777,0,0,1-1.675,4.02,6.067,6.067,0,0,1-3.071,2.4,6.306,6.306,0,0,1-3.182.168,8.062,8.062,0,0,1-2.178-.838C996.482,154.1,996.036,153.546,996.091,153.49Zm32.663,22c-.167.447-9.659-3.015-21.161-7.761a38.463,38.463,0,0,0-8.1-2.736,13.919,13.919,0,0,0-6.644.782,14.926,14.926,0,0,0-4.02,2.345c-.893.726-1.34,1.117-1.452,1.061s.167-.67.949-1.563a12.962,12.962,0,0,1,3.964-3.015,13.172,13.172,0,0,1,7.37-1.284c2.848.279,5.7,1.508,8.543,2.68C1019.765,170.8,1028.978,175.042,1028.754,175.489Z" transform="translate(-602.659 -79.82)" stroke="#000" stroke-miterlimit="10" stroke-width="1"/>
      <path id="Path_1211" data-name="Path 1211" d="M1056.771,184.7c0,.5-5.36.614-11.558,2.624-1.563.5-2.959,1.061-4.3,1.563a20.319,20.319,0,0,1-3.685,1.228,8.13,8.13,0,0,1-2.68.223c-.614-.056-.949-.223-.949-.335,0-.279,1.34-.279,3.294-1.061.949-.391,2.122-.949,3.406-1.563a32.908,32.908,0,0,1,4.411-1.787,28.106,28.106,0,0,1,8.543-1.4C1055.431,184.139,1056.771,184.474,1056.771,184.7Z" transform="translate(-623.083 -100.531)" stroke="#000" stroke-miterlimit="10" stroke-width="1"/>
      <ellipse id="Ellipse_249" data-name="Ellipse 249" cx="43.327" cy="0.893" rx="43.327" ry="0.893" transform="translate(477.965 61.946) rotate(-0.144)" stroke="#000" stroke-miterlimit="10" stroke-width="1"/>
      <path id="Path_1212" data-name="Path 1212" d="M1166.369,138.3c-.056.5-2.792.558-6.142.447-3.35-.056-6.086-.223-6.142-.726s2.68-1.173,6.142-1.061C1163.689,137.021,1166.425,137.8,1166.369,138.3Zm-10.943-21.887-.056-.056c0-.056,0-.112.112-.168a.268.268,0,0,1,.335.112c.056.056.112.168.168.223a.6.6,0,0,1,0,.447.441.441,0,0,1-.335.279h-.223a.775.775,0,0,1-.558-.279.855.855,0,0,1-.279-.391c-.056-.112-.112-.279-.168-.391s-.056-.223-.112-.335c-.056-.223-.112-.447-.167-.726a13.086,13.086,0,0,1-.279-1.675c-.335-2.345-.168-4.3.335-4.411.5-.056,1.172,1.787,1.452,4.132q.084.921.168,1.675v1.284l-.056.056c-.279.223-.279.279-.335.223h0c-.056.335.056.112,0,.167h0l.056.056h-.056c-.056-.056-.223-.056-.167-.056s0,0,.112-.056.112-.112.112-.112C1155.593,116.529,1155.481,116.418,1155.425,116.418Zm78-2.624c-.112,0-.279-.614-.614-1.787q-.251-.921-.5-2.178c-.112-.447-.223-.893-.335-1.4l-.167-.67c-.056-.168-.056-.279-.112-.447-.112,0-.279.056-.447.056-.223,0-.391.056-.614.056-.5.056-1.061.056-1.619.112-1.117.056-2.289.167-3.573.223-2.513.167-5.3.335-8.375.447-6.086.279-13.009.558-20.435.726-11.781.279-22.39.223-30.095.056-3.853-.056-6.979-.223-9.1-.335a11.627,11.627,0,0,1-3.35-.391c0-.279,4.746-.447,12.451-.558,7.705-.167,18.314-.335,30.095-.614,14.964-.391,28.2-.67,35.9-.893q.168,1.089.335,2.01a10.409,10.409,0,0,0,.223,1.4c.112.893.223,1.619.279,2.233C1233.482,113.123,1233.537,113.793,1233.426,113.793Z" transform="translate(-676.12 -66.086)" stroke="#000" stroke-miterlimit="10" stroke-width="1"/>
      <path id="Path_1213" data-name="Path 1213" d="M1232.418,121.507c0,.223-4.188.67-10.943,1.061s-16.136.782-26.465,1.005-19.709.168-26.466.056-10.943-.391-10.943-.614c0-.279,4.188-.447,10.943-.67s16.136-.391,26.466-.614,19.654-.391,26.465-.447C1228.23,121.228,1232.418,121.284,1232.418,121.507Z" transform="translate(-677.848 -72.739)" stroke="#000" stroke-miterlimit="10" stroke-width="1"/>
      <ellipse id="Ellipse_250" data-name="Ellipse 250" cx="45.505" cy="0.893" rx="45.505" ry="0.893" transform="translate(472.661 78.692)" stroke="#000" stroke-miterlimit="10" stroke-width="1"/>
      <path id="Path_1214" data-name="Path 1214" d="M1235.359,161.654c0,.279-3.238.5-8.487.726s-12.507.391-20.547.5-15.3.056-20.547-.056c-1.284-.056-2.513-.056-3.573-.112a15.064,15.064,0,0,1-2.736-.5c-1.452-.5-2.066-1.117-2.01-1.228s.782.279,2.178.5a16.45,16.45,0,0,0,2.568.167c1.005,0,2.178-.112,3.518-.112,5.248-.223,12.507-.391,20.547-.5s15.3-.056,20.547.056S1235.359,161.375,1235.359,161.654Zm3.518,17.141a15.226,15.226,0,0,1-3.741.558c-2.4.279-5.918.558-10.218.838-8.6.558-20.547,1.005-33.78,1.061-13.177,0-25.125-.391-33.78-.893-4.3-.279-7.817-.5-10.218-.782a15.225,15.225,0,0,1-3.741-.558,16.506,16.506,0,0,1,3.741-.168c2.4,0,5.918.112,10.218.168,8.654.168,20.547.391,33.724.391,13.177-.056,25.07-.279,33.724-.558,4.3-.112,7.817-.223,10.218-.223A17.2,17.2,0,0,1,1238.877,178.8Zm-84.533,8.989c0,.5-2.4.893-5.36.558s-5.248-1.228-5.137-1.675c.112-.5,2.457-.447,5.3-.112C1152.054,186.836,1154.344,187.282,1154.344,187.785Z" transform="translate(-671.577 -90.273)" stroke="#000" stroke-miterlimit="10" stroke-width="1"/>
      <ellipse id="Ellipse_251" data-name="Ellipse 251" cx="21.664" cy="0.893" rx="21.664" ry="0.893" transform="translate(493.764 96.685) rotate(-1.198)" stroke="#000" stroke-miterlimit="10" stroke-width="1"/>
      <ellipse id="Ellipse_252" data-name="Ellipse 252" cx="8.766" cy="0.893" rx="8.766" ry="0.893" transform="matrix(0.998, -0.056, 0.056, 0.998, 554.129, 94.984)" stroke="#000" stroke-miterlimit="10" stroke-width="1"/>
      <path id="Path_1215" data-name="Path 1215" d="M1162.98,230.282a6.346,6.346,0,0,1-1.786.112c-1.172,0-2.9,0-5.137.056-4.467.056-10.888.279-18.872.726-7.984.5-17.476,1.173-28.029,1.563-10.553.447-22.166.782-34.338.838-24.4.167-46.454-.67-62.423-1.675-7.984-.5-14.405-1.005-18.872-1.452-2.233-.223-3.964-.391-5.137-.558s-1.787-.223-1.787-.335a8.775,8.775,0,0,1,1.787-.056c1.172,0,2.9.112,5.137.223,4.467.223,10.888.5,18.872.838,15.969.67,37.967,1.284,62.311,1.117,12.172-.056,23.785-.335,34.282-.726,10.553-.335,20.045-.838,28.029-1.173s14.461-.335,18.928-.168c2.233.112,3.964.223,5.137.335A8.244,8.244,0,0,1,1162.98,230.282Zm-116.47,10.329c0,.279-3.406.223-8.822,0s-12.9-.558-21.161-.893-15.745-.67-21.161-.893c-5.416-.279-8.766-.5-8.766-.726s3.35-.447,8.822-.558c5.416-.056,12.953,0,21.217.335s15.8.893,21.161,1.452C1043.216,239.829,1046.566,240.332,1046.51,240.611Zm103.74,11.5a46.354,46.354,0,0,1-6.2.335c-4.02.112-9.771.167-16.918.167-14.293.056-34.059-.112-55.834-.558-21.831-.5-41.541-1.228-55.834-1.9-7.147-.335-12.9-.67-16.918-.949a44.6,44.6,0,0,1-6.2-.614,41.372,41.372,0,0,1,6.2-.112c4.02.056,9.771.168,16.918.335,14.294.335,34,.838,55.834,1.34,21.776.447,41.541.838,55.834,1.117,7.147.112,12.953.279,16.918.391A42.282,42.282,0,0,1,1150.25,252.113Zm16.248-9.827a17.618,17.618,0,0,1-3.853.168c-2.457,0-6.03-.056-10.385-.112-8.766-.167-20.938-.335-34.338-.335s-25.516.112-34.338.223c-4.411.056-7.928.112-10.385.112a18.051,18.051,0,0,1-3.853-.168,17.851,17.851,0,0,1,3.8-.5c2.457-.223,6.03-.447,10.385-.67,8.766-.447,20.938-.782,34.338-.782s25.572.391,34.338.893c4.411.223,7.928.447,10.385.67A18.271,18.271,0,0,1,1166.5,242.286Z" transform="translate(-602.325 -120.543)" stroke="#000" stroke-miterlimit="10" stroke-width="1"/>
      <path id="Path_1216" data-name="Path 1216" d="M1144.688,502.906q-48.073-11.055-96.2-22.11c-3.462-.949-6.923-1.9-10.385-2.9.949-2.513,1.9-5.025,2.9-7.538,1.9-13.289,3.853-26.577,5.751-39.866,0-.447-.223-5.193,3.462-8.1a9.71,9.71,0,0,1,11.558,0c17.532,4.411,35.064,8.878,52.6,13.289,13.456,2.122,26.968,4.243,40.424,6.365-.949,3.853-1.9,7.705-2.9,11.558-2.289,14.238-4.635,28.475-6.924,42.769C1144.855,498.551,1144.8,500.728,1144.688,502.906Z" transform="translate(-625.07 -204.894)" fill="#90b2e7"/>
      <path id="Path_1217" data-name="Path 1217" d="M1180.11,521.4a17.65,17.65,0,0,0-1.061,8.989c.447,3.015,1.061,3.964,1.452,4.3,1.005,1,2.178,1.117,5.751,1.4,4.69.391,7.035.558,7.538.391,4.076-1.508,6.812-7.705,5.025-10.776-.558-.949-1.563-1.563-8.989-2.9C1185.917,522.182,1182.622,521.735,1180.11,521.4Z" transform="translate(-687.237 -249.463)" fill="#0381ff"/>
      <path id="Path_1218" data-name="Path 1218" d="M1038.246,478.15c-.279-.056.335-3.462,1.172-8.989.447-2.736.949-6.03,1.452-9.659s1.005-7.649,1.452-11.893.781-8.263,1.061-11.893c.279-3.685.447-6.979.558-9.771.279-5.583.447-8.989.67-9.045.223,0,.558,3.462.614,9.045.056,2.792-.056,6.142-.223,9.827s-.447,7.761-.893,12-1.005,8.263-1.619,11.948c-.614,3.629-1.228,6.923-1.843,9.659C1039.474,474.912,1038.469,478.206,1038.246,478.15Z" transform="translate(-625.104 -203.309)" stroke="#000" stroke-miterlimit="10" stroke-width="1"/>
      <ellipse id="Ellipse_253" data-name="Ellipse 253" cx="59.631" cy="0.893" rx="59.631" ry="0.893" transform="matrix(0.977, 0.214, -0.214, 0.977, 420.645, 211.004)" stroke="#000" stroke-miterlimit="10" stroke-width="1"/>
      <path id="Path_1219" data-name="Path 1219" d="M1138.831,551.115a18.065,18.065,0,0,1-3.853-.279c-1.228-.167-2.736-.335-4.523-.614-1.731-.279-3.741-.558-5.918-.893-4.411-.726-9.6-1.619-15.41-2.736-5.751-1.117-12.116-2.457-18.7-4.02s-12.9-3.182-18.537-4.69c-5.7-1.563-10.776-3.015-15.02-4.355q-3.183-1-5.7-1.843c-1.675-.558-3.127-1.061-4.3-1.452-2.345-.837-3.629-1.34-3.573-1.452a16.408,16.408,0,0,1,3.8.782c2.4.67,5.863,1.563,10.162,2.736s9.38,2.513,15.075,3.964,11.948,3.015,18.537,4.578,12.9,2.9,18.649,4.132,10.943,2.289,15.3,3.127c4.355.893,7.873,1.563,10.329,2.066A18.35,18.35,0,0,1,1138.831,551.115Z" transform="translate(-627.365 -252.712)" stroke="#000" stroke-miterlimit="10" stroke-width="1"/>
      <ellipse id="Ellipse_254" data-name="Ellipse 254" cx="29.592" cy="0.893" rx="29.592" ry="0.893" transform="matrix(-0.203, 0.979, -0.979, -0.203, 536.53, 242.273)" stroke="#000" stroke-miterlimit="10" stroke-width="1"/>
      <path id="Path_1220" data-name="Path 1220" d="M1090.215,476.209c-.223.112-1.954-2.9-4.8-7.649-1.4-2.4-3.183-5.193-5.137-8.263-2.01-3.071-4.243-6.421-6.7-9.883s-4.913-6.644-7.147-9.548c-2.289-2.848-4.355-5.416-6.142-7.538-3.573-4.243-5.863-6.812-5.7-7.035.168-.168,2.792,2.122,6.644,6.142,1.954,2.01,4.132,4.523,6.533,7.37,2.345,2.848,4.858,6.086,7.314,9.548s4.69,6.868,6.644,10.05c1.9,3.183,3.573,6.086,4.857,8.543C1089.155,472.859,1090.439,476.1,1090.215,476.209Zm68.955-26.3c.056.223-3.685,1.675-9.771,3.853s-14.517,5.193-23.785,8.6-17.644,6.588-23.674,8.878-9.827,3.685-9.939,3.406c-.112-.223,3.518-2.01,9.436-4.634s14.238-5.974,23.562-9.38c9.269-3.406,17.811-6.2,24.009-8.1C1155.151,450.693,1159.059,449.688,1159.171,449.911Zm-39.028,43.83c-.5,0-.949-3.406-.223-7.482.726-4.132,2.345-7.147,2.792-6.979.5.167-.279,3.35-1.005,7.258C1121.036,490.5,1120.7,493.741,1120.143,493.741ZM1147,484.528c-.168.5-5.3-.949-11.614-2.513-6.309-1.619-11.5-2.792-11.39-3.294.056-.5,5.416-.112,11.837,1.508S1147.166,484.082,1147,484.528Zm-3.853,10.72c0,.5-4.969.558-10.943-.391-5.974-1.005-10.665-2.68-10.5-3.127.112-.5,4.913.391,10.832,1.34C1138.4,494.02,1143.2,494.746,1143.146,495.248Z" transform="translate(-632.35 -207.454)" stroke="#000" stroke-miterlimit="10" stroke-width="1"/>
      <ellipse id="Ellipse_255" data-name="Ellipse 255" cx="6.198" cy="0.893" rx="6.198" ry="0.893" transform="matrix(-0.364, 0.931, -0.931, -0.364, 513.941, 277.432)" stroke="#000" stroke-miterlimit="10" stroke-width="1"/>
      <path id="Path_1221" data-name="Path 1221" d="M1021.409,474.536c-.5-.167.838-5.639,1.9-12.507s1.452-12.507,1.954-12.507.949,5.751-.167,12.786C1024.033,469.343,1021.856,474.7,1021.409,474.536Zm-5.025-1.005c-.5-.223.391-3.238,1.061-7.035s.949-6.979,1.452-6.979c.223,0,.5.782.614,2.122a21.838,21.838,0,0,1-.279,5.193,20.282,20.282,0,0,1-1.508,4.969C1017.165,472.972,1016.607,473.642,1016.384,473.531Zm60.636-64.656c-.168.5-9.213-1.843-20.547-4.02s-20.6-3.35-20.547-3.908c.056-.5,9.492-.112,20.882,2.122C1068.254,405.245,1077.131,408.428,1077.02,408.875Z" transform="translate(-615.414 -196.177)" stroke="#000" stroke-miterlimit="10" stroke-width="1"/>
      <ellipse id="Ellipse_256" data-name="Ellipse 256" cx="15.634" cy="0.893" rx="15.634" ry="0.893" transform="matrix(0.962, 0.272, -0.272, 0.962, 442.8, 202.288)" stroke="#000" stroke-miterlimit="10" stroke-width="1"/>
      <path id="Path_1222" data-name="Path 1222" d="M1063.766,720.211c-2.9-5.863-5.863-11.725-8.766-17.532a32.246,32.246,0,0,1,6.365-5.025c4.243-2.568,6.253-2.345,7.426-4.523.67-1.228.614-2.289-.558-9.324-1.172-7.258-1.619-9.1-1.061-9.324.838-.335,3.238,3.294,6.142,7.705.782,1.172,1.4,2.233,1.842,2.9a23.936,23.936,0,0,1,10.888-2.68c2.847,0,4.8.056,6.644,1.34.893.614,2.01,1.731,4.522,13.568.726,3.406.893,4.467.558,5.863-.223.949-1.061,3.629-5.583,6.644-6.979,4.69-15.41,5.3-19.654,5.3C1069.573,716.861,1066.669,718.536,1063.766,720.211Z" transform="translate(-632.534 -317.063)" fill="#0381ff"/>
      <path id="Path_1223" data-name="Path 1223" d="M1054.909,737.491c-.5.223-2.848-4.132-6.086-9.268s-6.142-9.157-5.751-9.492c.335-.335,3.964,3.238,7.258,8.487C1053.681,732.521,1055.355,737.323,1054.909,737.491Zm12.06-4.858c-.223.112-1.061-1.675-2.568-4.411-.726-1.34-1.619-2.959-2.736-4.69a37.135,37.135,0,0,0-3.853-5.248,9.159,9.159,0,0,0-5.137-3.182,8.184,8.184,0,0,0-4.858.837,36.076,36.076,0,0,0-3.182,1.731c-.782.447-1.228.67-1.284.558s.223-.5.837-1.117a17.989,17.989,0,0,1,3.015-2.289,9.46,9.46,0,0,1,2.512-1.061,7.69,7.69,0,0,1,3.239-.223,8.411,8.411,0,0,1,3.35,1.228,11.63,11.63,0,0,1,2.848,2.4,26.28,26.28,0,0,1,2.233,2.848c.614.949,1.228,1.9,1.731,2.792a44.822,44.822,0,0,1,2.457,4.969C1066.8,730.623,1067.192,732.577,1066.969,732.633Z" transform="translate(-627.25 -334.287)" stroke="#000" stroke-miterlimit="10" stroke-width="1"/>
      <path id="Path_1224" data-name="Path 1224" d="M1074.676,715.7c.167.223-.279.837-1.284,1.563a13.052,13.052,0,0,1-4.243,2.066,13.431,13.431,0,0,1-4.69.5c-1.228-.112-1.9-.391-1.9-.67.056-.5,2.848-.614,6.086-1.619C1071.884,716.651,1074.341,715.255,1074.676,715.7Zm-2.959-24.9c.056.5-2.289,1.117-4.969,2.233-2.68,1.061-4.746,2.289-5.081,1.9-.168-.167.168-.782.949-1.452a11.548,11.548,0,0,1,3.462-2.122,10.707,10.707,0,0,1,3.908-.893C1071.047,690.409,1071.661,690.576,1071.717,690.8Zm-3.127-18.2c.5.168-.335,3.629-.112,7.928s1.452,7.649.949,7.873c-.223.112-.837-.614-1.452-2.01a18.169,18.169,0,0,1-1.34-5.751,17.626,17.626,0,0,1,.67-5.863C1067.808,673.324,1068.367,672.542,1068.59,672.6ZM1078.7,687c-.5.168-1.9-3.294-4.411-6.923-2.513-3.685-5.193-6.253-4.858-6.644.168-.167,1.061.223,2.289,1.173a20.39,20.39,0,0,1,4.076,4.467,20.946,20.946,0,0,1,2.68,5.416C1078.864,685.942,1078.919,686.891,1078.7,687Z" transform="translate(-635.46 -316.239)" stroke="#000" stroke-miterlimit="10" stroke-width="1"/>
      <path id="Path_1225" data-name="Path 1225" d="M1110.021,686.9c-.112.056-.335-.167-.726-.279a4.427,4.427,0,0,0-1.9.056c-1.787.447-4.355.949-7.2,1.4-1.4.223-2.792.391-3.964.614a15.618,15.618,0,0,0-3.015.782c-1.675.614-2.512,1.4-2.736,1.172-.112-.056,0-.391.335-.837a6.408,6.408,0,0,1,1.787-1.508,12.233,12.233,0,0,1,3.238-1.228,39.5,39.5,0,0,1,4.02-.782c2.848-.447,5.36-.782,7.314-.893a3.583,3.583,0,0,1,2.457.614,1.113,1.113,0,0,1,.391.614C1110.132,686.789,1110.077,686.9,1110.021,686.9Zm3.8,24.176c-.223-.112.279-1.4.614-3.462a20.271,20.271,0,0,0-.558-8.152,42.819,42.819,0,0,0-3.127-7.761c-.949-1.954-1.507-3.238-1.34-3.35.223-.112,1.172.893,2.4,2.68a28.389,28.389,0,0,1,3.8,7.928,15.905,15.905,0,0,1,.056,8.878C1114.99,710.128,1113.985,711.189,1113.817,711.077Zm-2.289.558c.167.167-.614,1.284-2.289,2.736a25.824,25.824,0,0,1-3.071,2.289,29.281,29.281,0,0,1-4.188,2.178,35.11,35.11,0,0,1-4.467,1.508,28.834,28.834,0,0,1-3.8.67c-2.178.167-3.518,0-3.518-.223-.056-.558,5.248-1.061,11.111-3.573S1111.137,711.245,1111.528,711.635Z" transform="translate(-648.08 -321.888)" stroke="#000" stroke-miterlimit="10" stroke-width="1"/>
      <ellipse id="Ellipse_257" data-name="Ellipse 257" cx="4.076" cy="0.893" rx="4.076" ry="0.893" transform="matrix(0.539, 0.842, -0.842, 0.539, 413.537, 358.906)" stroke="#000" stroke-miterlimit="10" stroke-width="1"/>
      <ellipse id="Ellipse_258" data-name="Ellipse 258" cx="0.893" cy="2.568" rx="0.893" ry="2.568" transform="translate(420.456 363.003)" stroke="#000" stroke-miterlimit="10" stroke-width="1"/>
    </g>
  </g>
</svg>