<svg xmlns="http://www.w3.org/2000/svg" width="501.833" height="391.87" viewBox="0 0 501.833 391.87">
  <g id="Character_unboxing" data-name="Character/unboxing" transform="translate(-95 -59)">
    <path id="Accent" d="M303.253,378.884q4.285,32.139,8.57,64.277l2.307,17.3c.291,2.183.016,6.49,1.126,8.445.392.689,1.422,1.017,2.179,1.423l7.82,4.2,66.15,35.516,63.485,34.084c2.19,1.176,5.732,4.244,8.1,3.436,2.247-.768,4.544-2.663,6.584-3.858l11.749-6.885,71.092-41.664,29.331-17.19,8.026-4.7c1.4-.82,1.581-.791,2.132-2.183,2.059-5.2,3.012-11.163,4.469-16.562l4.816-17.848c.716-2.655.38-3-.788-5.56L593.467,415.9q-7.692-16.885-15.385-33.771c-2.074-4.552-7.069-7.755-10.665-11.1l-55.838-51.986-4.255-3.962c-.234,7.936-1.8,16.468.5,24.135q5.663,18.873,11.324,37.746,2.737,9.123,5.473,18.244c.339,1.13,2.4,5.61,1.851,6.6-.306.551-2.912,1.108-3.477,1.323l-7.277,2.768-20.274,7.713-18.235,6.937c-2.061.784-4.482,2.236-6.659,2.115-1.947-.108-4.161-1.072-6.046-1.557l-9.939-2.56-19.523-5.028c-7.321-1.886-13.5-7.425-19.765-11.524l-32.286-21.14c-2.464-1.613-2.473-2.534-3.455-5.479l-6.619-19.858c-1.178-3.534-2.627-7.083-3.517-10.7-1.468-5.972-2.338-12.153-3.5-18.191l-1.052-5.465-13.522,5.488c-.653.265-3.836,1.055-4.119,1.7-.179.411.768,2.274.9,2.674q5.606,16.6,11.212,33.2l3.526,10.445-8.428-13.244L347.8,383.7,332.148,365.64,326.73,383.7l-16.855-22.273q-1,5.811-2,11.623c-.2,1.17-.161,4.524-.94,5.45-.641.762-2.487.384-3.678.384" transform="translate(-82.889 -101.923)" fill="#0381ff" fill-rule="evenodd"/>
    <g id="Ink" transform="translate(95 59)">
      <path id="ink-shape" d="M481.095,265.417c-.316,10.086-.1,23.178-5.617,32.046-.891,1.431-3.909,5.889-4.246,1.967-.33-3.85.617-7.663-.321-11.558-.5-2.084-2.191-6.636-5.077-4.754-1.471.96-1.858,3.328-2.434,4.824-.851,2.212-1.8,4.39-2.7,6.585-3.13,7.664-6.374,16.81-13.332,21.881.911-6.609,3.393-13.665,1.724-20.345-.568-2.277-2.291-6.434-5.257-5.1-2.891,1.3-4.764,7.1-6.128,9.682-4.136,7.83-8.366,15.512-13.023,23.05a63.834,63.834,0,0,1-7.937,10.5c-1.916,2.029-4.305,5.457-7.326,5.759,0-5.781,1.9-11.366,3.639-16.81,1.868-5.854,3.571-11.757,5.4-17.622a153.269,153.269,0,0,0,3.955-15.352c.439-2.157.786-4.391,2.625-5.785,1.653-1.252,4.264-1.848,6.108-2.768a132.079,132.079,0,0,0,14.314-8.033c1.846-1.234,3.435-2.828,5.368-3.935a56.661,56.661,0,0,0,6.3-3.859c8.793-6.632,16.719-14.79,22.06-24.5.867,3.9,2.016,7.714,2.143,11.736.129,4.124-.109,8.273-.238,12.394m-72.363,46.358c-1.406-2.375-3.549-1.4-5.437-.257q-4.394,2.665-8.811,5.294c-5.992,3.57-11.872,7.326-17.726,11.116-11.916,7.713-24.248,14.026-36.81,20.555-12.142,6.309-23.8,13.818-35.18,21.408-2.734,1.824-5.449,3.691-8.074,5.669-2.33,1.756-4.194,4.222-6.647,5.785-2.555,1.628-4.311.307-6.754-.893-3.056-1.5-6.24-2.759-9.364-4.113-12.6-5.465-25.246-11.137-37.508-17.34-12.188-6.164-23.736-13.268-35.413-20.322-5.562-3.36-11.028-6.932-16.514-10.415-5.838-3.706-11.882-6.483-18.006-9.634-2.71-1.395-5.11-3.288-7.893-4.556-2.926-1.332-6.016-2.288-8.636-4.21a20.488,20.488,0,0,0-3.508-2.5c-1.1-.5-2.353-.585-3.442-1.116-2.214-1.081-2.848-3.275-3.277-5.558-2.758-14.65-4.223-29.707-5.822-44.52-.9-8.33-1.9-16.628-3.142-24.914-.56-3.736.566-6.63,1.157-10.264.69-4.245.963-8.578,1.425-12.852,2.182,4.042,4.068,8.283,6.844,11.972,2.046,2.718,5.541,6.572,9.309,6.482,5.856-.141,5.588-10.186,5.824-14.172,2.667,2.381,3.476,6.259,5.691,9.025,2.021,2.525,4.772,5.657,7.877,6.788,6.536,2.381,5.907-9.752,5.548-13.193-.181-1.726-1.155-4.456,1.157-3.67,2.129.725,4.2,3.729,5.991,5.107,3.094,2.383,6.487,4.363,9.661,6.637,3.938,2.822,8.186,4.862,12.2,7.49,2.511,1.644,5.25,2.013,7.987,3.222,4.01,1.772,7.553,4.412,11.37,6.536a128.386,128.386,0,0,0,24.213,10.508c2.675.82,6.24,3.132,8.269.756,1.25-1.462,2.071-3.694,3.132-5.333,1.342-2.074,2.767-4.094,4.246-6.073a140.775,140.775,0,0,1,17.58-19.6,146.1,146.1,0,0,1,24.611-18.279c3.79-2.222,19.616-12.18,23.095-5.172-2.859-.178-5.337.867-7.781,2.177-.6.32-3.673,2.517-2.953.58-.894.167-1.678,1.333-2.354,1.851a37.417,37.417,0,0,1-4.3,2.672c-1.339.733-2.993.912-4.213,1.8-.445.324-.716.851-1.141,1.2l-1.218.01-.547,2.024c-.689-2.207-1.671.663-2.821,1.6a12.919,12.919,0,0,1-2.6,1.5c-.609.27-.7-.358-1.294.12-.525.424-.86,1.359-1.424,1.891a22.859,22.859,0,0,1-2.352,1.714c-1.48,1.066-3.045,1.9-4.544,2.912-2.017,1.359-3.074,3.7-5.032,5.118-.928.673-2.368.752-2.87,1.183-1.259,1.082-.844,2.722-3.192,2.794a2.611,2.611,0,0,1,.386,1.113,3.082,3.082,0,0,1-1.492-.7c.1,2.342-2.205,3.178-3.585,4.62a16.783,16.783,0,0,0-2.348,3c-.093.167-.271,1.5-.31,1.52-.213.1-1.51-1.037-1.388-.942-.362,2.163-2.455,4.209-3.372,6.212-.483,1.055-.973,2.752-1.925,3.494-.259.2-1.055-.009-1.713.692a6.22,6.22,0,0,0-1.236,2.147c-.131.456.026,1.634-.161,1.908-.344.5-.88,0-1.419.367-1,.683-1.022,1.749-2.481,1.89,1.005,2.443,7.076,3.2,9.282,3.891,6.24,1.964,12.785,3.925,18.618,6.932,1.509.778,2.936,1.419,3.2,3.211.373,2.493-.9,5.809-1.141,8.328a178.971,178.971,0,0,0-.654,20.635c.13,6.47.339,13,.641,19.463.279,5.992,1.488,11.864,2.139,17.814.179,1.633.06,9,2.867,8.626,2.344-.309.864-5.339.82-6.781-.1-3.191.574-6.449.545-9.668-.013-1.548.663-2.881.728-4.362.064-1.463-.663-2.62-.445-4.137.209-1.456,4.512-9.828.38-8.847.242-1.2.454-2.4.774-3.583a4.737,4.737,0,0,1,1.067,1.391c.368-2.572.245-5.138.473-7.711a16.856,16.856,0,0,0,.414-3.618,3.784,3.784,0,0,0-.185-1.433,1.317,1.317,0,0,0-.943-.424,1.4,1.4,0,0,1,.1-1.452,1.179,1.179,0,0,1,.892-.8q1.271-.151.29-1.461a11.786,11.786,0,0,0,.139-4.533c-.207-1.445.554-4.244-.221-5.531-.906-1.5-1.356-.045-1.525-2.13a5.128,5.128,0,0,1,.113-1.8c.194-.479.779-.283.854-.453.507-1.159.541-3.44-1.255-3.242q.106-1.242.211-2.483c1.3,1.494.844.229,1.58-.6.991-1.118,1.96-1.311,3.377-1.754,3.775-1.177,7.412-2.949,11.1-4.387,7.811-3.044,15.768-5.762,23.35-9.36,15.948-7.568,31.58-15.78,47.626-23.148-1.146-2.127-.433-2.231.4-4.228,1.118.777.883.235,1.679.187q-.108-1,.621-.6a3.117,3.117,0,0,0,1.191.126c.993.17,1.8.717,2.708.925a3.257,3.257,0,0,0,.977.492,1.563,1.563,0,0,0,.816-.474c1.462.271,1.954,1.372,2.018,2.966.011.278-.838.562-.595.934.424.651,1.567.5,2.221.579q-.215,1.015-.429,2.029c2.868-1.324,2.12,2.82,2.99,4.181.243.38.783.076,1.064.516.366.574.256,1.388.568,1.959.706,1.294,1.413,1.137,2.117,2.618,3.677,7.735,8.57,14.941,12.1,22.842,1.681,3.761,3.2,7.586,4.951,11.313,1.615,3.431,2.537,6.347,1.386,10.093-2.669,8.691-5.524,17.54-9.022,25.935l-.524-.833M222.543,376.645l-.751,1.279c-.556-3.2.926-1.716.751-1.279m-11.774-5.991c-.8-.24-.456-1.551-.43-2.111a18.81,18.81,0,0,1,1.428,1.972l-1,.139m-32.268-12.3,2.4-1.348c-.971,1.893-.971,1.893-2.4,1.348M127.737,191.644c-1.288,3.16,2.638,22.674-1.017,23.311-.524-1.713-.59-6.429-2.76-6.991-2.693-.7-2.427,4.156-2.795,5.657-5.528-3.846-7.983-11.273-10.624-17.159A226.746,226.746,0,0,1,102,173.338c-2.163-6.684-3.951-13.486-6.137-20.159a125.408,125.408,0,0,1-3.777-12.712c-.2-.938-.99-3.318-.319-4.21.975-1.3,4.483.188,5.613.529,7.334,2.207,14.942,3.157,22.477,4.439,8.372,1.424,16.725,2.9,25.147,4q3.157.414,6.317.791c1.367.165,3.435,0,4.733.613,2.627,1.239,3.186,5.983,4.162,8.444,3.64,9.181,7.924,18.073,11.757,27.171,3.453,8.2,6.07,16.916,11.034,24.378-3.7-1.641-8.393-10.317-12.529-5.316-1.778,2.15-1.33,4.983-1.188,7.557.206,3.72.27,7.468.27,11.194-4.048-1.052-6.767-5.647-8.892-8.9a43.312,43.312,0,0,1-6.016-13.731c-.557-2.207-2.033-2.262-3.345-3.582-.843-.849-1.267-1.993-2.475-.758-1.519,1.552-.509,5.849-.246,7.682.623,4.36,2.667,11.07.68,15.168-2.681,5.529-9.866-8.383-10.707-10.393-.428-1.023-8.072-20.638-10.818-13.9m-5.019-94.758,1.357.208c-.365.322-1.124,1.451-1.744,1.153l.386-1.36m23.977-5.145-.426.467c-.649-.811-.419-1.994-.419-2.933a2.187,2.187,0,0,1,.845,2.466m1.938,9V103.4c-1.8-.779-1.833-1.181,0-2.652m2.183,3.372c-1.259-.346-1.41-.624-1.233-2.56.522,1.084.866,1.8,1.233,2.56m7.249,19.643c-.528,1.358-3.613-1.878-3.5-2.847.108-.924.582-1.2,1.235-.606.216.2-.1.908.033,1.155a10.755,10.755,0,0,0,2.232,2.3m.034,8.182c-.773,1.93-2.151-1.109-.131-1.193a2.721,2.721,0,0,1,.131,1.193m-1.5-3.043q-.449-.6-.872-1.215c1.04.21,1.866,1.726,2.964.715-.13,1.542-1.226,1.585-2.091.5M89.331,103.829c-1.673-1.826,9.236-3.107,10.552-3.421a151.426,151.426,0,0,0,27.5-9.616c4.26-1.929,8.5-3.881,12.657-6.019,1.8-.923,4.258-1.705,5.759-3.091,1.071-.989,1.028-1.737,2.42-2.327,1.182-.5,1.241-.028,1.782-.931a6.526,6.526,0,0,0,.5-3.115c-.518-1.6-1.285-.3-2.36-1.408-.775-.8-.587-3.061-.376-4a3.238,3.238,0,0,1,.474,1.454c1.167-.575.7-2.552,1.973-2.876,1.345-.341,1.206.707,1.557,1.779,1.017-1.493.2-2.766-.349-4.224,2.8-.524,5.8-1.031,8.576-.1,2.005.672,3.721,2.326,5.839,2.646,2.073.312,2.472-.671,4-1.668,1.241-.81,2.306.144,2.945-.468-.394,2.065-3.779,1.782-3.362,4.363.188,1.161,1.611,2.2,2.259,3.108a19.722,19.722,0,0,1,2.015,3.666c2.154,4.971,3.076,10.74,3.98,16.056,2.231,13.122,2.513,26.5,4.612,39.667,1,6.27,2,12.544,2.522,18.876.13,1.583,1.1,5.174.306,6.7-.669,1.286-2.157,1.289-3.463,1.6a62.161,62.161,0,0,0-7.408,2.347c-2.2.819-2.837,1.322-4.248-.746-1.365-2-2.04-4.386-3.016-6.58-1.244-2.8-2.746-5.492-4.189-8.188,2.834,0,4.464-1.53,4.389-4.409-.082-3.189-2.7-3.946-3.786-6.567-1.052,1.366-1.14,1.4-1.89.108-.857-1.483-1.436-4.2-1.96-5.878l1.125,1.2c.946-1.3-.536-3.353-1.031-4.579-.765-1.893-.9-3.939-1.625-5.826-.4-1.03-1.312-1.841-1.536-2.915-.15-.719.451-1.4.308-2.134-.248-1.271-1.686-2.635-2.133-3.929-.688-1.989-1.435-3.74-2.289-5.678-1.155-2.623-.887-5.375-1.1-8.166-.219-2.894-1.146-5.663-1.474-8.545-.226-1.991.482-4.5-1.024-6.092-.176,2.651.583,2.61-1.907,3.086-2.835.542-4.892,2.655-7.572,3.285-.553.13-.955-2.284-.74,1.009-1.286-.949-4.03.229-3.006.793-.776.83-2.3.256-2.56,1.5-2.637-2.564-6.866,6.163-10.007,1.611a6.288,6.288,0,0,1-5.751,5.317,18.207,18.207,0,0,0-3.776,1.159c-.271.091-.371.482-.693.587-.491.16-1.212-.323-1.566-.229-.721.191-1.522,1.14-2.528,1.328a12.186,12.186,0,0,1-3.566-.017,6.446,6.446,0,0,0-3.492.137c-1.271.428-2.633,1.627-3.813.321-1.854,3.207-6.273,2.423-8.455.039m85.688-38.7c-1.4-.168-.429-1.374.221-1.737,1.765-.984,1.294,1.919-.221,1.737M97.352,76.64c8.233-11.877,22.314-20.038,34.7-26.9,6.767-3.75,13.675-7.386,20.781-10.455,3.533-1.525,7.107-2.992,10.715-4.332,1.926-.716,3.876-1.366,5.827-2.014a7.036,7.036,0,0,1,2.085-.674c-.1-.01,1.4.4,1.108.527.967-.421,1.427-1.518,2.563-1.957a13.774,13.774,0,0,1,4.273-.742c1.211-.04,2.259.461,3.412.5a19.852,19.852,0,0,0,2.144-.388c.38-.026.346.542.575.575.1.014,1.111-.365,1.12-.359.368.237.695,1.16,1.028,1.521a10.638,10.638,0,0,0,3.629,2.3c1.549.662,5.329,1.328,3.578,3.778,1.244-.179,1.823.946.265,1.23-.844.155-1.2-.618-1.831-1.146-1.448-1.216-4.962-2.947-7.047-2.869-1.173.044-2.08.934-3.162,1.258-1.065.318-1.592-.175-2.527-.1-1.092.091-1.8,1.015-2.836,1.179-.975.154-1.518-.51-2.389-.464-1.035.055-2.038.954-3.027,1.256a22.431,22.431,0,0,0-4.262,1.6c-2.975,1.544-6.3,2.13-9.363,3.46-2.451,1.063-5.231,1.622-7.5,2.8-2.522,1.306-5.056,2.607-7.526,4.025-1.784,1.025-5.412,1.378-7.379,1.117-.028,3.623-1.811,1.083-3.608,2.67a4.086,4.086,0,0,0,1.447.827c-1.947.778-3.747,1.746-5.634,2.64-1.95.925-4.03,1.128-5.311,2.877-1.18,1.612-.78.78-2.541,1.415a6.7,6.7,0,0,0-2.093,1.776c-1,1.026-1.222,2.579-1.793.471-.167.257-.823,1.894-.951,1.935-.716-.76-.819.141-1.219.463q.316,1.05-.9,1.376-.617.459-1.248.9c-1.527,1.059-3.47,1.967-4.545,3.545a1.449,1.449,0,0,1-.6-2.1c-1.515,1.4-3.323,2.831-3.733,4.981a1.681,1.681,0,0,0-.657-.394c-.615.415.186,1.653.576,1.932,1.7-.661-.425-.421.718-.315.326.03.66.274,1.02.278a18.308,18.308,0,0,0,3.089-.2,51.676,51.676,0,0,0,6.8-1.68c2.43-.722,4.86-1.444,7.236-2.33,1.956-.73,3.88-1.543,5.8-2.353.768-.324,1.536-.652,2.3-.973,1.461-.61,2.232-1.613,2.027.1,1.164-.193,2.172-1.838,3.065-2.509a14.178,14.178,0,0,1,4.16-2.129,5.221,5.221,0,0,1,1.67-.445c.306,0,.489.861.681.814,1.336-.324.727-1.064,1.328-2.131,1.314-2.332,4.854-3.621,7.028-4.946,1.38-.841,2.359-1.972,3.633-2.9a4.794,4.794,0,0,1,1.653-.812c.478-.141,1.064.957,1.374-.147-1.112-.454-2.029-1.015-3.1-1.347-.757-.235.151-1.04-1.048-.561-.482.193-.647,1.125-.824,1.515-1.339-1.2-5.105.043-6.695.544-.11.034-.6-.225-.831-.209-.917.061-1.556,1.3-2.16,1.828a17.153,17.153,0,0,1-5.324,2.812c.526-2.874,4.393-4.052,6.649-5.153,3.3-1.61,6.37-3.664,9.982-4.53,2.406-.577,5.593-1.041,6.632,1.755.622,1.677.7,5.842-1.4,6.615-.222-.783.489-1.451.7-2.13-2.094.8-2.439,3.315-4.03,4.628a5.9,5.9,0,0,0-1.646,1.687,5.611,5.611,0,0,1-1.641,2.121c-1.644-3.492-1.366,1.291-2.2,1.891.335-.241-1.359.464-1.156.389-.078.029-.816-1.167-1.295-1.141-.871.046-.7,1-1.123,1.487a6.287,6.287,0,0,1-5.55,2.448c-.054,1.162.305,2.551-1.282,2.657l-.208-2.577a23.229,23.229,0,0,0-2.7,2.716c-.8,1.152-.715,1.861-2.042,2.628-1.387.8-4.338,2.383-5.988,2.52a1.046,1.046,0,0,0-.216-1.568c-.83.856-2.056.94-2.939,1.713,3.068,1.282-2.357,1.215-3.045,1.36-.461.1-.863.517-1.329.612-.619.126-.7-.526-1.233-.319-.78.3-.464,1.155-1.28,1.584-.586.308-1.581.3-2.242.6-1.577.7-4.935,2.245-6,.369-.54,3.218-6.055,1.259-8.1,1.043-2.8-.3-7.665-1.609-5.072-5.352m11.742-32.927a.787.787,0,0,1,1.188.075c-.551-2.912,3.714-4.326,5.574-5.565,2.468-1.642,5.373-4.828,8.6-4.576l-1.651,1.224,2.355.305q-.664.975-1.329,1.949c-.725-3.995-4.506,1.049-5.6,1.784a24.49,24.49,0,0,0-3.181,2.194c-.97.894-1.846,2.5-3.451,1.7-.146,2.282-1.981,1.663-3.249,2.926a3.79,3.79,0,0,1,.741-2.015m16.756-11.389c3.9-1.462,7.3-4.166,10.981-6.1,3.514-1.845,7.1-3.5,10.671-5.223,1.812-.873,5.131-3.132,7.2-1.981,2.795,1.554-1.053,2.056-2.052,2.594-.37-2.393-1.664-.225-.891,1.106-2.133-.921-6.784,2.682-8.819,3.676-.461.225-.254.355-.778.62-.129.065-1.464.369-1.846.5-1.915.641-3.178.132-4,2.444l-.518-1.634c-1.2,2.693-4.844,3.871-7.175,5.464-.6.411-2.316,2-3.078,1.674-1.061-.459-.635-2.788.306-3.141m70.424,8.118c1.648.109.059.878.512,1.386-.051-.057.993.833.856.589.184.329.627.317.853.985.78,2.3-2.625,4.672-3.773,5.976-2.232,2.536-3.522,5.748-5.848,8.2a7.549,7.549,0,0,1-3.552,2.288c-1.019.29-2.1-.02-3.034.96-.754.789-.583,1.238-1.417,1.658-1.469.74-2.116.091-3.545,1.69-1.23-3.344,2.3-3.338,4.148-5.207,2.545-2.579,5.334-5.182,7.721-7.941a20.072,20.072,0,0,0,3.976-7.58c.317-.939.663-2.953,1.537-3.542,1.362-.917.545.47,1.566.538m8.105,86.854a53.4,53.4,0,0,1,15.5-12.089c2.077-1.041,5.035-2.408,7.188-.8,2.112,1.571,1.657,4.706.806,6.838-.816-.32-.046-3.317-.469-4.057-.923-1.616-2.916-.758-4.272-.216a13.354,13.354,0,0,0-4.263,2.487c-.511.467-1.488.885-1.814,1.206q-.737-.306-.867.445a1.251,1.251,0,0,1-.037.907c-.072.095-.71-.293-.8-.216-.414.355-.8.772-1.209,1.1a12.089,12.089,0,0,0-2.267,1.9c-1.454,1.782-3.378,2.827-4.839,4.525a11.055,11.055,0,0,0-.8,1.454c-.739.862-1.834,1.544-2.667,2.457a39.709,39.709,0,0,1-4.641,3.987,8.313,8.313,0,0,0-2.027,2.017,12.481,12.481,0,0,0-.347,2.4c-1.63,1.787-1.313-1.8-1.19-2.255,1.324-4.845,5.8-8.483,9.017-12.083m-8.9,32.764c.2.761.37,1.39.575,2.162-1.292-1.06-1.292-1.06-.575-2.162m-1.4,2.492q-.712.718-1.433,1.427c-1.058-1.118,1.627-1.618,1.433-1.427m-.671-19.24c-.506,2.046-2.357,4.525-3.629,6.14.14-.178-1.086.18-1.226.261-.453.262.632,1.964-.938,1.2-.557.315.54,1.6-.217,2.175-2.189-4.987,3.788-9.308,6.1-13.011,1.132,1.039.193,2.085-.091,3.231M179.2,170.277c1.6.411,2.426.152,3.5-1.415.648-.942.884-2.609,2.366-1.2l.261-1.811c2.115.867,1.937,4,2.861,5.74.45-1.965,1.515-7.456,4.776-6.575,3.661.989-2.432,7.285-3,8.827-1.244-1.931-.755-.135-1.7.137-.814.234-2.087-.365-3.077-.311-3.011.164-5.656,1.518-8.407,2.665l-2.089-5.633c1.619.125,4.968-4.186,5.443-1.053-1.2-.209-1.539-.156-2.124.937a2.82,2.82,0,0,1,1.188-.307m6.759,24.507c0-.015,3.115.178,3.393.076,2.135-.78,1.345-3.2,1.782-4.912.88.809.414,2.286.685,3.333.318,1.23,1.241,2.279,1.326,3.6.194,2.973-2.245,2.313-4.095,3.275-1.58.822-1.755,1.857-3.09-.359a6.947,6.947,0,0,1-1.058-2.929c.078-.76,1.282-1.391,1.057-2.079m2.514,12.866-.863-.966c2.57.787,1.055-.4,1.646-2.014,1.973,1.314,3.582,2.664,5.143.034l2.7,10.878c-1.811.426-4.148-2.372-5.391-3.334-.718-.556-4.7-2.7-2.309-3.319l-.923-1.279m17.6-34.158a33.545,33.545,0,0,1-4.635,3.34c-1.43.982-.937,2.11-2.177,3.206a25.057,25.057,0,0,1-3.769,2.026,4.852,4.852,0,0,1-5.3.07c.507,4.082-2.289,4.4-5.769,5.21-1.66.386-2.642.975-3.838-.545-.819-1.04-1.14-2.924-.121-3.876,1.619-1.512,5.931-.99,8.008-1.941,1.576-.721,3.181-4.785,5.126-3.306-1-1.6.165-2.029,1.037-3.168.955-1.249,1.542-2.71,2.531-3.948a25.551,25.551,0,0,1,7.429-6.144c2.347-1.249,3.579-.365,3.931,2.259a7.423,7.423,0,0,1-.568,4.454c-.235.373-1.013.377-1.248.728-.41.612-.034,1.059-.64,1.636m27.542-31.66c1.873,1.45,1.69,4.5,1.985,6.57a55.224,55.224,0,0,1,.07,8.731c-.047,3.12-1.578,5.152-2.3,8.077a21.737,21.737,0,0,1-3.631,7.706c1.948.306-.951,6.124-1.429,6.877-.519.817-4.7,4.585-2.909,4.585-.99,1.305-2.067,2.645-3.053,3.913-.388.5-1.069.7-1.375,1.049a9.529,9.529,0,0,0-1.107,2.193c-.677,1.27-.9.931-1.79,1.852-.615.636-1.018,1.476-1.622,2.086-1.946,1.964-2.194.355-3.281-1.158a1.222,1.222,0,0,1-.888.762c-.341-1.712,2-3.442,2.991-4.482a67.941,67.941,0,0,0,4.519-5.447,72.5,72.5,0,0,0,7.974-12.785,61.735,61.735,0,0,0,5.107-15.352c.73-4.023,1.423-10.924-3.953-11.948-3.91-.744-8.22,1.631-11.443,3.555-1.964,1.171-3.939,2.336-5.81,3.654-2.031,1.429-3.786,3.452-5.991,4.6,1.206-.627-2.773,1.261-2.163.73-.285.248-.039,1.006-.228,1.348-.246.445-1.1.884-1.482,1.172-1.011.76-2.627,1.537-3.087,2.791-6.415-4.576,6.342-12.7,9.612-14.77,6.486-4.1,17.773-12.122,25.284-6.308m17.3-44.506c-.061-3.3,2.622-7.794,4.435-10.481.887-1.315,2.3-1.263,2.823-2.814.3-.893-.093-1.83,0-2.727a7.859,7.859,0,0,1,1.253-3.228c5.486-9.425,12.151-17.768,19.25-25.991,3.5-4.054,6.819-8.263,10.594-12.072,1.577-1.59,5.816-7.308,8.24-6.736,1.284.3,2.031,2.262,2.611,3.262a44.019,44.019,0,0,0,3.177,4.723,46.684,46.684,0,0,0,10.809,10.384c2.615,1.778,5.257,3.507,7.814,5.37,2.105,1.533,5.288,3.286,6.791,5.439s-.7,3.977-1.911,5.765c-1.876,2.781-3.6,5.662-5.485,8.439-.748-.538-.555-1.631-1.068-2.321a5.227,5.227,0,0,0-1.727-1.237c-1.2-.722-2.387-1.6-3.475-.395-1.9,2.117.714,7.12,3.536,6.571.332,2.089-5.3,5.529-6.715,6.679-4.334,3.526-8.805,6.592-14.531,6.911a17.978,17.978,0,0,1-6.929-.822,8.075,8.075,0,0,1-3.029-1.691c-.968-.969-1.215-2.412-2.154-3.371-.814-.833-1.933-.961-2.747-1.8a8.008,8.008,0,0,1-1.548-3.24c-.647-2.116-.769-4.348-1.39-6.468-.374-1.276-.681-2.981-1.9-1.755-1.77,1.781-.881,7.38-.428,9.513.648,3.044,2.168,5.5,3.761,8.116a19.111,19.111,0,0,1,2.673,8.762,50.019,50.019,0,0,0,5.092,17.593c1.156,2.331,2.542,4.523,3.79,6.8.583,1.063,1.89,4.688,3.476,4.668,2.534-.031-1.076-7.422-1.577-8.662-2.776-6.872-5.428-14.094-6.023-21.535,3.98,1.025,8.318,2,12.439,1.348-2.66,5.949.119,11.872-.222,17.995-.17,3.071-.293,5.9-.229,8.965.056,2.685-1.156,5.368-2.2,7.8-2.082,4.821-4.7,10.769-8.568,14.462-3.232,3.088-7.555,3.329-11.778,2.618-9.606-1.618-15.918-9-19.95-17.389a74.989,74.989,0,0,1-5.8-16.99c-1.423-6.772-1.047-13.589-1.174-20.458m12.475-45.637c-8.965-6.486,4.062-13.852,10.693-12.849,1.555.235,4.417.878,4.272,2.908-.119,1.659-2.887,3.508-3.949,4.532-3.03,2.922-6.113,8.956-11.016,5.409M328.61,195.813c-.308-.276-2.817.4-1.823-1.084.826-1.233,3.116.312,3.948.63-.686.474-1.282,1.208-2.125.454m-37.328,78.45c-.771.1-1.576-1.983,1.2-.43l-1.2.43m-.079,33.868c.1.931.38,1.545-.281,2.223a1.41,1.41,0,0,1,.281-2.223m1.128,13.994q-.123.76-.244,1.52l-1.924-.974,2.168-.546m.785-11.8c.956.358.511-.786,1.205-.946a3.926,3.926,0,0,1-.741,3.191c-.065-.232-.415-2.227-.464-2.245m24.431-84.443c-1.341-.171-1.544,1.246-2.544,1.8-.645.355-2.61.088-2.977.768l1.453.42-3.325,1.792c2.666,0,5.443-1.273,8.091-.9a3.677,3.677,0,0,1,2.641,1.447,4.7,4.7,0,0,1,.869,2.118c.074.732-.5,1.238-.4,1.587,1.193.033,1.052,1.99.784,2.787-.581,1.729-2.888,4.438-4.956,3.341.865,1.227.645,1.928-.634,2.64.116-.406.2-1.115-.452-1.045-.168.68-.1,1.759-.659,2.272-.622.574-1.177-.1-1.772.276-.7.443-.493,1.138-1.047,1.619-.733.634-.838.184-1.714.307-1.327.188-.48-.637-1.544.438-.368.371-.306,1.336-.9,1.879-1.145,1.042-4.2,2.128-5.3.792-2.637,4.18-10.542,5.183-14.221,1.883-5.868-5.262,5.074-15.963,8.686-19.355a102.5,102.5,0,0,1,11.728-9.181c2.315-1.612,4.691-3.076,7.117-4.512,1.5-.887,3.376-2.505,5.215-2.35,1.649.14,3.059,1.419,4.8,1.673,1.256.183,3.7.485,2.111,2.189a13.819,13.819,0,0,1-4.642,2.277c-.582.114-1.2-.1-1.772.014-.976.2-1.647,1.025-2.709.92.336,1.577-.278,2.319-1.928,2.109m17.367-58.531c0,1.233-2.251.926-2.721.507-.774-.689-.8-2.75-1.088-3.688,1.309.329,3.808,1.534,3.809,3.181m-18.137-40.693a122.482,122.482,0,0,1,14.958-10.589c1.882-1.124,4.54-3.391,6.878-3.108.981.119,3.008,1.245,2.27,2.487-.138.232-1.229.326-1.566.494-.382.191-.682.717-1.037.977-2.456,1.8-5.407,2.909-7.871,4.754a72.405,72.405,0,0,1-6.093,4.511c-2.091,1.247-4.276,2.036-6.262,3.417.039-.028-2.583.915-2.068,1.087-2.3-.77.129-3.484.792-4.029m31.531-1.448a70.724,70.724,0,0,1,8.5-3.231,12.549,12.549,0,0,1,4.494-.489.667.667,0,0,1,1.032-.3,3.354,3.354,0,0,0,1.326,1.187c.838.644,3.923,1.486,3.307,2.909-.408.941-3.5,1.019-4.35,1.23-2.559.637-4.945,2.071-7.581,2.424a4.468,4.468,0,0,1-1.064-.265c-1.029.225-1.885,1.292-2.769,1.8-1.9,1.1-4.635,1.286-6,3.186,4.423,3,8.261.025,12.15-2.239a40.6,40.6,0,0,1,7.376-3.2c1.33-.454,2.673-.926,4.021-1.324a8.942,8.942,0,0,1,1.72-.439.97.97,0,0,1,1.176.6c1.63-.054,1.77-1.077,2.751.831,1.383,2.69-.733,2.553-2.722,2.884-2.758.458-5.564,1.488-8.281,2.171-.627.158-6.123,1.432-6.13,1.477-.249,1.735,15.526.128,16.881-.132,2.39-.46,4.953-1.766,7.427-1.451,1.9.241,6.227,3.029,3.2,4.88-.6-2.856-2.645-.5-3.714.467-1.424,1.283-3.465,1.159-5.418,1.662-2.672.686-9.511,3.262-11.408-.022.6,2.877-10.3,1.415-11.8,1.32-1.461-.093-3.347.217-4.759-.2-.921-.271-1.433-.87-2.3-1.005a1.616,1.616,0,0,1-.763.467,4.848,4.848,0,0,1-1.19-.848c-2.92-1.342-7.437-2.083-5.815-6.358,1.53-4.031,7-6.512,10.709-7.992m27.365,2.492q.109-.377.218-.754c.009.77,1.845,1.1,1.633,2.1-.47,2.209-2.589-1.11-2.771-1.472l.92.129m11.21,3.67c.212.9,2.654,2.831,2.049,3.275-.963-1.309-3.623-.715-2.049-3.275M345.7,213.927c.894-1.773,3.6,1.246,3.311-1.781,1.469.133.552,1.251,2.313.76.66-.184,1.106-.916,1.91-1.084.214-.045,1.141.028,1.46.019,1.059-.032,5.209-.15,2.352-1.539,1.6-1.057,1.8-.521,3.239.448-.37-2,1.753-.866,2.741-.616-.7-1.142,1.044-2.357,1.612-3.128-.2,1.189-.1,2.52,1.624,1.76.429-.189.332-1.029.672-1.167.622-.251.97.206,1.194.18a3.232,3.232,0,0,0,1.144-.075c.6-.226.311-1.031,1.072-1.151.5-.078.857.651,1.462.657.311,0,.829-.312,1.065-.3.042,0,.337-.71.7-.727.531-.026.747,1.4.941,1.673a9.088,9.088,0,0,0,3.591,2.881c-2.579,2.365-7.781,2.114-11.024,2.911a22.669,22.669,0,0,0-4.862,1.858,3.973,3.973,0,0,0-1,.928l-.683-.453c-.881.054-1.714-.382-2.705-.214-3.062.516-5.46,2.811-8.572,3.322-1.4.23-2.548.551-3.458-.662-.8-1.063-.667-3.372-.1-4.5m-4.2-14.13c.694.587-.141,2.5,1.2,2.29.953-.147.763-1.627,1.512-1.94.984-.411,1.577.565,2.5.474,1.723-.17,1.625-1.675.169-2.336,1.514-.4,2,1.391,3.34,1.374,1.761-.021,1.341-2.1,2.839-2.443.649-.149.432.8.853.922a2.893,2.893,0,0,0,2.175-.527c.667-.32,1.142-.937,1.871-1.147.332-.1,1.174.079,1.418-.1.491-.358.93-1.751,1.413-1.935a10.353,10.353,0,0,0,1.711.905q-.209.882-.967.21c0,1.327,3.689,1.741,2.932.1,1.995.826.509,1.251.31,2.4-.079.464-.349.451-.269.941.037.226,1.082.031,1.07.339-.088,1.981-6.4,2.59-7.6,2.765a46.088,46.088,0,0,0-7.208,1.72c-1.778.558-4.842,2.156-6.733,2.057-2.72-.143-3.075-3.692-2.542-6.076m-6.078-20.216c-.663-2.2,1.465-6.756,4.236-6.187.681.14.849.7,1.378.955.738.35,1.938.166,2.578.528,1.435.812.712,2.881,2.149,3.629-2.269.55-9.287,4.579-10.341,1.076m2.626,8.563c.978-.526,2.563-.593,3.229-1.6.332.23.96,1.626,1.555,1.412.278-.1.565-.856.545-.855.53-.015.636-.733,1.447-.653.744.075,1.577.969,2.24,1.3-.114-2.218.454-2.43,2.253-3.617.394-.26.724-1.236,1.087-1.631-.348,2.327.529,2.34,2.387,2.69a5.933,5.933,0,0,1,4.715,3.94c-1.985-.387-4.546.079-5.329,2.213-1.584-2.895-7.343,1.1-9.206,1.918-1.383.607-2.991,1.424-4.151.008-.816-1-.349-2.2-.331-3.082,0-.278.292-.294.265-.709-.034-.529-.722-.74-.707-1.334m21.2,45.522c-.524.2-3.223.31-3.24-.584-.014-.79,4.763.006,3.24.584m-4.384-2.892c-2.042,1.259-4.326-3.177-5.077-4.454,2.142.274,3.188-1.518,4.449-2.879,1.2,2.63,3.023,1.24,4.94.362,2.261-1.036,4.739-1.044,7.055-1.875.723-.259,1.389-.645,2.095-.942q.852-.319,1.7-.654a1.3,1.3,0,0,0,.426-1.333q-.284-.665.388-.839a6.746,6.746,0,0,0,1.634.276c.893-.177,2.176-1.019,1.1-1.927,1.155-1.049,2.311-.006,3.423.453q-.4-1.13-.792-2.259c.551.234,2.189,2.522,2.356,2.509,1.058-.079.948-1.5,1.556-2.073.351.433.451,3.66,1.831,2.573.59-.465-.68-2.048-.993-2.409,1.578.356,2.956,2.241,3.383,3.7a2.94,2.94,0,0,1-2.079-.453c-.407,2.037,3.364,1.212,3.974,2.276,1.2,2.083-6.581,3.531-7.594,3.724-2.027.387-4.42.53-6.279,1.429a8.944,8.944,0,0,1-4.282,1.268,39.719,39.719,0,0,0-6.989,1.576c-1.994.529-4.455.857-6.223,1.947m43.4-74.58c1.875-.675,8.191-4.177,9.8-2.619a16.471,16.471,0,0,0,1.146,2.409c.114,1.428.079,2-1.679,2.688-1.259.49-2.356-.551-3.489-.138-1.244.454-.374,1.259-1.014,1.82a8.648,8.648,0,0,1-2.929,1.152c-2.138.66-4.293,1.212-6.421,1.924-4.33,1.448-8.915,2.8-13.365,3.819-3.325.765-8.97,2.667-12.034.421-.3,1.277-1.03,1.1-2.045,1.288a28.122,28.122,0,0,1-2.944.56c-1.178.034-4.453-.274-4-1.927-.124.455,2.548-1.1,2.085-1.2,1.135.239.767-.332,1.7-.65,1.214-.415,2.483-.393,3.723-.832,3.125-1.108,5.746-2.545,9.044-3.239,7.534-1.585,15.161-2.86,22.43-5.476M96.248,326.911c-.61.016-1.085-1.718.772-.48l-.772.48m-14.67-2.244q-1.245.319-.992-1.389,1.736-.686.992,1.389m-11.326-2.323c-.213-1.015.54-1.244,1.222-1.7-.069,1.345-.069,1.345-1.222,1.7m-28.5-8.352c-1.148-.252-2.678-1.375-2.941.51-.192-.436-1.172-2.489-.751-2.964.22-.249,1.052.9.963.787,1-2.032,2.737.42,3.7,1.146l-.976.521M340.227,89.4q.594-1.257,1.4-.8c-.844,1.96-3.7,3.023-1.4.8M360.087,71c.708,1.327-.357,1.888-1.117,2.992.445-1.19.753-2.015,1.117-2.992M446.4,200.57c2.554,0,7.993-1.348,9.533,1.571,1.019-1.984,2.177,1.736,3.062,2.333.1.067.736-.42,1.032-.24a4.352,4.352,0,0,1,1.088,1.444,19.244,19.244,0,0,1,1.53,4.34c-4.46,0-9.033-1.038-13.49-1.416a62.58,62.58,0,0,0-8.722-.1,21.847,21.847,0,0,0-2.236-.051c-.506.111-1.422,1.141-1.98.976.866,1.626,11.96,5.562,12.807,3.762-1-.607-3.23-1.073-3.228-2.539,0-1.643,2.089-1.64,3.2-1.592,2.42.106,6.473.911,7.465,3.428a8.917,8.917,0,0,1,.088,4.836c-.3.672-.812,1.481-1.621,1.618-.332.056-.81-.385-.86-.374-1.66.352-4.733,1.686-6.544-.194-1.306,1.69-7.6-.156-9.521-.793-3.367-1.115-8-2.646-10.05-5.788-2.493-3.83,2.576-7.067,5.487-8.623,3.978-2.127,8.524-2.6,12.965-2.6m16.995,8.855,2.348.663c-.21,1.373-3.3.287-2.348-.663m23.663,49.89c.241-5.5-1.349-10.342-2.267-15.661-.228-1.318,0-3.623-1-4.707-.957-1.037-3.092-.194-3.177-2.026-.942,1.1-.847,1.334-2.008.065a2.61,2.61,0,0,1,.092,1.661c-.72-.413-3.332-1.784-3.112.091-2.147-.475-1.526-1.818-2.75-2.843-.174-.146-.873.371-1.146.151a7.357,7.357,0,0,1-1.152-1.276,11.565,11.565,0,0,1-1.892,1.6,2.886,2.886,0,0,0-1.983-1.615c.82,1.717,2.849,3.941.067,4.918-1.661.583-4.381-.132-6.14,0-6.519.506-13.66-.916-19.963-2.469a74.844,74.844,0,0,1-18.847-7.139,21.462,21.462,0,0,1-3.092-2.4,10.585,10.585,0,0,0-3.044-1.521,19.556,19.556,0,0,1-6.015-4.277c-3.677-3.744-7.094-8.64-6.07-14.121,1.021-5.463,4.776-9.732,8.794-13.33a72.422,72.422,0,0,1,15.79-10.656c2.543-1.278,9.047-6.081,11.559-3.271a2.6,2.6,0,0,1-1.491,4.485c-.541.1-1.106-.264-1.654-.016-.789.359-.511.783-.837,1.082a10.166,10.166,0,0,1-2.011,1.78,88.818,88.818,0,0,0-8.616,4.732c-1.3.882-2.549,1.261-3.694,2.031s-1.4,2.032-2.929,1.25c.545,2.227-2.729,4.612-4.013,5.977-1.988,2.113-4.372,4.81-3.445,7.936,1.816,6.12,10.022,10.768,15.273,13.458a70.072,70.072,0,0,0,21.077,7.135c3.628.55,7.377.889,11.031,1.238,2.846.271,7.212-.722,9.26,1.84.063-2.988,9.4-2.725,11.383-3.107-3.983-13.614-11.8-25.718-20.163-37.027-4.1-5.551-8.133-11.261-12.81-16.35-5.12-5.571-10.97-10.55-16.529-15.677a247.5,247.5,0,0,0-35.778-26.934c-12.518-7.887-25.481-15.648-39.195-21.272C338.9,106.634,322.409,102.41,305.9,98.813c2.239-2.853,5.882-4.245,8.749-6.333,1-.731,2.361-2.485,3.665-2.725,1.412-.26,2.524,1.259,3.529,2.022,2.885,2.189,4.881,1.259,8.186,1.128,1.978-.079,6.66,1.022,7.494-1.652,1.109,1.476-.5,2.66-1.322,3.742.6.836,1.082-.031,1.673-.162l.547-.454q.441-.638.794-.008.529.8,1.066-.353l.294-.185a12.1,12.1,0,0,0,1.237-.871,57.9,57.9,0,0,1,8.995-5.555c2.784-1.327,1.287-3.865,3.122-5.658.415-.406,1.114-.2,1.559-.546s.5-.721.817-1.082c.763-.87-.145-1.879,1.8-.814l-.7-3.95c3.815,3.7,3.8-6.949,4.321-8.525-.069.208.342-1.4.342-1.391.112-3.2.548-5.513-3.195-5.7,1.417-.892,1.85.849,2.5-.953.327-.9-.7-2.455.935-1.873a12.506,12.506,0,0,0-.423-5.337,18.977,18.977,0,0,1-.161-5.092c.022-2.165-.991-4.341-1.316-6.474-.254-1.67.008-4.3-2.151-3.69-.3-.475.763-1.936.719-2.658-.067-1.122-1.285-2.262-1.63-3.34a1.8,1.8,0,0,1-1.913.462c.648-1.464.04-1.956-.581-3.218-.356-.723-.141-1.521-.9-2.04-.436-.3-1.18.2-1.522-.145-.733-.746-.462-1.737-.967-2.72-.633-1.233-2.078-2.176-3.074-3.1-5.6-5.2-11.68-9.181-19.128-11.215C321.75,6.3,312.991,5.561,305.5,7.928c-2.993.946-5.65.849-8.344,2.615-.873.573-.967.42-1.411,1.375-.1.223.828.816.258,1.18-.619.4-1.3-.409-1.617-1.076a32.214,32.214,0,0,0-9.768,10.893c-2.206,4.285-2.408,9.319-3.25,13.975-3.885-4.438-9.139-6.565-14.851-4.432A15.051,15.051,0,0,0,256.708,43.7a14.916,14.916,0,0,0,1.521,9.407,9.467,9.467,0,0,0,2.567,3.5c.922.669,2.5.575,2.934,1.783.665,1.85-3.177,5.845-4.174,7.465a59.955,59.955,0,0,0-4.757,9.157c-4.576-6.463-8.956-13.523-14.159-19.483A141.6,141.6,0,0,0,224.135,40.1a291.844,291.844,0,0,0-37.635-27c-12.411-7.32-27.4-11.384-41.867-9.947C130.5,4.558,119.68,13.5,110.575,23.806,93.069,43.627,82.346,71.879,81.3,98.264A81.3,81.3,0,0,0,83.545,121.7c.932,3.661.8,7.261,1.339,10.969.612,4.183,1.669,8.35,2.692,12.447a447.649,447.649,0,0,0,14.43,46.293,101.718,101.718,0,0,0,11.141,22.439c2.189,3.2,5.026,5.7,7.382,8.732,2.286,2.944,2.89,6.557,3.392,10.169,1.205,8.661,2,17.358,2.729,26.069.308,3.692.667,7.351,1.156,11.017.426,3.2-.646,3.039-3.335,4.125.545-2.872-12.3-.918-13.515-.722-1.32.213-2.718.216-3.758.386a18.182,18.182,0,0,1-3.639.424c-1.968-.057-5.653-.559-6.4,1.953-.517-2.912-3.933.272-1.406-.268-2.594.29-5.241-.193-7.866.052-3.009.279-6.043.545-9.031,1-2.08.315-4.065,1.116-6.148,1.348-2.666.3-5.449.27-8.141.507a189.28,189.28,0,0,0-29.874,5.522,46.738,46.738,0,0,0-6.787,1.863c-.559.241-1.062.78-1.6.987-.9.347-.775.107-1.573.266-4.779.955-9.709,2.516-14.488,3.74-2.651.68-6.962,1.292-9.124,3.142-.969.828-1.816,2.3-.263,3.239,1.241.752,3.012-.449,4.016-1.1-.895,2.331-2.582,3.493-1.67,6.146.719,2.1,2.344,4.679,4.842,3.327.335.778.47,2.327,1.456,2.613.886.257,1.527-.865,2.394-.6.311.095.193.681.471.835a8.972,8.972,0,0,0,1.514.562,8.633,8.633,0,0,0,1.724.524c.312.022,1.049-.512,1.046-.512.718.109,1.1,1.482,1.62,1.879a4.537,4.537,0,0,0,2.064.819c1.746.388,4,1.052,5.148-.735-.264,1.276,1.472,1.151,2.238,1.313a2.315,2.315,0,0,0-1.029-1.657c1.712.113,1.018,1.815,2.283,2.265.9.32.8-.493,1.489-.583.909-.119,1.6.541,3.018-.067.308,1.367.42,2.746,2.1,2.95.985.12,3.283-1.66,3.153-.179,2.2-.645,3.037-.209,4.187,1.731.194-1.191,1.135-.846,2-.919,1.368-.117,1.4-.007,2.464-.781.1-.07.931-1.982,1.3-.794.167.532-.935,1.784-1.344,2.1.507.256,2.168,1.154,2.806.989.553-.143.554-1.087,1.218-1.136q-.244.814-.488,1.63c1.292.188,2.371-.677,3.392-1.31.973,2.46,3.753,1.074,5.266,2.925.8.979.837,1.723,2.361,1.979,1.56.262,2.922-.423,4.248.864-.42-.8-1.467-1.46-.427-2.318a34.842,34.842,0,0,0,1.89,3.149l.338-1.426c2.128,2.276,4.807,2.3,7.533,3.558v-1.666c1.952,2.979,2.056,1.094,4.387-.123q-.237,1.314-.476,2.627c1.678-.126,3.245,1.861,4.623.173.832,1.4,1.84.709,3.2,1.152.775.252,1.353,1.016,2.107,1.292,1.131.414,1.469.395,2.534.755.947.32,1.485.944,2.67,1.144a9.918,9.918,0,0,0,2.205.085c.285-.014.191-.654.824-.505.978.232,1.707,1.459,2.411,2.088,1.059-2.663,4.026.9,5.46,1.379a4.175,4.175,0,0,1,.607-2.067c.58,1.271.8,2.34,2.006,3.159a7.716,7.716,0,0,0,2.519.984,16.477,16.477,0,0,1,1.749.135c.544.267.745.979,1.294,1.046.323.039.8-.811,1.044-.745,1.108.3,1.723,1.648,2.841,2.375,3.328,2.165,7.517,2.375,11.225,2.85.931.119,1.066-.135,1.822.411.4.292.22,1.179.716,1.428,1.869.937,1.87-1.062,2.262-2.3.618.816.725,1.893,1.571,2.542a13.449,13.449,0,0,1,1.385.031,2.206,2.206,0,0,1,.51,1.028c1.12.756,2.388.493,3.544,1.061.379.186,1.051,1.311,1.518,1.634a10.408,10.408,0,0,0,3.085,1.14c2,.527,4.876-.173,6.068,1.919,1.583-1.7.97.329,2.045.755.635.251,1.589-.748,2.292-.648,1.267.178,1.723,1.55,2.129,2.548.772-.172.242-2.356.22-2.834.959-.113,1.172,2.412,1.338,2.967,1.514-.729-.971-3,.657-3.726-.149,1.933,1.391,3.525-1.36,3.8.38,1.164,9.253,2.457,9.869,1.43.137,1.9,1.413.125,1.884-.525.053,1.108-.324,2.681.919,3.2a3.2,3.2,0,0,0,3.083-1.383c.379,1.265,1.013,1.224,1.8,2.028.542.552.9,1.509,1.467,1.972,1.046.851,2.991.721,4.209.53,2.384-.372,2.1-.829,2.952,1.649.192-.94.794-2.907,1.844-1.445.668.929-.754,2.976-1.165,3.792a10.7,10.7,0,0,1,2.876-1.32,2.7,2.7,0,0,1-.042,1.3c.031-.06,1.146.687,1.56.895a11.231,11.231,0,0,1,.315-1.85c1.471.908.45,2.643,1.753,3.538.337.232,1.126-.039,1.533.1a11.3,11.3,0,0,1,1.951,1.3,4.271,4.271,0,0,1-.4-2.584c.32.177.549.839.872.891.122.02,1.389.188,1.381.182,1.319.923,1.047,1.04-.085,2.15.4.636,2.1-.469,2.553-.653.1.249.12,1.152.3,1.313l.328.8a1.291,1.291,0,0,1,1.087-.252c.244.085,2.152.861,2.282.6a3.428,3.428,0,0,1-1.134-.621c1.1-.99,1.825-1.516,2.84-.087.128.18-.311.827-.181,1.061a13.167,13.167,0,0,0,2.156,2.282c.28-.983-.371-3.445,1.183-3.355,1.242.071,2.186,3.08,1.757,4.015.494-.54,3.441-1.076,4-.908,1.573.477,1.132,1.931,3.067-.2,1.32.911.156,1.256.394,2.366a1.162,1.162,0,0,0,.991-.258c-.234,4.718,3.248,1.113,5.508,1.834.887.283,1.114,1.29,2.067,1.584.5.155,1.064-.212,1.554-.123q.589-.084,1.17-.208.737-.369.692.826c.79.409.491.569,1.415.649.595.052,1.142-.567,1.818-.462,1.166.183,1.012,1.078,1.757,1.546a3.418,3.418,0,0,0,2.253.326c.421-.042,1.6-.584,1.745-.586.882-.012.4-.2,1.463.558a5.761,5.761,0,0,0,2.183,1.246c1.161.311,3.221.992,4,.153,1.055,1.582,1.882.421,3.275.526.713.054.826.332,1.46.442a23.961,23.961,0,0,1,3.4.375,10.178,10.178,0,0,0,3.679.907l.953-.373a2.116,2.116,0,0,0,.75,1.3,3.045,3.045,0,0,0,2.445-.836c.606,1.886,2.57,2.051,4.251,2.3a43.367,43.367,0,0,1,7.92,1.51c2.209.752,4.422,1.6,6.546,2.561,1.87.848,3.634,2.117,5.749,1.521,4.793-1.35,9.438-6.27,13.448-9.095,4.75-3.346,9.872-6.1,14.835-9.111,19.757-11.976,40.629-22.107,60.11-34.528,10.635-6.781,20.5-14.839,31.925-20.325-1.626,6.719-4.394,13.539-3.894,20.573.2,2.835,1.036,6.184,3.234,8.162,2.718,2.447,5.745.889,8.345-.859,5.57-3.745,9.284-9.21,13.453-14.341a114.33,114.33,0,0,0,12.376-19.511c.867,1.218.208,3.258.22,4.608a10.88,10.88,0,0,0,1.28,4.921c2.062,3.969,5.987,4.932,9.534,2.212,6.825-5.234,10.786-14.556,14.443-22.063,2.086,3.88,5.046,8.765,10.056,5.993,4.133-2.287,6.562-7.4,7.826-11.725,3.691-12.634,2.522-25.5,3.089-38.455" transform="translate(0 -1.141)" fill-rule="evenodd"/>
      <path id="ink-shape-2" data-name="ink-shape" d="M764.269,256.968c-.471-1.145-.678-.958.188-2.068.676.665.135,1.215-.188,2.068m20.889,69.3c-1.326-3.768-.507-7.861-1.312-11.726-.37-1.773-.953-3.494-1.163-5.3-.093-.8-.807-4.408-.321-4.975-1.5-.905-1.5-1.575-1.846-3.351q.8-.848-.2-1.448l-1.309-1.583c1.908.932.779-1.454.585-2.83a17.3,17.3,0,0,0-.62-3.263c-.446-1.281-1.438-1.929.625-1.929a9.389,9.389,0,0,1-2.033-2.515c-.486-1.361.316-3.16-.676-4.362-.553-.671-3.4-.933-2.9-2.381.255-.738,1.411-.187,1.768-.7,1.406-2.032-2.744-2.874-2.948-3.739-.263-1.121,1.235-1.371,1.328-2.419.09-1.026-1.505-2.711-1.927-3.629-.574.14-1.2,1.048-1.861.614-.125-.082.063-3.633-.087-4.1s-.447-1.693-.554-1.92c-.426-.9-1.643-1.344-1.837-2.411-.116-.637,2.38-1.6-.482-1.631,1.028-1.812-.856-2.913-1.541-4.461-.881-1.991-1.4-4.141-2.306-6.142a29.9,29.9,0,0,0-3.133-5.511,39.153,39.153,0,0,1-2.563-4.7l-.551-.433q-1.149.166-.737-1.046c-.586-.867-1.021-1.793-1.537-2.7-.6-1.053-1.41-1.911-2.03-2.935-.823-1.357-1.066-2.888-2-4.25-1.143-1.675-2.429-3.153-3.489-4.891a27.208,27.208,0,0,0-4.47-5.217c-.8-.8-.891-2.809-1.866-3.949-1.061-1.242-2.109-1.578-2.845-3.209-.957-2.121-2.362-3.133-3.729-4.966-1.128-1.512-1.679-3.25-2.921-4.713-1.068-1.256-2.281-2.4-3.422-3.6-1.44-1.5-2.5-3.333-4-4.763.216.206-1.3-1-1.228-.96-.336-.172-1.422-.309-1.264-.216-2.262-1.33-5.1-6.2-8.5-3.618-1.791,1.356-.932,3.844.318,5.194.537.58,3.327,3.441,3.93,2.235.651.922,2.655,5.38,4.322,4.1-.17,1.524.713,1.018,1.3,2.048.384.68.2,1.013.476,2.074.769,2.916,3.7,5.764,5.264,8.307,3.888,6.329,8.177,12.331,12.069,18.667,3.709,6.038,7.863,11.768,11.421,17.888,4.047,6.959,9.089,13.528,12.138,21.03.1.252.95.651,1.16,1.03a15.412,15.412,0,0,1,.524,2.541,27.105,27.105,0,0,0,3.655,7.267c1.325,1.878,1.422,4.429,2.334,6.632,1.286,3.1,2.645,6.176,3.895,9.3a122.413,122.413,0,0,1,4.607,14.581,56.829,56.829,0,0,1,1.841,9.962c.255,3.12.318,6.37,1.472,9.324.787-1.216,1.715-2.791,1.185-4.3" transform="translate(-283.481 -74.685)" fill-rule="evenodd"/>
      <path id="ink-shape-3" data-name="ink-shape" d="M91.848,527.483c-1.4-.282-2.713-.659-3.009-2.264l-.608,2.27,5.106,1.156a1.894,1.894,0,0,0-1.489-1.162" transform="translate(-35.117 -209.047)" fill-rule="evenodd"/>
      <path id="ink-shape-4" data-name="ink-shape" d="M96.057,55.045a9.757,9.757,0,0,1,.412-1.329c.115.422.678,1.335.35,1.732-.418.505-.84.219-.763-.4m6.852-13.038c.459.2,1.451.241,2.021.412-1.477,1.271-1.737.9-3.647.749-.085-1.286.438-1.685,1.627-1.162M90.1,73.838l.6.015q.018-.84-.045-1.678c2.014.44.874-3.08.241-3.809,1.965.066,2.922-6.155,3.544-7.354.553-1.064,1.179-1.476,1.583-2.774a23.828,23.828,0,0,1,1.245-3.233c1.171-2.471,2.708-4.714,2.425-7.593.993,2.161,1.866,0,2.5-1.029,1.014-1.664,3.489-3.788,3.752-5.765.232-1.74-1.061-1.832-.3-3.446.772-1.634,1.406-1.47,2.758-1.993.9-.348,1.078.075,1.713-1.061.411-.735.266-1.283.793-1.885a.923.923,0,0,0,.742.235,4.482,4.482,0,0,0,.841-1.885,15.354,15.354,0,0,1,1.042-2.685c.5-.844,1.382-3.1,1.85-3.509.5-.432,3.318-.213,3.305-.2,1.165-1.465-.973-2.925,1.987-2.616-.585-1.088,1.469-2.439,2.065-3.045,1.489-1.512,1.607-2.211,1.922-4.112.16-.969-.882-.857.514-1.078.577-.091,1.131.647,1.548.539,1.839-.477-.085-.386.423-1.135.16-.238.978-1.2.97-1.187a3.3,3.3,0,0,1,.37-1.062,5.831,5.831,0,0,0,1.038-.184,10.378,10.378,0,0,0,.458-1.073c1.331-1.11,3.322-1.607,4.243-2.826.6-.789.417-1.561,1.186-2.347.733-.749,1.7-.206,1.847-1.9.185-2.152-2.127-3.11-3.072-.938-2.564-3.159-13.283,8.43-14.522,9.944a182.358,182.358,0,0,0-15.077,20.575A119.855,119.855,0,0,0,94,54.091,86.868,86.868,0,0,0,91.051,65.5c-.273,1.3-2.31,7.118-1.462,8.419l.516-.082" transform="translate(-35.576 0)" fill-rule="evenodd"/>
      <path id="ink-shape-5" data-name="ink-shape" d="M793.842,389.244c.906-.6.906-.6,1.065-1.746-1.215.222-1.215.222-1.065,1.746" transform="translate(-315.938 -154.232)" fill-rule="evenodd"/>
      <path id="ink-shape-6" data-name="ink-shape" d="M52.033,518a.031.031,0,0,1,.026.009c-.019-.025-.089-.1-.026-.009" transform="translate(-20.7 -206.155)" fill-rule="evenodd"/>
      <path id="ink-shape-7" data-name="ink-shape" d="M50.937,518.639a.877.877,0,0,0,1.35.45c.244.349-2.12-2.179-1.35-.45" transform="translate(-20.212 -206.185)" fill-rule="evenodd"/>
      <path id="ink-shape-8" data-name="ink-shape" d="M118.6,60.346c-1.419,2.782.358.758.267,1.662.06-.594.306-1.439-.267-1.662" transform="translate(-46.986 -24.019)" fill-rule="evenodd"/>
      <path id="ink-shape-9" data-name="ink-shape" d="M502.128,123.073c.615,4.988,7.439,2.629,8.974-.388,1.118-2.2,3.94-10.877.9-12.71-2.251-1.359-2.732,4.5-3.287,5.808-.93,2.192-1.657.639-3.724,1.2-2.282.621-3.119,4.021-2.865,6.09" transform="translate(-199.839 -43.691)" fill-rule="evenodd"/>
      <path id="ink-shape-10" data-name="ink-shape" d="M488.08,110.3c2.439.542,4.83.262,6.563-1.663.96-1.067,2.236-3.183.509-4.215-1.566-.935-3.341,1.255-4.99.8-2.242-.616-1.088-3.021-1.857-4.609-2.827,1.628-4.4,8.758-.225,9.685" transform="translate(-193.247 -40.046)" fill-rule="evenodd"/>
      <path id="ink-shape-11" data-name="ink-shape" d="M492.684,137.624c-2.351,0-2.371,2.887-1.143,4.127,1.174,1.186,4.145,2.386,5.737,1.464,3.141-1.82-2.691-5.4-4.594-5.591" transform="translate(-195.322 -54.777)" fill-rule="evenodd"/>
      <path id="ink-shape-12" data-name="ink-shape" d="M266.356,327.518c.5.244,1.982,1.5,2.605.932l-2.641-2.66c-.486.533-.82,1.313.035,1.728" transform="translate(-105.805 -129.671)" fill-rule="evenodd"/>
      <path id="ink-shape-13" data-name="ink-shape" d="M247.749,117.9l-.75.559c.843.7.822.911,1.672.246a2.987,2.987,0,0,0-.922-.8" transform="translate(-98.31 -46.926)" fill-rule="evenodd"/>
      <path id="ink-shape-14" data-name="ink-shape" d="M503.5,391.5c-.473-.849-1.365.716-1.969.971-.982.414-1.789-1.778-1.507.849-2.221-1.017-3.569,1.316-5,2.531-2.023,1.717-4.5,2.648-5.848,5.086,6.353,1.486,13.333-3.991,18.07-7.588.773-.587,4.636-3.551,2.018-3.838-1.071-.117-4.969,3.416-5.763,1.989" transform="translate(-194.703 -155.031)" fill-rule="evenodd"/>
      <path id="ink-shape-15" data-name="ink-shape" d="M508.613,383.5c1.245-.98-1.439-1.07-1.864-1.173q.055,1.169.109,2.338.9-.546,1.755-1.165" transform="translate(-201.696 -152.173)" fill-rule="evenodd"/>
      <path id="ink-shape-16" data-name="ink-shape" d="M501.755,388.712c.372-.232,1.409-.958.7-1.5a2.588,2.588,0,0,0-1.193,1.823l.489-.325" transform="translate(-199.514 -154.119)" fill-rule="evenodd"/>
      <path id="ink-shape-17" data-name="ink-shape" d="M330.453,284.7q-1.193.468-1.068,1.48c1.222-.25.989-1.4,1.068-1.48" transform="translate(-131.097 -113.314)" fill-rule="evenodd"/>
    </g>
  </g>
</svg>